<svg width="70" height="58" viewBox="0 0 70 58" fill="none" xmlns="http://www.w3.org/2000/svg">
<path d="M69.428 20.4464C69.2619 17.6319 68.3958 15.0893 66.8654 12.7715C65.8095 11.1632 64.2672 10.2053 62.3927 9.79139C61.0639 9.49574 59.7233 9.47209 58.3708 9.5667C55.7015 9.74408 53.1033 10.3472 50.5051 10.9858C47.456 11.7308 44.407 12.464 41.275 12.8424C38.5344 13.1736 35.8057 13.5638 33.0889 13.9541C32.6974 14.0132 32.472 13.9068 32.2109 13.6466C29.4585 10.8557 26.7298 8.02934 23.9181 5.29758C22.008 3.44093 19.8132 1.9627 17.3099 0.969337C13.644 -0.497063 10.0848 -0.390631 6.79849 1.90358C2.44445 4.91916 0.130987 9.08184 0.0123478 14.4035C-0.0825633 18.1286 0.795365 21.6408 2.37326 24.9875C3.61897 27.6484 5.29178 30.0253 7.16627 32.2722C7.34423 32.4851 7.39169 32.6743 7.33237 32.9581C6.71545 35.8673 6.95272 38.7173 8.09166 41.4845C9.65769 45.3161 12.244 48.3553 15.5896 50.7442C21.3673 54.8832 27.8213 56.9527 34.9515 56.8936C34.9515 56.9409 34.9634 56.9764 34.9634 57.0237C36.7785 56.8581 38.6056 56.799 40.397 56.5151C44.6799 55.8529 48.6424 54.3747 52.1423 51.773C54.7286 49.8454 56.7336 47.4684 57.9081 44.441C58.5962 42.679 58.7742 40.8341 58.9166 38.9656C58.9522 38.4926 59.1064 38.1615 59.5216 37.8777C61.6215 36.3994 63.5435 34.6965 65.1214 32.6625C67.8975 29.0675 69.7008 25.1531 69.428 20.4464ZM8.24589 29.6351C4.50876 24.9639 2.05294 19.867 2.43258 13.7767C2.6224 10.7256 3.87998 8.06482 6.06293 5.88887C6.81036 5.13202 7.56965 4.36334 8.43571 3.7484C10.4763 2.31748 12.7067 2.08096 15.0914 2.82599C17.3811 3.54736 19.3742 4.77725 21.2013 6.27912C24.1554 8.70341 26.7061 11.518 29.2924 14.3207C29.328 14.3561 29.3517 14.4153 29.4229 14.5217C28.9128 14.6873 28.4264 14.8528 27.9399 15.0066C25.5672 15.7634 23.313 16.7568 21.4148 18.4242C20.1216 19.5595 19.042 20.8603 18.4251 22.4923C18.2827 22.8707 17.998 23.0126 17.6302 23.1072C16.5032 23.3674 15.3642 23.5803 14.2846 23.9587C11.9356 24.7747 10.1797 26.3239 8.93399 28.4643C8.69672 28.8309 8.49503 29.2094 8.24589 29.6351ZM55.915 42.2532C55.2032 45.3398 53.4117 47.7286 50.9796 49.6798C48.3221 51.8085 45.2494 53.0265 41.9512 53.7597C39.8038 54.2446 37.6209 54.4338 35.5922 54.3747C29.6365 54.4456 24.2028 53.0857 19.1725 50.2238C15.8744 48.3435 13.1101 45.8837 11.2475 42.5252C8.94586 38.3625 9.05263 34.1052 11.0339 29.8834C12.2796 27.2226 14.6168 26.0282 17.4404 25.7444C21.1182 25.366 24.7011 25.9336 28.2484 26.9152C31.6771 27.873 35.0939 28.8428 38.5581 29.6351C41.0614 30.2146 43.6359 30.4984 46.1747 30.9596C48.3221 31.3498 50.4576 31.7756 52.4745 32.627C53.91 33.2301 55.1201 34.1171 55.737 35.5953C55.9743 36.1748 56.1523 36.8134 56.1997 37.4283C56.3302 39.0603 56.2709 40.6804 55.915 42.2532ZM63.2469 30.9832C62.1079 32.3077 60.7792 33.4903 59.5098 34.7084C59.2369 34.9804 58.8691 35.1696 58.5606 35.3943C58.4776 35.2996 58.442 35.276 58.4301 35.2405C57.3505 32.4969 55.2269 30.9359 52.5457 29.978C50.2559 29.1502 47.8713 28.689 45.4748 28.2396C42.4495 27.672 39.4005 27.1753 36.4108 26.4894C33.3499 25.7799 30.3602 24.822 27.3112 24.077C25.4485 23.6158 23.5266 23.3674 21.6402 23.0245C21.5572 23.0126 21.4741 22.989 21.2487 22.9417C21.5809 22.4687 21.8419 22.0193 22.186 21.6172C23.6571 19.9025 25.5078 18.7435 27.6078 17.963C29.9212 17.0997 32.3414 16.6385 34.7735 16.2838C37.7988 15.8462 40.836 15.5624 43.8376 15.0302C46.7086 14.5217 49.5322 13.7767 52.3796 13.1381C54.61 12.6414 56.8167 12.0738 59.1183 11.991C60.7555 11.9319 62.3571 12.1329 63.7096 13.1736C64.9197 14.1078 65.6078 15.3968 66.0824 16.7923C67.8975 22.0547 66.8535 26.7969 63.2469 30.9832Z" fill="#090706"/>
<path d="M39.5544 37.6529C39.7205 37.1207 39.3409 36.3993 38.7239 36.2219C36.9681 35.7253 35.2122 35.2522 33.4564 34.8028C32.7208 34.6136 32.0327 35.2286 32.0327 35.9972C32.0327 36.5294 32.3293 36.9788 32.8395 37.1325C34.5597 37.6174 36.2918 38.1022 38.0121 38.5634C38.6884 38.7408 39.3409 38.3388 39.5544 37.6529Z" fill="#090706"/>
<path d="M38.6526 46.4987C37.0866 47.4685 35.568 48.5328 34.0495 49.5853C33.824 49.739 33.7173 50.0701 33.5986 50.2712C33.658 50.5195 33.6698 50.6496 33.7173 50.7678C34.0139 51.5602 34.702 51.8913 35.4138 51.4419C36.968 50.4722 38.4747 49.4315 40.0051 48.4145C40.1238 48.3317 40.2187 48.2135 40.3136 48.0952C40.5509 47.8232 40.5865 47.5276 40.4797 47.1846C40.1712 46.3213 39.4594 46.0021 38.6526 46.4987Z" fill="#090706"/>
<path d="M17.3807 34.5898C17.3452 34.4597 17.2384 34.3296 17.1316 34.2469C16.7638 33.9512 16.1232 33.9276 15.7435 34.1641C15.3046 34.4361 15.0791 34.9446 15.1859 35.4649C15.2808 35.9143 15.3639 36.3637 15.4825 36.8012C15.8503 38.1494 16.2062 39.5093 16.6333 40.8456C16.835 41.4606 17.2977 41.6616 17.8553 41.5315C18.3773 41.4133 18.8756 40.822 18.8875 40.3017C18.8875 40.2425 18.8875 40.1716 18.8637 40.1006C18.3773 38.2676 17.8909 36.4228 17.3807 34.5898Z" fill="#090706"/>
<path d="M62.0484 22.5986C61.9298 22.6459 61.6688 22.6932 61.5146 22.8351C60.1146 24.1005 58.7265 25.3777 57.3503 26.6785C57.208 26.8086 57.1131 27.057 57.1012 27.258C57.0537 27.7902 57.2673 28.2159 57.7537 28.4642C58.2283 28.7126 58.691 28.6416 59.0706 28.2987C60.4231 27.0688 61.7637 25.8271 63.1043 24.5854C63.4721 24.2424 63.5552 23.8285 63.3297 23.3791C63.0925 22.9061 62.701 22.6459 62.0484 22.5986Z" fill="#090706"/>
<path d="M46.4356 22.0428C46.1153 20.8247 45.795 19.6185 45.4509 18.4122C45.356 18.0575 45.1662 17.7737 44.7747 17.6672C43.7662 17.3834 43.0188 17.9747 43.173 19.0035C43.3154 19.9378 43.5408 20.8602 43.7662 21.7708C43.9798 22.6222 44.2408 23.4737 44.5137 24.3133C44.6679 24.7745 44.9763 25.1057 45.4746 25.0702C46.4356 25.082 46.9339 24.4907 46.7678 23.6038C46.6729 23.0834 46.5661 22.5513 46.4356 22.0428Z" fill="#090706"/>
<path d="M11.6504 21.5228C12.3741 21.7356 13.169 21.1562 13.169 20.3402C13.1572 19.8435 12.8843 19.4414 12.4216 19.1576C10.9505 18.247 9.46748 17.3364 7.9845 16.4495C7.80654 16.3431 7.5574 16.2958 7.35571 16.3312C6.78625 16.4022 6.39474 16.7215 6.26423 17.2891C6.13373 17.8331 6.37101 18.2588 6.80997 18.5427C8.2455 19.4769 9.70476 20.3875 11.1522 21.3099C11.3183 21.4045 11.4843 21.4636 11.6504 21.5228Z" fill="#090706"/>
<path d="M12.5286 12.476C12.6828 12.4169 12.9438 12.3814 13.1455 12.2513C14.7116 11.2343 16.2657 10.2173 17.7962 9.15295C18.2707 8.83365 18.3063 8.24236 18.0216 7.75751C17.6657 7.16622 17.1555 6.91787 16.6098 7.18987C14.8065 8.08863 13.1574 9.23573 11.6032 10.5366C11.5795 10.5602 11.5676 10.5839 11.5439 10.6075C11.2473 10.9268 11.2117 11.2934 11.4015 11.6718C11.6151 12.0976 11.9117 12.4287 12.5286 12.476Z" fill="#090706"/>
</svg>
