<svg width="85" height="85" viewBox="0 0 85 85" fill="none" xmlns="http://www.w3.org/2000/svg">
<g clip-path="url(#clip0_2568_2693)">
<path d="M61.0448 50.4217C63.3579 49.4817 65.6543 49.0695 68.0169 48.987C69.9004 48.9211 70.4951 49.7951 69.6195 51.4111C67.3891 55.6325 65.7535 60.0683 64.3326 64.6195C63.0605 68.742 60.8301 72.3039 57.2449 74.9093C57.0136 75.0742 56.898 75.5524 56.9145 75.8822C57.1623 80.9611 53.1476 85.1166 48.059 84.9847C43.6973 84.8693 40.0956 81.2085 39.9304 76.6737C39.9139 76.1131 39.7487 75.8822 39.2034 75.7008C27.0602 71.7102 20.1872 63.1684 18.0064 50.8009C17.3455 47.1072 17.296 43.3145 16.949 39.5713C16.569 35.4323 16.2386 31.2933 15.0656 27.2862C14.8673 26.6266 15.049 26.0824 15.6273 25.7032C16.2221 25.3239 16.7838 25.4393 17.296 25.9011C19.989 28.3746 22.6985 30.8316 25.3419 33.3545C26.8289 34.7727 28.2167 36.3062 29.654 37.7903C29.7862 37.9223 29.9184 38.0542 30.2323 38.351C30.1332 37.8398 30.0836 37.5595 30.0175 37.2791C27.4567 25.7197 27.2584 14.1272 29.654 2.51825C29.8027 1.80918 30.034 1.18256 30.8436 1.03415C31.6201 0.885738 32.0166 1.36395 32.4296 1.9411C35.7174 6.52531 38.3278 11.4723 40.5582 16.6337C40.6573 16.881 40.7895 17.1119 40.9382 17.4252C41.4834 16.5677 41.9791 15.7762 42.5077 15.0177C42.7721 14.6384 43.0695 14.2591 43.3669 13.9128C46.6051 10.2521 50.7189 10.2356 53.9571 13.8963C56.2867 16.5347 57.5588 19.7338 58.5501 23.0318C60.8301 30.5183 61.4579 38.2191 61.2266 46.0024C61.1935 47.4205 61.1109 48.8551 61.0448 50.4217ZM18.7664 30.7491C19.1794 35.02 19.5429 39.1425 19.989 43.265C20.3194 46.3486 20.4846 49.4653 21.129 52.4829C22.5333 59.0294 25.7715 64.5536 31.1575 68.6761C35.387 71.9081 40.2443 73.6231 45.4651 74.4146C46.7868 74.6125 48.1085 74.7279 49.5789 74.8928C49.4633 74.4641 49.4137 74.2332 49.3476 74.0024C47.5798 67.9011 44.7051 62.3274 41.3182 57.0012C36.0974 48.8057 29.7862 41.4841 22.8637 34.6737C21.5255 33.3875 20.1707 32.1013 18.7664 30.7491ZM35.7339 44.98C35.8496 44.9305 35.9487 44.881 36.0644 44.8316C36.0644 44.5677 36.0644 44.3039 36.0644 44.04C36.0478 36.3722 36.7748 28.8033 39.2695 21.4817C39.3687 21.1849 39.3191 20.7727 39.1869 20.4758C37.6339 17.0789 36.1139 13.682 34.4783 10.318C33.7348 8.80093 32.7931 7.39928 31.8183 5.75028C31.7192 6.12955 31.6862 6.24498 31.6697 6.3769C31.4384 8.28974 31.141 10.1861 30.9758 12.0989C30.0836 22.4217 31.0749 32.5465 34.28 42.424C34.5774 43.3145 35.2383 44.1225 35.7339 44.98ZM66.3152 51.9058C66.1665 51.8893 66.0839 51.8563 66.0013 51.8563C65.7865 51.8728 65.5717 51.9058 65.3404 51.9552C60.6649 52.8292 57.2779 55.4346 55.1467 59.6561C53.065 63.7786 52.4372 68.2144 52.338 72.7656C52.3215 73.2933 52.338 73.8375 52.338 74.3981C54.1058 73.9529 56.5014 72.3204 57.9884 70.6219C60.4336 67.8681 61.6066 64.5041 62.6805 61.0907C63.2587 59.2273 63.9526 57.3969 64.663 55.583C65.1422 54.3463 65.7535 53.1425 66.3152 51.9058ZM42.6399 76.6902C42.8051 78.8174 43.7138 80.4335 45.4816 81.4888C47.4477 82.6596 49.4633 82.6431 51.4128 81.4558C53.1311 80.4005 54.0397 78.8174 54.205 76.7067C53.9076 76.7892 53.7258 76.8057 53.5606 76.8881C52.1067 77.6302 50.5702 77.7126 48.9842 77.5147C48.2242 77.4158 47.4477 77.3828 46.6877 77.2839C45.366 77.1025 44.0442 76.9046 42.6399 76.6902ZM45.6468 47.8327C47.8111 47.8327 49.8433 47.8327 51.8259 47.8327C51.8259 45.7715 51.8259 43.7927 51.8259 41.7479C49.6946 41.7479 47.6624 41.7479 45.6468 41.7479C45.6468 43.7927 45.6468 45.788 45.6468 47.8327ZM45.7129 50.6031C45.8451 52.4334 45.9607 54.2144 46.1425 55.9788C46.159 56.1602 46.5225 56.424 46.7372 56.424C48.1416 56.5065 49.5459 56.523 50.9502 56.5889C51.4624 56.6054 51.6276 56.391 51.6276 55.9128C51.6606 54.9234 51.7598 53.934 51.7928 52.9446C51.8259 52.1696 51.7928 51.3781 51.7928 50.5866C49.7607 50.6031 47.7781 50.6031 45.7129 50.6031ZM51.3633 33.1896C49.4963 33.1896 47.7285 33.1896 45.8946 33.1896C45.7955 35.1354 45.7129 37.0318 45.6138 38.9776C47.7616 38.9776 49.7276 38.9776 51.7267 38.9776C51.6111 37.0318 51.4954 35.1684 51.3633 33.1896ZM38.8069 40.8245C38.8069 42.9022 38.7904 44.8975 38.8235 46.8928C38.8235 47.0577 39.0548 47.3545 39.22 47.3875C40.4095 47.5359 41.6156 47.6349 42.9208 47.7503C42.9208 45.6726 42.9373 43.6938 42.9043 41.7314C42.9043 41.583 42.6069 41.3522 42.4086 41.3192C41.2521 41.1213 40.0791 40.9894 38.8069 40.8245ZM46.6712 24.7303C46.4894 26.6101 46.3077 28.4735 46.1094 30.4358C47.8277 30.4358 49.3972 30.4358 51.0659 30.4358C50.818 28.4735 50.5702 26.6266 50.3224 24.7303C49.0668 24.7303 47.9598 24.7303 46.6712 24.7303ZM54.6676 41.5995C54.6676 43.6443 54.6676 45.6231 54.6676 47.7173C55.9728 47.6019 57.1953 47.4865 58.5005 47.371C58.5005 45.2603 58.5005 43.2155 58.5005 41.1213C57.2119 41.2862 55.9397 41.4346 54.6676 41.5995ZM58.5005 38.384C58.2858 36.2733 58.0875 34.278 57.8727 32.2662C56.5014 32.5135 55.2954 32.7114 54.0397 32.9423C54.1884 34.9376 54.3371 36.8834 54.5023 38.9117C55.8406 38.7303 57.0797 38.5654 58.5005 38.384ZM38.8565 38.0542C40.2608 38.285 41.533 38.4829 42.9208 38.7138C43.0199 36.669 43.1025 34.7562 43.2016 32.8433C41.946 32.596 40.7895 32.3651 39.5008 32.1178C39.2861 34.0471 39.0878 35.9764 38.8565 38.0542ZM46.2746 59.2438C46.5555 60.0518 46.7538 60.8104 47.0677 61.5029C47.8937 63.3004 48.7694 65.0648 49.6285 66.8457C49.7111 67.0106 49.8102 67.1755 50.0085 67.5218C50.4215 64.6525 51.3633 62.0801 51.2641 59.2273C49.645 59.2438 48.092 59.2438 46.2746 59.2438ZM53.7754 30.2544C54.8989 30.0565 55.9067 29.9411 56.898 29.6937C57.0962 29.6443 57.3275 29.1496 57.2945 28.9022C57.1293 27.8963 56.8649 26.9234 56.6171 25.934C56.4353 25.2085 56.2041 24.4829 55.9893 23.7409C54.9484 23.9882 54.0232 24.2191 53.0484 24.4499C53.2797 26.3958 53.511 28.2591 53.7754 30.2544ZM43.4164 30.139C43.6147 28.0942 43.8129 26.1979 43.9947 24.2685C43.119 24.0212 42.3095 23.7903 41.3678 23.5265C40.8886 25.5218 40.4095 27.4346 39.9304 29.4299C41.186 29.6937 42.2269 29.8916 43.4164 30.139ZM58.2362 50.1084C57.0962 50.2073 56.0719 50.2733 55.031 50.3887C54.8658 50.4052 54.6015 50.6196 54.6015 50.7515C54.5684 52.318 54.5849 53.8846 54.5849 55.1708C55.3449 54.4782 56.2206 53.5218 57.2449 52.7797C58.2197 52.0707 58.2692 51.1967 58.2362 50.1084ZM49.9259 21.9929C49.4302 19.4205 48.9676 16.9305 48.4885 14.457C48.4059 14.457 48.3068 14.457 48.2242 14.457C47.8277 16.947 47.4311 19.4205 47.0181 21.9929C48.059 21.9929 48.9181 21.9929 49.9259 21.9929ZM55.0971 21.1849C54.1719 18.9753 53.2137 16.9305 51.4293 15.3804C51.8259 17.4912 52.2224 19.6019 52.6189 21.795C53.478 21.5807 54.238 21.3993 55.0971 21.1849ZM39.98 50.1908C41.0869 51.8068 42.0782 53.2579 43.086 54.7091C43.2016 53.3404 43.1356 52.0212 43.0364 50.702C43.0199 50.5866 42.7886 50.4217 42.6399 50.4052C41.8138 50.3227 40.9878 50.2733 39.98 50.1908ZM44.3416 21.5807C44.6225 19.7173 44.8868 17.9529 45.1677 16.1884C45.0851 16.1555 44.986 16.106 44.9034 16.073C44.0277 17.6561 43.1686 19.2391 42.2269 20.9541C43.0364 21.1849 43.6477 21.3663 44.3416 21.5807Z" fill="#090706"/>
</g>
<defs>
<clipPath id="clip0_2568_2693">
<rect width="55" height="84" fill="white" transform="translate(15 1)"/>
</clipPath>
</defs>
</svg>
