<svg width="85" height="85" viewBox="0 0 85 85" fill="none" xmlns="http://www.w3.org/2000/svg">
<path fill-rule="evenodd" clip-rule="evenodd" d="M52.2743 25.4767C51.8591 28.6324 50.6118 32.3492 47.3321 36.2848C43.1704 41.2789 40.1835 42.7476 34.3253 45.6282C32.731 46.4122 30.9241 47.3007 28.823 48.3933C19.1918 53.4015 16.6267 61.3369 15.3148 65.4037L13.8032 64.9161L13.8057 64.9084C15.1419 60.7663 17.8741 52.2965 28.0902 46.9841C30.2796 45.8456 32.1321 44.9335 33.7428 44.1405C39.5128 41.2997 42.1799 39.9865 46.1119 35.268C49.1854 31.5799 50.3206 28.1493 50.6996 25.2695C50.9703 23.2116 50.8617 21.5016 50.7701 20.0594C50.7298 19.4252 50.6928 18.8427 50.6928 18.3052H52.2811C52.2811 18.6993 52.3118 19.1913 52.3475 19.7625C52.4402 21.2444 52.5661 23.2588 52.2743 25.4767Z" fill="#090706"/>
<path fill-rule="evenodd" clip-rule="evenodd" d="M56.245 27.462C55.8298 30.6177 54.5825 34.3346 51.3028 38.2702C47.1411 43.2642 44.1542 44.733 38.296 47.6136C36.7017 48.3975 34.8948 49.286 32.7937 50.3786C23.1625 55.3868 20.5974 63.3222 19.2855 67.3891L17.7739 66.9015L17.7764 66.8938C19.1126 62.7516 21.8448 54.2818 32.0609 48.9694C34.2503 47.831 36.1028 46.9189 37.7135 46.1259C43.4835 43.285 46.1506 41.9718 50.0827 37.2534C53.1561 33.5652 54.2913 30.1347 54.6703 27.2548C54.941 25.1969 54.8324 23.487 54.7408 22.0447C54.7005 21.4105 54.6635 20.828 54.6635 20.2905H56.2518C56.2518 20.6847 56.2825 21.1767 56.3182 21.7478C56.4109 23.2298 56.5368 25.2442 56.245 27.462Z" fill="#090706"/>
<path fill-rule="evenodd" clip-rule="evenodd" d="M60.2157 29.4474C59.8005 32.6031 58.5532 36.3199 55.2735 40.2555C51.1118 45.2496 48.1249 46.7183 42.2667 49.5989C40.6724 50.3829 38.8655 51.2714 36.7644 52.364C27.1332 57.3722 24.5681 65.3076 23.2562 69.3744L21.7446 68.8868L21.7471 68.8791C23.0833 64.737 25.8155 56.2672 36.0316 50.9548C38.221 49.8163 40.0735 48.9042 41.6842 48.1112C47.4542 45.2704 50.1213 43.9572 54.0534 39.2387C57.1268 35.5506 58.262 32.12 58.641 29.2402C58.9117 27.1823 58.8031 25.4723 58.7115 24.0301C58.6712 23.3959 58.6342 22.8134 58.6342 22.2759H60.2225C60.2225 22.67 60.2532 23.162 60.2889 23.7332C60.3816 25.2151 60.5075 27.2295 60.2157 29.4474Z" fill="#090706"/>
<path fill-rule="evenodd" clip-rule="evenodd" d="M64.1864 31.4328C63.7712 34.5884 62.5239 38.3053 59.2442 42.2409C55.0825 47.2349 52.0956 48.7037 46.2374 51.5843C44.6431 52.3682 42.8362 53.2567 40.7351 54.3493C31.1039 59.3575 28.5388 67.2929 27.2269 71.3598L25.7153 70.8722L25.7178 70.8645C27.054 66.7223 29.7862 58.2525 40.0023 52.9401C42.1917 51.8017 44.0442 50.8896 45.6549 50.0966C51.4249 47.2557 54.092 45.9425 58.0241 41.2241C61.0975 37.5359 62.2327 34.1054 62.6117 31.2256C62.8825 29.1676 62.7738 27.4577 62.6822 26.0154C62.6419 25.3812 62.6049 24.7987 62.6049 24.2612H64.1932C64.1932 24.6554 64.2239 25.1474 64.2596 25.7185C64.3523 27.2005 64.4782 29.2149 64.1864 31.4328Z" fill="#090706"/>
<path fill-rule="evenodd" clip-rule="evenodd" d="M68.1571 33.4183C67.7419 36.574 66.4946 40.2909 63.2149 44.2265C59.0532 49.2205 56.0663 50.6893 50.2081 53.5699C48.6138 54.3538 46.8069 55.2423 44.7058 56.3349C35.0746 61.3431 32.5095 69.2785 31.1976 73.3454L29.686 72.8578L29.6885 72.8501C31.0247 68.7079 33.7569 60.2381 43.973 54.9257C46.1624 53.7873 48.0149 52.8752 49.6256 52.0821C55.3956 49.2413 58.0627 47.9281 61.9948 43.2097C65.0682 39.5215 66.2034 36.091 66.5824 33.2111C66.8532 31.1532 66.7445 29.4433 66.6529 28.001C66.6126 27.3668 66.5756 26.7843 66.5756 26.2468H68.1639C68.1639 26.641 68.1946 27.133 68.2303 27.7041C68.323 29.1861 68.4489 31.2005 68.1571 33.4183Z" fill="#090706"/>
<path fill-rule="evenodd" clip-rule="evenodd" d="M72.1283 35.4037C71.7131 38.5594 70.4658 42.2762 67.1861 46.2118C63.0244 51.2059 60.0375 52.6746 54.1793 55.5552C52.585 56.3392 50.7781 57.2277 48.677 58.3203C39.0458 63.3285 36.4807 71.2639 35.1688 75.3307L33.6572 74.8431L33.6597 74.8354C34.9959 70.6933 37.7281 62.2235 47.9442 56.9111C50.1336 55.7726 51.9861 54.8605 53.5968 54.0675C59.3668 51.2267 62.0339 49.9135 65.966 45.195C69.0394 41.5069 70.1746 38.0763 70.5536 35.1965C70.8243 33.1386 70.7157 31.4286 70.6241 29.9864C70.5838 29.3522 70.5468 28.7697 70.5468 28.2322H72.1351C72.1351 28.6263 72.1658 29.1183 72.2015 29.6895C72.2942 31.1714 72.4201 33.1858 72.1283 35.4037Z" fill="#090706"/>
<path fill-rule="evenodd" clip-rule="evenodd" d="M76.099 37.3891C75.6838 40.5447 74.4365 44.2616 71.1568 48.1972C66.9951 53.1912 64.0082 54.66 58.15 57.5406C56.5557 58.3245 54.7488 59.213 52.6477 60.3056C43.0165 65.3138 40.4514 73.2492 39.1395 77.3161L37.6279 76.8285L37.6304 76.8208C38.9666 72.6786 41.6988 64.2088 51.9149 58.8964C54.1043 57.758 55.9568 56.8459 57.5675 56.0529C63.3375 53.212 66.0046 51.8988 69.9367 47.1804C73.0101 43.4922 74.1453 40.0617 74.5243 37.1819C74.795 35.1239 74.6864 33.414 74.5948 31.9717C74.5545 31.3375 74.5175 30.755 74.5175 30.2175H76.1058C76.1058 30.6117 76.1365 31.1037 76.1722 31.6748C76.2649 33.1568 76.3908 35.1712 76.099 37.3891Z" fill="#090706"/>
<path fill-rule="evenodd" clip-rule="evenodd" d="M12.5313 14.5462C12.9057 16.322 13.6688 19.9227 15.0423 26.3665C16.9175 35.1638 25.4468 38.366 30.1006 38.9856C30.3498 39.0188 30.5879 39.0446 30.8133 39.0634C30.888 38.7683 30.9551 38.4755 31.0148 38.185C33.7158 25.0476 21.3125 16.7059 13.5621 13.6602C13.464 13.6216 13.3665 13.5839 13.2699 13.547C12.9169 13.4123 12.5745 13.2889 12.2444 13.177C12.2777 13.3396 12.3669 13.7661 12.5304 14.5418C12.5307 14.5433 12.531 14.5447 12.5313 14.5462ZM14.226 16.8021C14.664 18.8686 15.3033 21.877 16.2073 26.1181C17.1129 30.3666 19.7023 33.2017 22.6387 35.0424C24.9003 36.4602 27.3379 37.2659 29.2785 37.6436C28.8398 36.9644 28.2839 36.138 27.6325 35.1939C26.2703 33.2195 24.522 30.7748 22.6389 28.1844C19.8526 24.3512 16.7754 20.2048 14.226 16.8021ZM30.0628 36.6646C29.6482 36.0318 29.1585 35.3081 28.613 34.5175C27.2427 32.5313 25.4879 30.0776 23.6025 27.4839C20.6293 23.3938 17.3266 18.9491 14.6849 15.4284C18.0058 16.9328 21.8804 19.312 24.9277 22.5111C28.446 26.2046 30.8082 30.9183 30.0628 36.6646Z" fill="#090706"/>
<path fill-rule="evenodd" clip-rule="evenodd" d="M43.5227 11.0526C37.8105 20.4206 34.0514 30.1155 31.8561 35.7772C31.4448 36.8378 31.0885 37.7569 30.7844 38.5058C28.9948 23.578 32.2715 18.2515 43.5227 11.0526ZM44.9343 10.2822C38.855 19.9316 34.9069 30.1102 32.6115 36.0276L32.6115 36.0276L32.6115 36.0277C32.2064 37.0722 31.8527 37.9839 31.5479 38.7366C36.0604 37.2073 44.7439 31.6349 45.1338 22.6731C45.4673 15.0079 45.1146 11.9103 44.9792 10.7214C44.9572 10.5286 44.941 10.386 44.9343 10.2822Z" fill="#090706"/>
</svg>
