<svg width="32" height="65" viewBox="0 0 32 65" fill="none" xmlns="http://www.w3.org/2000/svg">
<path d="M25.2672 0.0125008C25.6707 0.362524 26.0624 0.737549 26.4778 1.06257C26.7151 1.25008 26.9999 1.41259 27.2848 1.4751C27.6883 1.5751 28.1155 1.5376 28.519 1.62511C30.3586 1.98763 31.2724 3.36272 30.9164 5.30035C30.6671 6.63794 30.3704 7.97553 30.0263 9.28812C29.421 11.5758 27.9375 13.2259 26.2879 14.7135C24.5196 16.3011 22.5376 17.5637 20.4963 18.7012C20.259 18.8388 20.0216 18.9763 19.7012 19.1513C20.5438 19.4138 21.3034 19.6013 22.0154 19.9013C27.9256 22.3015 31.2486 26.8643 31.9014 33.4647C32.471 39.1526 30.5366 44.0654 27.1068 48.3532C25.5165 50.3408 23.7481 52.1785 22.0866 54.0911C20.2471 56.2037 18.5737 58.4289 17.6362 61.1791C17.4226 61.8041 17.2564 62.4416 17.0784 63.0917C16.9241 63.6542 16.6037 64.0042 16.034 64.0167C15.4643 64.0293 15.0846 63.6917 14.9659 63.1292C14.2182 59.5915 12.2956 56.7788 10.017 54.1661C8.35548 52.266 6.63463 50.4284 5.0206 48.4782C2.37406 45.2655 0.676946 41.5778 0.142891 37.3525C-0.794673 29.952 2.88438 21.964 11.097 19.5138C11.3225 19.4513 11.5479 19.3763 11.9633 19.2638C11.631 19.1263 11.453 19.0513 11.275 18.9888C8.92514 18.0887 6.63463 17.0761 4.71203 15.3385C3.59645 14.351 2.73009 13.2009 2.4334 11.6383C2.33845 11.1632 1.99428 10.7507 1.86374 10.2757C1.67385 9.62564 1.43649 8.93809 1.4721 8.28805C1.55517 6.98796 2.45713 6.33792 3.56085 6.0504C4.17798 5.88789 4.65269 5.67538 5.00873 5.05033C5.41224 4.33779 6.13618 4.23778 6.86012 4.43779C7.33484 4.5628 7.80955 4.75032 8.22493 5.01283C8.79459 5.35036 9.37612 5.42536 9.99325 5.35036C11.18 5.21285 11.7616 5.52537 12.3075 6.62544C12.4499 6.90046 12.5448 7.20048 12.6991 7.463C12.7703 7.588 12.9009 7.76302 13.0196 7.76302C14.2182 7.86302 14.6929 8.71308 15.0727 9.78815C15.0727 9.61314 15.0727 9.42563 15.0727 9.25061C15.0727 9.0381 15.0371 8.82559 15.0846 8.62557C15.2626 7.88802 15.3694 7.11297 15.6898 6.45043C15.8797 6.0754 16.39 5.78788 16.8173 5.65037C17.1971 5.52537 17.3513 5.35036 17.4463 4.97533C17.6006 4.40029 17.7905 3.82525 18.0278 3.27522C18.3957 2.41266 19.0603 1.97513 19.9623 1.98763C20.9117 2.01263 21.7187 1.70011 22.4901 1.10007C23.0479 0.662544 23.7125 0.362524 24.3297 0C24.6264 0.0125008 24.9468 0.0125008 25.2672 0.0125008ZM17.5412 17.4512C17.5887 17.5137 17.6362 17.5637 17.6836 17.6262C17.7667 17.5887 17.8617 17.5637 17.9329 17.5137C19.4876 16.6136 21.066 15.7635 22.5851 14.776C24.2703 13.6884 25.8725 12.4258 27.0118 10.6882C27.4984 9.93816 27.8188 9.0381 28.0918 8.16304C28.3291 7.41299 28.3529 6.57544 28.5784 5.81289C29.1006 4.06277 28.9581 3.80025 27.2254 3.73775C26.4659 3.71275 25.7894 3.50023 25.2198 2.9502C24.5552 2.30015 24.5552 2.31265 23.8075 2.83769C23.7125 2.91269 23.6057 2.9752 23.5108 3.0502C22.5376 3.82525 21.4458 4.25028 20.2234 4.26278C20.081 4.26278 19.8555 4.4628 19.7961 4.61281C19.5944 5.20035 19.4638 5.81289 19.2977 6.40042C19.1078 7.06297 18.7162 7.538 18.0872 7.73801C17.1971 8.02553 17.1971 8.01303 17.2208 8.9756C17.2327 9.28812 17.2327 9.60064 17.2683 9.91316C17.3869 10.9382 17.2327 11.8258 16.3307 12.3508C16.5443 13.1009 16.7461 13.8009 16.9597 14.5635C17.1021 14.3885 17.2208 14.2384 17.3395 14.0884C18.8823 12.1633 20.4133 10.2382 21.9561 8.31305C22.4071 7.75051 23.0598 7.66301 23.5227 8.06304C24.033 8.50056 24.0686 9.16311 23.5939 9.77565C23.309 10.1507 23.0005 10.5007 22.7038 10.8632C20.9948 13.0759 19.2621 15.2635 17.5412 17.4512ZM11.0495 16.5011C11.097 16.4511 11.1326 16.4136 11.18 16.3636C10.1594 15.2385 9.13876 14.1134 8.11812 12.9884C7.59593 12.4133 7.54846 11.7508 7.98757 11.2757C8.45042 10.7632 9.07942 10.8007 9.64908 11.4008C10.3612 12.1508 11.0614 12.9134 11.7378 13.7009C12.4024 14.476 13.0314 15.301 13.6723 16.1011C13.3875 14.8885 13.9927 13.5759 13.1976 12.4758C13.0908 12.3258 13.1026 12.0758 13.0789 11.8758C13.0196 11.4258 12.9958 10.9632 12.9009 10.5132C12.8653 10.3757 12.6754 10.1757 12.5448 10.1632C11.7378 10.1007 11.2394 9.65064 10.9308 8.90059C10.8003 8.57557 10.6697 8.25055 10.5036 7.93803C10.4324 7.80052 10.2425 7.63801 10.1238 7.66301C8.97261 7.80052 7.9401 7.4755 6.9432 6.90046C6.81265 6.82545 6.49222 6.83795 6.44475 6.91296C5.93443 7.77552 5.11554 8.02553 4.24918 8.22555C3.48964 8.40056 3.45403 8.53807 3.78634 9.30062C4.04743 9.92566 4.40347 10.5257 4.53401 11.1882C4.71203 12.0758 5.13928 12.7508 5.75641 13.3384C7.28737 14.8135 9.15063 15.6885 11.0495 16.5011Z" fill="#090706"/>
</svg>
