<svg width="1125" height="673" viewBox="0 0 1125 673" fill="none" xmlns="http://www.w3.org/2000/svg">
<path d="M294.62 290.143C297.342 290.066 300.631 290.079 303.201 290.411C313.606 291.755 317.477 298.013 326.605 303.275C333.238 304.014 349.31 300.39 349.31 300.39C349.31 300.39 363.048 307.267 364.89 308.007L391.13 304.995C391.13 304.995 414.419 322.718 423.823 329.945L431.136 332.956L472.002 338.979C475.444 343.28 481.466 350.593 484.477 350.593C486.251 350.593 511.578 351.454 513.299 352.744C514.675 353.777 520.038 359.484 524.053 363.929C525.343 365.076 530.505 369.005 527.064 370.381C522.762 372.102 502.544 375.543 501.254 375.113C499.963 374.683 476.734 365.649 475.444 366.079C474.411 366.424 469.565 366.796 467.27 366.94L435.868 382.856L424.253 381.135C422.128 381.705 419.497 383.083 419.091 383.716C417.618 386.305 419.529 394.118 421.924 397.261C424.32 400.404 425.974 403.867 425.974 406.085C425.974 408.304 416.029 427.764 414.002 429.428C411.976 431.092 396.315 435.529 393.368 438.302C390.42 441.26 383.603 456.049 380.655 457.343C377.707 458.637 322.805 460.486 321.515 459.931C320.225 459.377 302.354 434.05 299.222 432.571C296.09 431.092 286.694 430.907 284.852 427.394C283.194 424.067 283.746 420.924 285.773 415.748C287.799 410.571 299.074 392.633 299.074 390.599C299.074 388.566 298.854 379.144 297.933 377.48C297.011 375.816 289.426 369.421 288.136 366.279C286.847 363.136 287.768 361.102 289.61 360.917C291.453 360.733 293.511 357.514 293.511 355.665C293.511 353.817 292.984 336.522 283.588 335.968L274.594 329.491C274.594 329.491 267.118 318.772 266.381 314.889C265.644 311.007 267.207 300.944 270.892 300.759C274.392 300.574 286.639 301.314 289.402 300.759C290.757 300.487 290.784 297.996 290.459 295.526C290.106 292.841 291.913 290.218 294.62 290.143Z" fill="#E5E6E8"/>
<path d="M400.167 220.595C399.362 223.828 377.615 242.416 377.615 242.416L377.613 242.438C377.477 243.666 377.006 247.916 378.071 252.514L379.946 257.677C382.527 262.839 385.108 269.721 391.561 271.442C394.285 272.876 399.734 272.475 399.734 278.325C399.734 284.175 401.024 285.925 397.583 286.498H340.37C336.929 282.627 329.788 275.142 328.756 276.174C327.465 277.465 305.957 276.174 304.666 276.174C303.634 276.174 297.64 273.88 294.772 272.733H263.37C258.351 270.869 248.228 267.14 247.884 267.14C247.454 267.14 245.733 264.129 245.733 263.269C245.733 262.409 257.778 255.956 258.208 255.526C258.552 255.182 259.212 245.058 259.498 240.04L265.044 231.006C269.969 223.344 276.472 213.772 277.339 213.523C278.748 213.119 298.482 216.958 305.73 216.15C312.979 215.342 331.303 196.147 332.31 194.127C333.316 192.106 339.76 190.49 345.398 189.48C351.036 188.469 359.09 193.318 362.111 194.329C365.131 195.339 385.468 194.733 386.475 194.935C387.482 195.137 401.174 205.239 400.973 206.654C400.772 208.068 400.973 217.362 400.167 220.595Z" fill="#E5E6E8"/>
<path opacity="0.6" d="M586.521 201.795C588.279 201.512 589.68 200.174 590.046 198.432L596.525 167.56C596.674 166.852 596.998 166.193 597.469 165.644L610.511 150.428C611.569 149.193 613.234 148.661 614.813 149.053L654.09 158.801C654.384 158.874 654.669 158.978 654.941 159.11L687.898 175.198C688.372 175.43 688.885 175.572 689.412 175.618L721.511 178.414C722.346 178.487 723.185 178.314 723.923 177.916L750.326 163.704C751.597 163.02 753.127 163.019 754.399 163.701L820.215 199.022C820.924 199.402 821.512 199.974 821.913 200.672L837.777 228.333C837.976 228.68 838.125 229.052 838.221 229.44L847.485 266.864C848.164 269.608 846.056 272.251 843.229 272.198L757.053 270.595C756.584 270.586 756.119 270.501 755.678 270.342L631.887 225.828C631.134 225.557 630.32 225.502 629.537 225.669L578.352 236.551C576.947 236.849 575.486 236.427 574.456 235.425L560.529 221.864C560.022 221.37 559.645 220.76 559.43 220.086L557.54 214.143C557.052 212.611 557.46 210.934 558.597 209.797L561.785 206.61C562.424 205.97 563.249 205.549 564.141 205.405L586.521 201.795Z" fill="#E5E6E8"/>
<path opacity="0.6" d="M847.561 172.65L844.051 187.646C843.805 188.697 843.174 189.616 842.282 190.223L835.96 194.522C834.207 195.714 833.583 198.005 834.491 199.92L846.958 226.248C847.051 226.445 847.129 226.649 847.191 226.857L855.089 253.285C855.696 255.317 857.694 256.604 859.795 256.315L874.068 254.356C876.323 254.047 877.946 252.034 877.772 249.765L876.99 239.602C876.868 238.018 877.629 236.496 878.97 235.643L904.126 219.634C904.817 219.195 905.618 218.961 906.436 218.961H973.3C974.569 218.961 975.773 218.401 976.59 217.431L987.317 204.693C988.385 203.424 988.629 201.653 987.942 200.142L982.95 189.161C982.334 187.806 981.062 186.866 979.587 186.675L960.392 184.189C959.559 184.082 958.775 183.732 958.138 183.183L940.533 168.027C939.414 167.064 937.881 166.742 936.47 167.173L914.751 173.805C914.239 173.961 913.702 174.02 913.169 173.98L852.075 169.341C849.961 169.18 848.044 170.585 847.561 172.65Z" fill="#E5E6E8"/>
<path opacity="0.6" d="M848.808 160.609C847.718 160.512 846.631 160.835 845.77 161.512L842.214 164.306C841.483 164.88 840.958 165.676 840.717 166.573L836.745 181.378C836.493 182.317 835.931 183.142 835.151 183.72L826.94 189.802C825.599 190.796 823.803 190.923 822.334 190.129L764.072 158.636C762.317 157.687 761.444 155.656 761.965 153.73L764.921 142.793C765.214 141.708 765.92 140.781 766.888 140.21L778.401 133.417C779.713 132.643 780.517 131.234 780.517 129.712V124.932C780.517 123.479 779.784 122.125 778.567 121.33L768.826 114.97C766.511 113.459 766.202 110.189 768.192 108.271L776.995 99.7864C777.833 98.9784 778.963 98.5447 780.127 98.5845L802.302 99.3424C802.915 99.3634 803.527 99.2527 804.094 99.0178L820.771 92.1138C821.994 91.6079 823.38 91.6923 824.532 92.3427L863.665 114.441C864.688 115.019 865.43 115.989 865.719 117.128L867.174 122.854C867.483 124.072 867.244 125.365 866.52 126.392L860.7 134.644C859.771 135.962 859.656 137.688 860.404 139.117L864.868 147.651C865.131 148.154 865.292 148.705 865.341 149.271L866.022 157.066C866.254 159.732 864.021 161.962 861.355 161.725L848.808 160.609Z" fill="#E5E6E8"/>
<path opacity="0.6" d="M592.401 253.239C590.856 250.709 592.273 247.411 595.172 246.791L629.523 239.439C630.315 239.269 631.138 239.327 631.899 239.604L669.422 253.304L750.453 284.923C750.935 285.111 751.448 285.211 751.966 285.217L896.619 286.909C897.7 286.921 898.737 287.34 899.523 288.083L904.797 293.064C905.598 293.82 906.078 294.854 906.139 295.953L906.777 307.45C906.857 308.874 907.636 310.167 908.859 310.901L938.395 328.622C938.904 328.927 939.471 329.124 940.059 329.2L981.111 334.484C982.084 334.609 982.984 335.063 983.664 335.77L1002.72 355.6C1003.35 356.26 1004.18 356.701 1005.08 356.858L1039.8 362.914C1040.39 363.016 1040.94 363.236 1041.43 363.562L1060.26 375.989C1061.47 376.785 1062.2 378.134 1062.2 379.579V386.32C1062.2 387.661 1061.57 388.926 1060.5 389.74L1023.27 418.162C1022.69 418.609 1022 418.897 1021.27 419.002L998.899 422.205C997.263 422.439 995.905 423.59 995.407 425.166L989.29 444.503C988.881 445.796 987.886 446.82 986.606 447.267L962.273 455.761C960.974 456.214 959.971 457.261 959.573 458.577L956.372 469.162C956.036 470.274 956.164 471.475 956.726 472.491L967.801 492.497C968.604 493.947 968.502 495.73 967.539 497.079L960.211 507.345C959.277 508.655 957.69 509.333 956.097 509.104L930.374 505.405C929.322 505.254 928.363 504.718 927.682 503.902L903.491 474.883C902.674 473.902 901.463 473.336 900.187 473.336H862.297C861.374 473.336 860.476 473.039 859.734 472.489L814.848 439.208L798.988 429.483C797.866 428.795 796.49 428.658 795.254 429.113L776.791 435.91C775.56 436.363 774.188 436.229 773.068 435.547L757.968 426.349C757.747 426.214 757.538 426.059 757.344 425.886L745.36 415.204C744.131 414.108 742.384 413.81 740.861 414.437L726.663 420.281L717.642 424.008C715.03 425.087 712.105 423.397 711.735 420.595L709.256 401.804C709.108 400.688 708.53 399.674 707.643 398.98L684.18 380.6C683.55 380.107 682.794 379.799 681.998 379.711L636.327 374.683L612.506 371.758C612.043 371.701 611.575 371.719 611.118 371.813L589.724 376.199C588.708 376.407 587.651 376.241 586.747 375.732L563.384 362.555C562.976 362.325 562.609 362.03 562.296 361.682L550.73 348.794C549.088 346.964 549.31 344.133 551.219 342.582L575.108 323.17C575.428 322.91 575.709 322.605 575.943 322.265L605.791 278.737C606.785 277.287 606.797 275.379 605.822 273.917L596.442 259.858L592.401 253.239Z" fill="#E5E6E8"/>
<path opacity="0.6" d="M220.823 50.4643L218.025 26.676C217.866 25.3228 218.357 23.9741 219.35 23.0405L233.95 9.30444C234.864 8.44419 236.108 8.0263 237.357 8.1604L276.763 12.3937C277.293 12.4507 277.83 12.4085 278.345 12.2691L321.579 0.573799C322.537 0.314661 323.555 0.394709 324.461 0.800376L359.498 16.4938C360.528 16.9554 361.336 17.8039 361.747 18.856L373.678 49.4357C374.101 50.5194 374.944 51.3856 376.017 51.8369L431.202 75.0645C434.421 76.4197 434.769 80.8446 431.8 82.6853L417.923 91.2886C417.557 91.5157 417.227 91.7966 416.944 92.1219L409.879 100.247C409.165 101.068 408.165 101.588 407.083 101.702L393.653 103.116C392.848 103.201 392.083 103.511 391.447 104.011L375.024 116.904C374.572 117.259 374.054 117.519 373.5 117.67L352.483 123.406C351.342 123.717 350.122 123.545 349.111 122.929L298.815 92.2601C298.14 91.8488 297.366 91.6312 296.576 91.6312H286.876C284.395 91.6312 282.428 89.5376 282.583 87.0611L283.278 75.9457C283.418 73.7053 281.812 71.7339 279.59 71.4183L235.529 65.1611C234.613 65.031 233.763 64.6089 233.106 63.9575L222.067 53.0171C221.376 52.3315 220.937 51.4315 220.823 50.4643Z" fill="#E5E6E8"/>
<path d="M200.414 83.4907L193.688 92.3618L186.973 83.4907V97.1665H185.168V80.3618H186.727L193.688 89.4907L200.648 80.3618H202.207V97.1665H200.414V83.4907ZM214.523 94.5649C215.352 93.7056 215.766 92.6548 215.766 91.4126C215.766 90.1626 215.352 89.1118 214.523 88.2603C213.703 87.4009 212.715 86.9712 211.559 86.9712C210.41 86.9712 209.422 87.4009 208.594 88.2603C207.773 89.1118 207.363 90.1587 207.363 91.4009C207.363 92.6353 207.773 93.686 208.594 94.5532C209.422 95.4126 210.41 95.8423 211.559 95.8423C212.715 95.8423 213.703 95.4165 214.523 94.5649ZM207.398 95.6665C206.258 94.5103 205.688 93.0923 205.688 91.4126C205.688 89.7251 206.258 88.3032 207.398 87.147C208.547 85.9829 209.938 85.4009 211.57 85.4009C213.203 85.4009 214.59 85.9829 215.73 87.147C216.871 88.3032 217.441 89.7251 217.441 91.4126C217.441 93.0923 216.871 94.5103 215.73 95.6665C214.59 96.8228 213.203 97.4009 211.57 97.4009C209.938 97.4009 208.547 96.8228 207.398 95.6665ZM221.309 95.6548C220.176 94.4829 219.609 93.0649 219.609 91.4009C219.609 89.7368 220.176 88.3228 221.309 87.1587C222.449 85.9868 223.801 85.4009 225.363 85.4009C226.262 85.4009 227.098 85.5962 227.871 85.9868C228.652 86.3696 229.211 86.7524 229.547 87.1353L230.051 87.686L228.844 88.8813C228.813 88.8345 228.766 88.7681 228.703 88.6821C228.641 88.5962 228.5 88.4399 228.281 88.2134C228.07 87.9868 227.84 87.7915 227.59 87.6274C227.34 87.4556 227.016 87.3032 226.617 87.1704C226.219 87.0376 225.801 86.9712 225.363 86.9712C224.262 86.9712 223.305 87.4009 222.492 88.2603C221.688 89.1118 221.285 90.1626 221.285 91.4126C221.285 92.6548 221.688 93.7056 222.492 94.5649C223.305 95.4165 224.262 95.8423 225.363 95.8423C226.035 95.8423 226.672 95.6821 227.273 95.3618C227.875 95.0415 228.313 94.7212 228.586 94.4009L228.973 93.9321L230.168 95.0103C230.121 95.0728 230.047 95.1626 229.945 95.2798C229.852 95.3892 229.648 95.5806 229.336 95.854C229.023 96.1196 228.695 96.3579 228.352 96.5688C228.008 96.772 227.563 96.9634 227.016 97.1431C226.477 97.3149 225.926 97.4009 225.363 97.4009C223.793 97.4009 222.441 96.8188 221.309 95.6548ZM234.48 93.9321V97.1665H232.805V85.647H234.48V91.7642L240.234 85.647H242.285L237.844 90.3228L242.766 97.1665H240.844L236.766 91.5298L234.48 93.9321ZM244.922 85.647H250.195C251.25 85.647 252.094 85.9321 252.727 86.5024C253.359 87.0649 253.676 87.7798 253.676 88.647C253.676 89.1392 253.555 89.5884 253.313 89.9946C253.078 90.3931 252.84 90.6704 252.598 90.8267L252.234 91.0493C252.281 91.0649 252.348 91.0884 252.434 91.1196C252.527 91.1509 252.684 91.2368 252.902 91.3774C253.129 91.5103 253.324 91.6704 253.488 91.8579C253.66 92.0376 253.813 92.2993 253.945 92.6431C254.086 92.9868 254.156 93.3735 254.156 93.8032C254.156 94.8423 253.832 95.6626 253.184 96.2642C252.535 96.8657 251.621 97.1665 250.441 97.1665H244.922V85.647ZM250.441 91.7642H246.598V95.6079H250.441C251.098 95.6079 251.602 95.4399 251.953 95.104C252.305 94.7681 252.48 94.2954 252.48 93.686C252.48 93.0767 252.305 92.604 251.953 92.2681C251.602 91.9321 251.098 91.7642 250.441 91.7642ZM250.195 90.3228C251.398 90.3228 252 89.8032 252 88.7642C252 87.7251 251.398 87.2056 250.195 87.2056H246.598V90.3228H250.195ZM259.91 90.5688L264.352 89.8423C264.352 88.9907 264.082 88.2993 263.543 87.7681C263.004 87.2368 262.313 86.9712 261.469 86.9712C260.859 86.9712 260.285 87.1118 259.746 87.3931C259.215 87.6665 258.828 87.9478 258.586 88.2368L258.223 88.647L257.145 87.5688C257.191 87.5063 257.254 87.4282 257.332 87.3345C257.418 87.2329 257.598 87.061 257.871 86.8188C258.152 86.5688 258.445 86.3462 258.75 86.1509C259.055 85.9556 259.453 85.7837 259.945 85.6353C260.445 85.479 260.953 85.4009 261.469 85.4009C262.781 85.4009 263.867 85.8267 264.727 86.6782C265.594 87.5298 266.027 88.5845 266.027 89.8423V97.1665H264.352V95.6079C264.32 95.6548 264.27 95.7212 264.199 95.8071C264.137 95.8853 263.988 96.0298 263.754 96.2407C263.527 96.4438 263.281 96.6274 263.016 96.7915C262.75 96.9478 262.398 97.0884 261.961 97.2134C261.531 97.3384 261.086 97.4009 260.625 97.4009C259.477 97.4009 258.508 97.061 257.719 96.3813C256.938 95.7017 256.547 94.9243 256.547 94.0493C256.547 93.0884 256.836 92.3149 257.414 91.729C257.992 91.1353 258.824 90.7485 259.91 90.5688ZM260.625 95.8423C261.711 95.8423 262.602 95.4868 263.297 94.7759C264 94.0649 264.352 93.1431 264.352 92.0103V91.2837L260.391 92.0103C258.953 92.2837 258.23 92.9634 258.223 94.0493C258.223 94.5649 258.434 94.9946 258.855 95.3384C259.285 95.6743 259.875 95.8423 260.625 95.8423Z" fill="#9C9C9C"/>
<path d="M428.034 316.121L416.285 296.214C415.086 294.182 415.011 291.678 416.087 289.578L420.789 280.397C422.299 277.45 421.496 273.845 418.877 271.817L398.044 255.689C397.176 255.016 396.159 254.562 395.079 254.363L267.582 230.858C262.914 229.998 260.497 224.782 262.86 220.664L264.401 217.978L271.722 207.642C272.965 205.888 274.956 204.815 277.104 204.742L298.637 204.008C300.56 203.943 302.369 203.075 303.623 201.615L319.64 182.972C320.261 182.249 321.027 181.662 321.888 181.25L352.714 166.489C354.443 165.661 355.749 164.149 356.316 162.318L364.225 136.795C364.657 135.4 365.522 134.179 366.694 133.308L395.054 112.229C396.142 111.42 397.445 110.951 398.798 110.88L410.432 110.267C412.13 110.178 413.734 109.463 414.937 108.261L421.873 101.325C422.863 100.335 424.131 99.6703 425.508 99.4199L441.377 96.5347C442.003 96.4209 442.61 96.2207 443.182 95.9399L465.379 85.0292C466.876 84.2936 468.588 84.1264 470.199 84.5584L587.177 115.943C589.629 116.601 591.519 118.554 592.096 121.027L596.509 139.94C596.939 141.78 596.593 143.715 595.553 145.292L585.41 160.681C584.945 161.387 584.614 162.172 584.434 162.998L579.708 184.6C579.093 187.413 576.792 189.545 573.941 189.946L556.38 192.41C554.94 192.612 553.601 193.265 552.556 194.275L544.688 201.871C542.845 203.65 542.143 206.306 542.866 208.764L547.751 225.375C548.009 226.253 548.44 227.07 549.017 227.779L584.793 271.721C586.561 273.893 586.837 276.92 585.49 279.376L566.526 313.958C566.034 314.855 565.349 315.63 564.521 316.229L536.733 336.297C535.485 337.199 533.972 337.656 532.434 337.594C520.658 337.124 507.88 336.56 496.069 336.086C494.162 336.01 492.373 335.147 491.127 333.702L484.167 325.628C482.988 324.26 481.317 323.41 479.516 323.262L433.399 319.482C431.171 319.3 429.17 318.046 428.034 316.121Z" fill="#A5DED0" fill-opacity="0.2" stroke="#A5DED0" stroke-width="3.44136" stroke-linecap="round" stroke-linejoin="round"/>
<path d="M399.418 120.958L374.034 141.165C373.342 141.715 372.837 142.466 372.587 143.313L366.331 164.514C365.964 165.758 366.178 167.101 366.913 168.17L373.932 178.368C374.735 179.534 376.06 180.231 377.476 180.231H400.655C401.723 180.231 402.753 180.628 403.544 181.345L423.331 199.278C424.439 200.282 425.989 200.639 427.424 200.22L448.642 194.03C449.633 193.741 450.696 193.818 451.636 194.248L468.027 201.744C468.66 202.033 469.355 202.165 470.05 202.127L490.958 200.987C492.046 200.927 493.07 200.458 493.825 199.673L501.771 191.409C502.789 190.35 504.276 189.884 505.716 190.172L533.497 195.728C534.859 196.001 536.269 195.599 537.282 194.648L548.347 184.276C549.05 183.616 549.955 183.212 550.916 183.128L566.054 181.812C567.936 181.648 569.491 180.276 569.887 178.428L574.166 158.475C574.274 157.97 574.472 157.489 574.751 157.055L583.762 143.004C584.368 142.059 584.581 140.916 584.355 139.817L581.805 127.385C581.475 125.775 580.256 124.494 578.665 124.084L470.091 96.0901C469.194 95.8587 468.246 95.9233 467.388 96.2742L444.364 105.695C444.149 105.783 443.928 105.853 443.702 105.905L428.421 109.432C427.664 109.606 426.969 109.982 426.409 110.52L417.759 118.824C416.958 119.593 415.89 120.022 414.78 120.022H402.097C401.124 120.022 400.18 120.352 399.418 120.958Z" fill="#A5DED0"/>
<path d="M447.542 208.709L432.362 213.029C430.816 213.468 429.645 214.733 429.324 216.308L425.523 234.991C425.389 235.651 425.102 236.27 424.684 236.799L413.384 251.112C411.992 252.875 412.191 255.412 413.84 256.937L431.436 273.205C432.798 274.464 433.2 276.454 432.433 278.142L426.157 291.966C425.626 293.135 425.645 294.479 426.208 295.632L432.692 308.917C433.331 310.227 434.591 311.124 436.038 311.3L485.438 317.316C486.545 317.45 487.557 318.01 488.259 318.876L496.521 329.064C497.338 330.071 498.566 330.656 499.862 330.656H524.836C525.726 330.656 526.594 330.38 527.32 329.865L556.797 309.009C557.33 308.632 557.769 308.14 558.083 307.569L574.617 277.47C575.487 275.887 575.275 273.93 574.088 272.57L538.418 231.693C538.022 231.24 537.727 230.71 537.549 230.135L531.316 209.978C530.844 208.453 529.568 207.315 527.999 207.021L509.137 203.481C507.588 203.191 506.005 203.77 505.009 204.991L499.063 212.283C498.304 213.215 497.189 213.786 495.989 213.858L466.638 215.633C465.945 215.674 465.252 215.548 464.618 215.264L450.48 208.921C449.556 208.507 448.516 208.432 447.542 208.709Z" fill="#A5DED0"/>
<path d="M404.779 229.312L380.048 241.243C378.561 241.96 377.615 243.466 377.615 245.117V249.503L266.381 228.855L275.963 215.449C276.82 214.25 278.23 213.573 279.701 213.655L303.372 214.97C304.728 215.046 306.04 214.476 306.911 213.434L326.821 189.62C327.245 189.113 327.78 188.711 328.385 188.444L353.428 177.395C355.332 176.555 357.564 177.198 358.729 178.923L366.192 189.967C366.992 191.151 368.327 191.861 369.756 191.861H393.355C394.415 191.861 395.439 192.253 396.228 192.961L409.87 205.204C411.046 206.259 411.549 207.874 411.18 209.41L407.093 226.441C406.791 227.697 405.942 228.751 404.779 229.312Z" fill="#A5DED0"/>
<path d="M501.52 62.1953H507.883C509.438 62.1953 510.727 62.6992 511.75 63.707C512.773 64.7148 513.285 65.9727 513.285 67.4805C513.285 68.9805 512.77 70.2383 511.738 71.2539C510.715 72.2617 509.43 72.7656 507.883 72.7656H503.324V79H501.52V62.1953ZM507.883 63.8828H503.324V71.0781H507.883C508.969 71.0781 509.84 70.75 510.496 70.0938C511.152 69.4375 511.48 68.5664 511.48 67.4805C511.48 66.3945 511.152 65.5234 510.496 64.8672C509.84 64.2109 508.969 63.8828 507.883 63.8828ZM515.195 71.3242C515.195 70.2227 515.582 69.3086 516.355 68.582C517.137 67.8477 518.152 67.4805 519.402 67.4805H524.312V79H522.637V75.1562H519.273L516.883 79H514.961L517.598 74.8047C517.535 74.7891 517.445 74.7617 517.328 74.7227C517.219 74.6758 517.027 74.5703 516.754 74.4062C516.48 74.2344 516.238 74.0312 516.027 73.7969C515.824 73.5547 515.633 73.2188 515.453 72.7891C515.281 72.3594 515.195 71.8711 515.195 71.3242ZM522.637 69.0391H519.402C518.637 69.0391 518.023 69.2539 517.562 69.6836C517.109 70.1055 516.883 70.6523 516.883 71.3242C516.883 71.9961 517.109 72.543 517.562 72.9648C518.016 73.3867 518.629 73.5977 519.402 73.5977H522.637V69.0391ZM535.117 70.4805C535.117 70.8633 535.055 71.2109 534.93 71.5234C534.812 71.8359 534.664 72.082 534.484 72.2617C534.312 72.4336 534.133 72.582 533.945 72.707C533.766 72.8242 533.617 72.9062 533.5 72.9531L533.312 73C533.375 73.0156 533.457 73.0352 533.559 73.0586C533.668 73.082 533.848 73.1602 534.098 73.293C534.355 73.418 534.582 73.5742 534.777 73.7617C534.98 73.9414 535.164 74.207 535.328 74.5586C535.5 74.9102 535.586 75.3125 535.586 75.7656C535.586 76.7422 535.203 77.5664 534.438 78.2383C533.672 78.9023 532.578 79.2344 531.156 79.2344C530.609 79.2344 530.09 79.1641 529.598 79.0234C529.113 78.8828 528.707 78.7148 528.379 78.5195C528.051 78.3242 527.766 78.1289 527.523 77.9336C527.289 77.7305 527.113 77.5586 526.996 77.418L526.832 77.1953L527.91 76.1172C528.004 76.2266 528.133 76.3711 528.297 76.5508C528.469 76.7305 528.836 76.9648 529.398 77.2539C529.961 77.5352 530.547 77.6758 531.156 77.6758C532.07 77.6758 532.758 77.5 533.219 77.1484C533.68 76.7969 533.91 76.3359 533.91 75.7656C533.91 75.1875 533.676 74.7227 533.207 74.3711C532.746 74.0195 532.062 73.8438 531.156 73.8438H529.832V72.2852H531.156C531.844 72.2852 532.395 72.1094 532.809 71.7578C533.223 71.3984 533.43 70.9727 533.43 70.4805C533.43 69.9805 533.238 69.5781 532.855 69.2734C532.473 68.9609 531.906 68.8047 531.156 68.8047C530.625 68.8047 530.117 68.9141 529.633 69.1328C529.156 69.3438 528.816 69.5625 528.613 69.7891L528.273 70.1172L527.066 68.9219C527.176 68.7969 527.336 68.6406 527.547 68.4531C527.758 68.2656 528.215 68.0156 528.918 67.7031C529.621 67.3906 530.367 67.2344 531.156 67.2344C532.328 67.2344 533.281 67.5547 534.016 68.1953C534.75 68.8359 535.117 69.5977 535.117 70.4805ZM541.246 72.4023L545.688 71.6758C545.688 70.8242 545.418 70.1328 544.879 69.6016C544.34 69.0703 543.648 68.8047 542.805 68.8047C542.195 68.8047 541.621 68.9453 541.082 69.2266C540.551 69.5 540.164 69.7812 539.922 70.0703L539.559 70.4805L538.48 69.4023C538.527 69.3398 538.59 69.2617 538.668 69.168C538.754 69.0664 538.934 68.8945 539.207 68.6523C539.488 68.4023 539.781 68.1797 540.086 67.9844C540.391 67.7891 540.789 67.6172 541.281 67.4688C541.781 67.3125 542.289 67.2344 542.805 67.2344C544.117 67.2344 545.203 67.6602 546.062 68.5117C546.93 69.3633 547.363 70.418 547.363 71.6758V79H545.688V77.4414C545.656 77.4883 545.605 77.5547 545.535 77.6406C545.473 77.7188 545.324 77.8633 545.09 78.0742C544.863 78.2773 544.617 78.4609 544.352 78.625C544.086 78.7812 543.734 78.9219 543.297 79.0469C542.867 79.1719 542.422 79.2344 541.961 79.2344C540.812 79.2344 539.844 78.8945 539.055 78.2148C538.273 77.5352 537.883 76.7578 537.883 75.8828C537.883 74.9219 538.172 74.1484 538.75 73.5625C539.328 72.9688 540.16 72.582 541.246 72.4023ZM541.961 77.6758C543.047 77.6758 543.938 77.3203 544.633 76.6094C545.336 75.8984 545.688 74.9766 545.688 73.8438V73.1172L541.727 73.8438C540.289 74.1172 539.566 74.7969 539.559 75.8828C539.559 76.3984 539.77 76.8281 540.191 77.1719C540.621 77.5078 541.211 77.6758 541.961 77.6758ZM559.469 79V73.9609H552.871V79H551.195V67.4805H552.871V72.4023H559.469V67.4805H561.156V79H559.469ZM566.676 77.4414H569.699C570.449 77.4414 571.051 77.2305 571.504 76.8086C571.965 76.3789 572.195 75.8281 572.195 75.1562C572.195 74.4844 571.965 73.9375 571.504 73.5156C571.051 73.0938 570.441 72.8828 569.676 72.8828H566.676V77.4414ZM572.746 72.3789C573.496 73.082 573.871 74.0117 573.871 75.168C573.871 76.3164 573.5 77.2422 572.758 77.9453C572.016 78.6484 570.996 79 569.699 79H565V67.4805H566.676V71.3242H569.676C570.973 71.3242 571.996 71.6758 572.746 72.3789Z" fill="black"/>
<path d="M214.117 169.195V186H212.324V170.883H205.117V174.234C205.117 176.711 205.012 178.766 204.801 180.398C204.598 182.023 204.277 183.254 203.84 184.09C203.41 184.918 202.93 185.484 202.398 185.789C201.875 186.086 201.223 186.234 200.441 186.234C200.184 186.234 199.926 186.215 199.668 186.176C199.418 186.137 199.227 186.094 199.094 186.047L198.883 186V184.195C199.359 184.352 199.797 184.434 200.195 184.441C200.688 184.441 201.105 184.32 201.449 184.078C201.801 183.836 202.129 183.371 202.434 182.684C202.738 181.996 202.961 180.953 203.102 179.555C203.25 178.156 203.324 176.383 203.324 174.234V169.195H214.117ZM227.09 174.48H228.531V186H226.844V177.363L219.883 186H218.453V174.48H220.129V183.117L227.09 174.48ZM240.648 186V176.062H234.051V186H232.375V174.48H242.336V186H240.648ZM256.375 180.867L247.012 180.844C247.074 181.883 247.5 182.781 248.289 183.539C249.086 184.297 250.02 184.676 251.09 184.676C251.809 184.676 252.477 184.516 253.094 184.195C253.711 183.875 254.148 183.555 254.406 183.234L254.816 182.766L255.895 183.844C255.848 183.906 255.777 183.996 255.684 184.113C255.598 184.223 255.402 184.414 255.098 184.688C254.801 184.953 254.477 185.191 254.125 185.402C253.781 185.605 253.332 185.797 252.777 185.977C252.23 186.148 251.668 186.234 251.09 186.234C249.52 186.234 248.168 185.652 247.035 184.488C245.902 183.316 245.336 181.898 245.336 180.234C245.336 178.57 245.895 177.156 247.012 175.992C248.137 174.82 249.457 174.234 250.973 174.234C252.543 174.234 253.855 174.781 254.91 175.875C255.965 176.961 256.492 178.336 256.492 180L256.375 180.867ZM253.551 176.824C252.84 176.145 251.98 175.805 250.973 175.805C249.965 175.805 249.086 176.16 248.336 176.871C247.586 177.582 247.145 178.426 247.012 179.402H254.816C254.691 178.363 254.27 177.504 253.551 176.824ZM259.492 186V174.48H261.168V184.441H267.531V174.48H269.207V184.441H271.012V188.883H269.324V186H259.492ZM275.324 182.766V186H273.648V174.48H275.324V180.598L281.078 174.48H283.129L278.688 179.156L283.609 186H281.688L277.609 180.363L275.324 182.766Z" fill="black"/>
<path d="M391.342 261.183L261.03 235.67C257.317 234.943 253.713 237.349 252.962 241.058L252.25 244.573C251.674 247.415 249.379 249.592 246.51 250.015L240.369 250.922C237.413 251.359 235.076 253.652 234.585 256.6L234.522 256.974C234.026 259.95 231.65 262.256 228.661 262.662L223.374 263.382C221.435 263.645 219.475 263.071 217.985 261.803L211.038 255.891C210.096 255.089 208.955 254.556 207.736 254.348L194.711 252.124C192.948 251.823 191.371 250.847 190.315 249.404L180.567 236.081C179.593 234.75 178.173 233.813 176.565 233.44L104.937 216.849C103.62 216.543 102.241 216.633 100.974 217.107L57.2019 233.474C56.2452 233.832 55.3801 234.398 54.6694 235.132L35.461 254.957C34.2996 256.156 33.6134 257.735 33.53 259.402L31.8572 292.859C31.6654 296.694 34.6494 299.945 38.4872 300.081L52.4899 300.578C54.5526 300.651 56.4736 301.646 57.7234 303.289L73.32 323.789C74.6216 325.5 76.6479 326.504 78.7976 326.504H105.595C107.2 326.504 108.755 325.943 109.99 324.918L113.454 322.043C115.205 320.59 117.56 320.096 119.747 320.723L138.701 326.157C139.501 326.386 140.336 326.469 141.166 326.4L175.559 323.549C176.01 323.512 176.457 323.43 176.892 323.305L204.531 315.357C205.599 315.05 206.726 315.006 207.816 315.23L238.598 321.544C239.335 321.695 240.091 321.724 240.838 321.631L250.19 320.457C253.564 320.034 256.742 322.139 257.669 325.41L259.319 331.233C259.715 332.633 260.545 333.871 261.688 334.769L271.587 342.547C271.844 342.749 272.087 342.969 272.313 343.206L276.852 347.961C279.231 350.454 279.4 354.322 277.248 357.013L273.483 361.719C271.024 364.793 271.639 369.3 274.832 371.602L284.602 378.645C286.396 379.939 287.459 382.016 287.459 384.228V386.729C287.459 388.129 287.033 389.495 286.236 390.646L273.333 409.284C272.452 410.556 272.026 412.087 272.122 413.631L273.329 432.941C273.54 436.307 276.158 439.025 279.514 439.36L288.117 440.221C289.902 440.399 291.547 441.267 292.701 442.64L313.788 467.727C315.096 469.282 317.024 470.181 319.056 470.181H381.817C384.139 470.181 386.304 469.01 387.576 467.067L399.95 448.162C400.652 447.09 401.64 446.234 402.802 445.693L418.776 438.248C420.099 437.631 421.192 436.61 421.896 435.332L435.42 410.8C436.947 408.03 436.389 404.576 434.068 402.427L428.525 397.295C427.168 396.039 426.374 394.29 426.321 392.442L424.417 326.316C424.382 325.087 424.017 323.889 423.362 322.848L406.488 296.045C405.207 294.011 405.103 291.47 406.402 289.448C407.816 287.248 409.666 284.551 411.331 282.171C413.591 278.94 412.754 274.462 409.444 272.318L393.761 262.16C393.025 261.683 392.203 261.351 391.342 261.183Z" fill="#C49EEA" fill-opacity="0.2" stroke="#C49EEA" stroke-width="3.44136" stroke-linecap="round" stroke-linejoin="round"/>
<path d="M59.9917 244.192L44.6256 260.011C43.9287 260.729 43.5036 261.667 43.4234 262.663L41.5125 286.411C41.3162 288.851 43.1919 290.962 45.6375 291.055L58.6816 291.549C59.9497 291.597 61.1319 292.202 61.9119 293.203L78.5389 314.54C79.3607 315.594 80.626 316.207 81.9628 316.197L104.335 316.037C105.183 316.031 106.01 315.774 106.713 315.299L113.114 310.974C114.102 310.306 115.323 310.078 116.486 310.346L140.52 315.871C140.972 315.974 141.437 316.005 141.898 315.96L174.788 312.777C175.052 312.751 175.305 312.704 175.56 312.63C178.083 311.899 192.797 307.63 203.36 304.446C204.035 304.242 204.749 304.207 205.441 304.344L239.57 311.108C239.949 311.183 240.336 311.206 240.721 311.178L254.828 310.143C256.605 310.013 258.117 308.801 258.632 307.095L261.73 296.827C262.207 295.246 263.546 294.078 265.177 293.82L272.076 292.731C275.211 292.236 276.749 288.631 274.936 286.025L273.257 283.611C272.453 282.456 271.134 281.766 269.726 281.766H260.305C259.772 281.766 259.243 281.667 258.746 281.474L237.254 273.116C236.607 272.864 235.909 272.773 235.22 272.849L218.666 274.689C217.542 274.814 216.414 274.491 215.526 273.791L205.216 265.658C204.672 265.228 204.031 264.936 203.349 264.808L185.54 261.451C184.418 261.24 183.427 260.592 182.784 259.65L172.683 244.857C172.079 243.972 171.166 243.344 170.123 243.097L105.887 227.861C105.072 227.668 104.218 227.717 103.43 228.002L61.6128 243.144C61 243.366 60.4457 243.724 59.9917 244.192Z" fill="#C49EEA"/>
<path d="M258.501 251.597L259.334 241.419C259.389 240.746 259.602 240.096 259.955 239.521L261.219 237.459L380.806 260.688L403.983 274.035C406.159 275.288 406.803 278.131 405.381 280.2L396.527 293.079C395.83 294.092 394.735 294.759 393.515 294.911L372.183 297.577C371.628 297.647 371.065 297.607 370.525 297.461L351.382 292.277C350.927 292.153 350.454 292.106 349.984 292.136L331.972 293.285C331.003 293.347 330.043 293.08 329.245 292.527L310.834 279.751C309.913 279.112 308.78 278.858 307.674 279.042L288.801 282.188C287.189 282.457 285.564 281.788 284.607 280.463L281.753 276.513C281.008 275.48 279.843 274.831 278.572 274.74L263.186 273.641C262.738 273.609 262.297 273.507 261.88 273.339L246.528 267.132C244.231 266.204 243.191 263.532 244.256 261.295L245.559 258.559C246.202 257.209 247.499 256.289 248.986 256.131L254.67 255.524C256.724 255.304 258.332 253.656 258.501 251.597Z" fill="#C49EEA"/>
<path d="M305.939 288.038L292.708 289.937C290.763 290.216 289.254 291.778 289.042 293.731L288.757 296.36C288.512 298.623 286.545 300.303 284.271 300.192L271.638 299.576C269.584 299.476 267.746 300.844 267.253 302.841L264.781 312.843C264.595 313.597 264.616 314.386 264.842 315.128L268.514 327.183C268.804 328.135 269.415 328.957 270.243 329.509L283.562 338.388C284.144 338.776 284.623 339.3 284.956 339.915L291.737 352.398C292.756 354.275 292.244 356.615 290.535 357.895L286.3 361.066C284.064 362.741 283.993 366.069 286.154 367.838L296.356 376.189C297.354 377.006 297.933 378.228 297.933 379.518V389.307C297.933 390.15 297.685 390.974 297.22 391.678L283.968 411.741C283.443 412.537 283.196 413.484 283.268 414.434L284.195 426.793C284.343 428.777 285.832 430.399 287.796 430.718L297.609 432.309C298.648 432.478 299.59 433.022 300.255 433.838L320.224 458.347C321.041 459.35 322.266 459.932 323.559 459.932H377.942C379.452 459.932 380.852 459.14 381.63 457.845L392.654 439.491C393.118 438.718 393.813 438.11 394.642 437.754L412.865 429.917C413.608 429.598 414.246 429.075 414.706 428.41L428.226 408.831C429.384 407.153 429.206 404.892 427.798 403.417L422.871 398.254C422.255 397.608 421.855 396.787 421.727 395.904L420.365 386.551C420.115 384.834 420.92 383.135 422.408 382.243L424.253 381.136L422.963 329.085C414.981 322.951 398.282 309.077 393.413 305.021C392.538 304.292 391.416 303.944 390.282 304.044L365.915 306.195C365.241 306.255 364.569 306.158 363.937 305.915C360.921 304.754 352.865 301.725 350.189 300.72C349.608 300.502 348.99 300.413 348.372 300.457L328.612 301.871C327.594 301.944 326.583 301.653 325.761 301.05L309.094 288.827C308.186 288.162 307.053 287.878 305.939 288.038Z" fill="#C49EEA"/>
<path d="M4.32422 212.699L12.9609 203.218H15.2344L8.88281 210.179L15.8438 220.023H13.6758L7.67578 211.503L4.32422 215.101V220.023H2.51953V203.218H4.32422V212.699ZM19.9102 221.699L20.5078 220.023L15.8203 208.503H17.625L21.3516 217.867L25.0664 208.503H26.8711L21.5859 221.699C21.1094 222.917 20.5977 223.781 20.0508 224.288C19.5039 224.804 18.8164 225.062 17.9883 225.062C17.7305 225.062 17.4805 225.042 17.2383 225.003C17.0039 224.964 16.8281 224.921 16.7109 224.874L16.5469 224.828V223.257C16.9453 223.413 17.3438 223.495 17.7422 223.503C18.7578 223.503 19.4805 222.902 19.9102 221.699ZM32.0859 211.163C31.25 212.046 30.832 213.081 30.832 214.269C30.832 215.449 31.25 216.484 32.0859 217.374C32.9297 218.257 33.8711 218.699 34.9102 218.699C35.9023 218.699 36.7891 218.269 37.5703 217.41C38.3594 216.542 38.7539 215.495 38.7539 214.269C38.7539 213.035 38.3594 211.988 37.5703 211.128C36.7891 210.261 35.9023 209.828 34.9102 209.828C33.8711 209.828 32.9297 210.273 32.0859 211.163ZM30.832 218.218V225.062H29.1562V208.503H30.832V210.308C30.8633 210.261 30.918 210.191 30.9961 210.097C31.082 209.995 31.25 209.828 31.5 209.593C31.7578 209.359 32.0352 209.152 32.332 208.972C32.6289 208.785 33.0078 208.62 33.4688 208.48C33.9375 208.331 34.418 208.257 34.9102 208.257C36.3789 208.257 37.6641 208.847 38.7656 210.027C39.875 211.206 40.4297 212.62 40.4297 214.269C40.4297 215.91 39.8789 217.32 38.7773 218.499C37.6758 219.671 36.3867 220.257 34.9102 220.257C34.418 220.257 33.9414 220.187 33.4805 220.046C33.0273 219.906 32.6445 219.738 32.332 219.542C32.0195 219.347 31.7461 219.152 31.5117 218.956C31.2852 218.753 31.1133 218.581 30.9961 218.441L30.832 218.218ZM44.2852 218.511C43.1523 217.339 42.5859 215.921 42.5859 214.257C42.5859 212.593 43.1523 211.179 44.2852 210.015C45.4258 208.843 46.7773 208.257 48.3398 208.257C49.2383 208.257 50.0742 208.453 50.8477 208.843C51.6289 209.226 52.1875 209.609 52.5234 209.992L53.0273 210.542L51.8203 211.738C51.7891 211.691 51.7422 211.624 51.6797 211.538C51.6172 211.453 51.4766 211.296 51.2578 211.07C51.0469 210.843 50.8164 210.648 50.5664 210.484C50.3164 210.312 49.9922 210.16 49.5938 210.027C49.1953 209.894 48.7773 209.828 48.3398 209.828C47.2383 209.828 46.2812 210.257 45.4688 211.117C44.6641 211.968 44.2617 213.019 44.2617 214.269C44.2617 215.511 44.6641 216.562 45.4688 217.421C46.2812 218.273 47.2383 218.699 48.3398 218.699C49.0117 218.699 49.6484 218.538 50.25 218.218C50.8516 217.898 51.2891 217.578 51.5625 217.257L51.9492 216.788L53.1445 217.867C53.0977 217.929 53.0234 218.019 52.9219 218.136C52.8281 218.245 52.625 218.437 52.3125 218.71C52 218.976 51.6719 219.214 51.3281 219.425C50.9844 219.628 50.5391 219.82 49.9922 219.999C49.4531 220.171 48.9023 220.257 48.3398 220.257C46.7695 220.257 45.418 219.675 44.2852 218.511ZM57.457 216.788V220.023H55.7812V208.503H57.457V214.62L63.2109 208.503H65.2617L60.8203 213.179L65.7422 220.023H63.8203L59.7422 214.386L57.457 216.788Z" fill="black"/>
<path d="M307.766 496C307.844 496.031 307.941 496.074 308.059 496.129C308.176 496.184 308.395 496.332 308.715 496.574C309.035 496.816 309.316 497.082 309.559 497.371C309.801 497.66 310.02 498.063 310.215 498.578C310.418 499.086 310.52 499.625 310.52 500.195C310.52 501.586 310.043 502.734 309.09 503.641C308.137 504.547 306.895 505 305.363 505H298.52V488.195H305C306.359 488.195 307.477 488.613 308.352 489.449C309.234 490.277 309.676 491.301 309.676 492.52C309.676 493.012 309.613 493.469 309.488 493.891C309.363 494.305 309.203 494.637 309.008 494.887C308.812 495.137 308.617 495.352 308.422 495.531C308.234 495.703 308.078 495.82 307.953 495.883L307.766 496ZM300.324 503.324H305.363C306.371 503.324 307.18 503.031 307.789 502.445C308.406 501.859 308.715 501.109 308.715 500.195C308.715 499.266 308.402 498.477 307.777 497.828C307.16 497.172 306.355 496.844 305.363 496.844H300.324V503.324ZM305 489.883H300.324V495.262H305C305.898 495.262 306.602 495.02 307.109 494.535C307.625 494.043 307.883 493.371 307.883 492.52C307.883 491.738 307.625 491.106 307.109 490.621C306.602 490.129 305.898 489.883 305 489.883ZM321.875 502.398C322.703 501.539 323.117 500.488 323.117 499.246C323.117 497.996 322.703 496.945 321.875 496.094C321.055 495.234 320.066 494.805 318.91 494.805C317.762 494.805 316.773 495.234 315.945 496.094C315.125 496.945 314.715 497.992 314.715 499.234C314.715 500.469 315.125 501.52 315.945 502.387C316.773 503.246 317.762 503.676 318.91 503.676C320.066 503.676 321.055 503.25 321.875 502.398ZM314.75 503.5C313.609 502.344 313.039 500.926 313.039 499.246C313.039 497.559 313.609 496.137 314.75 494.981C315.898 493.816 317.289 493.234 318.922 493.234C320.555 493.234 321.941 493.816 323.082 494.981C324.223 496.137 324.793 497.559 324.793 499.246C324.793 500.926 324.223 502.344 323.082 503.5C321.941 504.656 320.555 505.234 318.922 505.234C317.289 505.234 315.898 504.656 314.75 503.5ZM330.734 496.141C329.898 497.023 329.48 498.059 329.48 499.246C329.48 500.426 329.898 501.461 330.734 502.352C331.578 503.234 332.52 503.676 333.559 503.676C334.551 503.676 335.438 503.246 336.219 502.387C337.008 501.52 337.402 500.473 337.402 499.246C337.402 498.012 337.008 496.965 336.219 496.106C335.438 495.238 334.551 494.805 333.559 494.805C332.52 494.805 331.578 495.25 330.734 496.141ZM329.48 503.195V510.039H327.805V493.481H329.48V495.285C329.512 495.238 329.566 495.168 329.645 495.074C329.73 494.973 329.898 494.805 330.148 494.57C330.406 494.336 330.684 494.129 330.98 493.949C331.277 493.762 331.656 493.598 332.117 493.457C332.586 493.309 333.066 493.234 333.559 493.234C335.027 493.234 336.312 493.824 337.414 495.004C338.523 496.184 339.078 497.598 339.078 499.246C339.078 500.887 338.527 502.297 337.426 503.477C336.324 504.648 335.035 505.234 333.559 505.234C333.066 505.234 332.59 505.164 332.129 505.023C331.676 504.883 331.293 504.715 330.98 504.52C330.668 504.324 330.395 504.129 330.16 503.934C329.934 503.731 329.762 503.559 329.645 503.418L329.48 503.195ZM350.07 502.398C350.898 501.539 351.312 500.488 351.312 499.246C351.312 497.996 350.898 496.945 350.07 496.094C349.25 495.234 348.262 494.805 347.105 494.805C345.957 494.805 344.969 495.234 344.141 496.094C343.32 496.945 342.91 497.992 342.91 499.234C342.91 500.469 343.32 501.52 344.141 502.387C344.969 503.246 345.957 503.676 347.105 503.676C348.262 503.676 349.25 503.25 350.07 502.398ZM342.945 503.5C341.805 502.344 341.234 500.926 341.234 499.246C341.234 497.559 341.805 496.137 342.945 494.981C344.094 493.816 345.484 493.234 347.117 493.234C348.75 493.234 350.137 493.816 351.277 494.981C352.418 496.137 352.988 497.559 352.988 499.246C352.988 500.926 352.418 502.344 351.277 503.5C350.137 504.656 348.75 505.234 347.117 505.234C345.484 505.234 344.094 504.656 342.945 503.5ZM364.273 505V499.961H357.676V505H356V493.481H357.676V498.402H364.273V493.481H365.961V505H364.273ZM380 499.867L370.637 499.844C370.699 500.883 371.125 501.781 371.914 502.539C372.711 503.297 373.645 503.676 374.715 503.676C375.434 503.676 376.102 503.516 376.719 503.195C377.336 502.875 377.773 502.555 378.031 502.234L378.441 501.766L379.52 502.844C379.473 502.906 379.402 502.996 379.309 503.113C379.223 503.223 379.027 503.414 378.723 503.688C378.426 503.953 378.102 504.191 377.75 504.402C377.406 504.606 376.957 504.797 376.402 504.977C375.855 505.148 375.293 505.234 374.715 505.234C373.145 505.234 371.793 504.652 370.66 503.488C369.527 502.316 368.961 500.898 368.961 499.234C368.961 497.57 369.52 496.156 370.637 494.992C371.762 493.82 373.082 493.234 374.598 493.234C376.168 493.234 377.48 493.781 378.535 494.875C379.59 495.961 380.117 497.336 380.117 499L380 499.867ZM377.176 495.824C376.465 495.145 375.605 494.805 374.598 494.805C373.59 494.805 372.711 495.16 371.961 495.871C371.211 496.582 370.77 497.426 370.637 498.402H378.441C378.316 497.363 377.895 496.504 377.176 495.824ZM389.117 501.156L387.43 499.363L383.352 505H381.43L386.352 498.156L381.91 493.481H383.949L389.117 499V493.481H390.793V499L395.949 493.481H397.988L393.547 498.156L398.469 505H396.547L392.469 499.363L390.793 501.156V505H389.117V501.156Z" fill="black"/>
<path className="area3" d="M437.848 438.511C440.905 433.378 444.834 426.694 446.91 423.156C447.831 421.586 448.087 419.722 447.63 417.959L442.818 399.399C442.493 398.146 441.822 397.011 440.881 396.122L436.557 392.038C435.285 390.837 434.519 389.198 434.412 387.452L431.151 333.91C430.9 329.776 434.329 326.357 438.463 326.623L474.881 328.962C476.791 329.085 478.563 329.997 479.773 331.479L486.419 339.624C487.648 341.131 489.457 342.047 491.399 342.146L519.139 343.569C520.912 343.66 522.582 344.433 523.799 345.725L548.903 372.399C549.255 372.773 549.648 373.107 550.075 373.394L574.199 389.608C575.166 390.258 576.282 390.652 577.443 390.753L594.183 392.209C595.028 392.282 595.879 392.199 596.693 391.963L610.454 387.98C611.347 387.721 612.269 387.645 613.192 387.758C618.587 388.419 638.176 390.817 643.64 391.46L672.693 395.091C673.948 395.248 675.136 395.748 676.126 396.535L693.525 410.384C694.915 411.49 695.823 413.091 696.06 414.851L698.481 432.837C698.626 433.915 699.025 434.943 699.644 435.837L703.793 441.831C705.395 444.144 708.243 445.25 710.986 444.623L719.789 442.611C720.912 442.354 721.953 441.819 722.816 441.056L728.716 435.837C731.056 433.767 734.496 433.532 737.095 435.265L744.3 440.069L756.304 448.471C756.901 448.889 757.561 449.21 758.259 449.421L773.815 454.124C775.048 454.497 776.362 454.516 777.606 454.179L792.959 450.021C795.089 449.444 797.367 449.924 799.084 451.311L833.414 479.053C836.436 481.495 836.839 485.953 834.304 488.897L812.75 513.927C812.429 514.3 812.149 514.706 811.914 515.14L801.67 534.052C801.281 534.769 801.023 535.55 800.908 536.357L800.16 541.596C799.923 543.255 800.299 544.943 801.217 546.344L813.906 565.694C815.704 568.436 815.318 572.067 812.982 574.369L789.775 597.245C787.993 599.002 785.397 599.653 782.997 598.945L748.121 588.666C746.755 588.263 745.297 588.295 743.948 588.756L681.622 610.067C680.147 610.572 678.887 611.561 678.048 612.874L670.536 624.633C669.827 625.743 668.815 626.625 667.62 627.177L644.862 637.681C642.757 638.652 640.305 638.499 638.337 637.273L615.029 622.747C613.024 621.498 610.518 621.364 608.391 622.393L603.111 624.948C600.361 626.279 598.817 629.262 599.32 632.275L600.184 637.459C600.696 640.537 599.075 643.574 596.233 644.861L539.759 670.427C538.231 671.118 536.504 671.228 534.9 670.736L491.232 657.329C489.394 656.765 487.876 655.458 487.045 653.724L470.494 619.187C469.777 617.69 468.542 616.503 467.018 615.844L446.882 607.14C443.096 605.503 441.589 600.926 443.664 597.361L455.889 576.349C456.969 574.494 458.851 573.249 460.981 572.981L476.812 570.993C477.614 570.892 478.393 570.651 479.111 570.28L487.953 565.716C490.071 564.623 491.473 562.511 491.658 560.135L493.622 534.935C493.818 532.41 492.612 529.98 490.482 528.611L463.53 511.284C460.358 509.246 459.417 505.035 461.419 501.84L474.402 481.121C476.316 478.067 475.55 474.054 472.646 471.92L439.688 447.697C436.801 445.574 436.014 441.589 437.848 438.511Z" fill="#9EB3FC" fill-opacity="0.2" stroke="#9EB3FC" stroke-width="3.44136" stroke-linecap="round" stroke-linejoin="round"/>
<path className="area3" d="M450.55 438.55L458.748 424.427C459.334 423.419 459.485 422.216 459.167 421.094L455.217 407.165C454.528 404.736 456.071 402.238 458.552 401.766L475.825 398.482C476.583 398.338 477.288 397.993 477.867 397.483L487.482 389.004C488.524 388.085 489.946 387.726 491.299 388.04L515.692 393.698C516.649 393.92 517.652 393.808 518.536 393.38L540.839 382.601C542.171 381.957 543.742 382.043 544.996 382.829L570.954 399.101C571.512 399.451 572.142 399.668 572.796 399.736L595.885 402.124C596.457 402.183 597.035 402.127 597.585 401.959L611.355 397.752C611.937 397.574 612.55 397.521 613.153 397.598L668.732 404.649C669.484 404.744 670.198 405.037 670.801 405.497L684.728 416.126C685.683 416.855 686.29 417.95 686.402 419.147L687.828 434.478C687.906 435.319 688.23 436.118 688.759 436.776L702.228 453.521C703.233 454.771 704.85 455.357 706.423 455.043L724.208 451.486C724.97 451.334 725.676 450.978 726.252 450.456L730.779 446.354C732.237 445.034 734.405 444.87 736.044 445.957L751.918 456.478C752.286 456.721 752.689 456.907 753.113 457.028L775.442 463.408C776.176 463.617 776.952 463.628 777.692 463.438L791.286 459.953C792.58 459.621 793.956 459.91 795.008 460.734L821.461 481.468C823.453 483.029 823.673 485.964 821.937 487.805L804.054 506.761C803.795 507.036 803.573 507.344 803.394 507.677L791.591 529.655C791.325 530.15 791.159 530.692 791.101 531.251L789.63 545.597C789.525 546.619 789.789 547.645 790.375 548.489L802.045 565.306C803.231 567.016 803.023 569.329 801.552 570.801L786.071 586.281C784.979 587.373 783.386 587.796 781.897 587.39L747.227 577.928C746.407 577.704 745.539 577.728 744.733 577.997L674.615 601.381C673.774 601.662 673.039 602.196 672.513 602.91L661.926 617.278C661.5 617.856 660.936 618.318 660.286 618.623L643.384 626.534C642.094 627.138 640.59 627.064 639.365 626.338L613.786 611.16C612.55 610.426 611.029 610.359 609.732 610.98L593.413 618.8C592.02 619.467 591.091 620.831 590.981 622.372L590.052 635.378C589.939 636.959 588.965 638.351 587.518 638.998L538.444 660.942C537.486 661.37 536.406 661.433 535.405 661.121L496.396 648.929C495.292 648.584 494.373 647.809 493.847 646.778L475.821 611.455C475.38 610.591 474.661 609.902 473.779 609.499L456.464 601.576C454.139 600.512 453.249 597.666 454.555 595.468L461.448 583.861C462.135 582.704 463.324 581.935 464.661 581.783L480.668 579.965C481.195 579.905 481.707 579.747 482.178 579.501L497.423 571.515C498.736 570.828 499.602 569.513 499.716 568.035L502.785 528.138C502.902 526.611 502.199 525.137 500.939 524.268L475.623 506.796C473.81 505.545 473.235 503.126 474.292 501.192L488.264 475.634C489.298 473.743 488.772 471.379 487.035 470.104L451.724 444.177C449.953 442.877 449.446 440.45 450.55 438.55Z" fill="#9EB3FC"/>
<path className="area3" d="M908.791 230.576H977.012C979.419 230.576 981.715 229.568 983.344 227.797L1001.19 208.395L999.924 207.23L1001.19 208.395C1001.77 207.765 1002.5 207.29 1003.3 207.01L1017.68 202.046C1018.14 201.886 1018.62 201.793 1019.11 201.769L1030.95 201.191C1032.81 201.101 1034.58 200.413 1036.02 199.23L1048.99 188.503C1050.25 187.465 1051.92 187.081 1053.5 187.467L1095.1 197.602C1096.09 197.845 1096.99 198.378 1097.69 199.135L1119.71 223.234C1120.34 223.918 1120.77 224.758 1120.95 225.666L1122.57 233.452C1122.75 234.281 1122.71 235.141 1122.47 235.954L1115.66 259.232C1115.06 261.268 1115.24 263.453 1116.15 265.367L1122.74 279.11C1123.09 279.843 1123.26 280.648 1123.24 281.461L1122.96 293.343C1122.93 294.903 1122.19 296.364 1120.95 297.315L1102.25 311.693C1100.18 313.283 1098.95 315.725 1098.89 318.333L1098.43 340.202C1098.4 341.601 1097.81 342.928 1096.78 343.88L1072.95 365.964C1071.24 367.55 1068.67 367.791 1066.69 366.55L1046.61 353.943C1045.71 353.377 1044.71 352.984 1043.66 352.782L1010.18 346.333C1009.06 346.119 1008.05 345.544 1007.3 344.698L991.224 326.659C989.882 325.152 988.053 324.166 986.058 323.871L943.622 317.606C942.956 317.508 942.316 317.28 941.738 316.936L921.085 304.657C919.52 303.726 918.561 302.04 918.561 300.22V289.472C918.561 287.412 917.822 285.421 916.479 283.86L910.326 276.71C908.552 274.649 905.907 273.548 903.195 273.741L888.536 274.783C884.313 275.083 881.544 270.451 883.808 266.874L888.349 259.695C889.56 257.782 889.967 255.469 889.483 253.257L888.098 246.922C887.637 244.816 888.533 242.646 890.345 241.479L905.995 231.398C906.829 230.862 907.799 230.576 908.791 230.576Z" fill="#9EB3FC" fill-opacity="0.2" stroke="#9EB3FC" stroke-width="3.44136"/>
<path className="area3" d="M483.732 349.026L472.638 338.29C471.947 337.621 471.066 337.205 470.11 337.106C464.011 336.473 440.562 334.076 432.857 333.817L435.868 382.856L466.451 384.487C467.531 384.545 468.593 384.193 469.426 383.503L483.909 371.492C485.063 370.535 486.633 370.248 488.052 370.735L512.905 379.267C513.983 379.637 515.165 379.564 516.189 379.063L527.928 373.331C530.506 372.071 531.153 368.689 529.22 366.568L516.657 352.779C515.884 351.931 514.805 351.426 513.659 351.378L486.542 350.232C485.489 350.188 484.489 349.758 483.732 349.026Z" fill="#9EB3FC"/>
<path className="area3" d="M912.585 242.458L904.283 247.279C902.129 248.529 901.319 251.239 902.433 253.466L902.583 253.766C903.573 255.747 902.914 258.155 901.053 259.356C897.642 261.557 898.848 266.817 902.877 267.313L916.851 269.033C918.195 269.199 919.421 269.886 920.263 270.946L929.444 282.507C930.169 283.42 930.563 284.552 930.563 285.717V294.434C930.563 296.191 931.456 297.826 932.934 298.776L947.746 308.298C948.329 308.673 948.983 308.927 949.667 309.044L997.204 317.17C998.342 317.365 999.382 317.935 1000.16 318.79L1014.62 334.738C1015.35 335.538 1016.3 336.09 1017.36 336.317L1048.93 343.111C1049.45 343.223 1049.96 343.416 1050.42 343.682L1066.47 352.903C1068.51 354.076 1071.09 353.718 1072.73 352.035L1086.97 337.472C1087.91 336.508 1088.44 335.213 1088.44 333.864V309.479C1088.44 307.753 1089.3 306.141 1090.73 305.184L1109.37 292.762C1110.8 291.805 1111.66 290.193 1111.66 288.467V282.657C1111.66 281.79 1111.45 280.938 1111.03 280.177L1102.87 265.285C1102.17 264.001 1102.05 262.481 1102.53 261.1L1110.4 238.602C1110.67 237.85 1110.75 237.047 1110.65 236.257L1109.74 228.924C1109.59 227.766 1109.06 226.69 1108.22 225.874L1091.16 209.191C1090.5 208.547 1089.68 208.091 1088.79 207.87L1057.88 200.239C1056.27 199.84 1054.56 200.244 1053.3 201.323L1042.13 210.844C1041.2 211.641 1040.01 212.079 1038.78 212.079H1022.8C1022.11 212.079 1021.43 212.215 1020.8 212.48L1009.41 217.259C1008.76 217.531 1008.17 217.931 1007.69 218.437L986.717 240.182C985.744 241.19 984.403 241.76 983.001 241.76H915.177C914.266 241.76 913.372 242.001 912.585 242.458Z" fill="#9EB3FC"/>
<path d="M1035.96 169.715C1034.28 168.035 1033.44 165.996 1033.44 163.598C1033.44 161.199 1034.28 159.16 1035.96 157.48C1037.64 155.801 1039.68 154.961 1042.08 154.961C1042.93 154.961 1043.75 155.082 1044.53 155.324C1045.31 155.559 1045.95 155.844 1046.46 156.18C1046.98 156.516 1047.43 156.855 1047.81 157.199C1048.2 157.543 1048.48 157.836 1048.65 158.078L1048.92 158.441L1047.71 159.52C1047.67 159.441 1047.6 159.34 1047.5 159.215C1047.41 159.082 1047.19 158.852 1046.85 158.523C1046.5 158.195 1046.13 157.906 1045.72 157.656C1045.32 157.398 1044.8 157.164 1044.14 156.953C1043.48 156.742 1042.8 156.637 1042.08 156.637C1040.16 156.637 1038.54 157.305 1037.21 158.641C1035.89 159.977 1035.23 161.629 1035.23 163.598C1035.23 165.566 1035.89 167.219 1037.21 168.555C1038.54 169.891 1040.16 170.559 1042.08 170.559C1042.8 170.559 1043.48 170.461 1044.14 170.266C1044.8 170.062 1045.34 169.82 1045.77 169.539C1046.21 169.258 1046.59 168.98 1046.92 168.707C1047.25 168.426 1047.48 168.18 1047.62 167.969L1047.84 167.676L1049.04 168.766C1048.98 168.859 1048.88 168.984 1048.75 169.141C1048.62 169.289 1048.34 169.562 1047.89 169.961C1047.45 170.359 1046.99 170.715 1046.5 171.027C1046 171.34 1045.36 171.621 1044.55 171.871C1043.75 172.113 1042.93 172.234 1042.08 172.234C1039.68 172.234 1037.64 171.395 1035.96 169.715ZM1054.44 165.402L1058.88 164.676C1058.88 163.824 1058.61 163.133 1058.07 162.602C1057.54 162.07 1056.84 161.805 1056 161.805C1055.39 161.805 1054.82 161.945 1054.28 162.227C1053.75 162.5 1053.36 162.781 1053.12 163.07L1052.75 163.48L1051.68 162.402C1051.72 162.34 1051.79 162.262 1051.86 162.168C1051.95 162.066 1052.13 161.895 1052.4 161.652C1052.68 161.402 1052.98 161.18 1053.28 160.984C1053.59 160.789 1053.98 160.617 1054.48 160.469C1054.98 160.312 1055.48 160.234 1056 160.234C1057.31 160.234 1058.4 160.66 1059.26 161.512C1060.12 162.363 1060.56 163.418 1060.56 164.676V172H1058.88V170.441C1058.85 170.488 1058.8 170.555 1058.73 170.641C1058.67 170.719 1058.52 170.863 1058.29 171.074C1058.06 171.277 1057.81 171.461 1057.55 171.625C1057.28 171.781 1056.93 171.922 1056.49 172.047C1056.06 172.172 1055.62 172.234 1055.16 172.234C1054.01 172.234 1053.04 171.895 1052.25 171.215C1051.47 170.535 1051.08 169.758 1051.08 168.883C1051.08 167.922 1051.37 167.148 1051.95 166.562C1052.52 165.969 1053.36 165.582 1054.44 165.402ZM1055.16 170.676C1056.24 170.676 1057.13 170.32 1057.83 169.609C1058.53 168.898 1058.88 167.977 1058.88 166.844V166.117L1054.92 166.844C1053.48 167.117 1052.76 167.797 1052.75 168.883C1052.75 169.398 1052.96 169.828 1053.39 170.172C1053.82 170.508 1054.41 170.676 1055.16 170.676ZM1074.47 163.48L1070.26 168.766L1066.07 163.48V172H1064.39V160.48H1065.7L1070.26 166.234L1074.82 160.48H1076.14V172H1074.47V163.48ZM1082.52 165.402L1086.96 164.676C1086.96 163.824 1086.69 163.133 1086.15 162.602C1085.61 162.07 1084.92 161.805 1084.08 161.805C1083.47 161.805 1082.89 161.945 1082.36 162.227C1081.82 162.5 1081.44 162.781 1081.2 163.07L1080.83 163.48L1079.75 162.402C1079.8 162.34 1079.86 162.262 1079.94 162.168C1080.03 162.066 1080.21 161.895 1080.48 161.652C1080.76 161.402 1081.05 161.18 1081.36 160.984C1081.66 160.789 1082.06 160.617 1082.55 160.469C1083.05 160.312 1083.56 160.234 1084.08 160.234C1085.39 160.234 1086.48 160.66 1087.34 161.512C1088.2 162.363 1088.64 163.418 1088.64 164.676V172H1086.96V170.441C1086.93 170.488 1086.88 170.555 1086.81 170.641C1086.75 170.719 1086.6 170.863 1086.36 171.074C1086.14 171.277 1085.89 171.461 1085.62 171.625C1085.36 171.781 1085.01 171.922 1084.57 172.047C1084.14 172.172 1083.7 172.234 1083.23 172.234C1082.09 172.234 1081.12 171.895 1080.33 171.215C1079.55 170.535 1079.16 169.758 1079.16 168.883C1079.16 167.922 1079.45 167.148 1080.02 166.562C1080.6 165.969 1081.43 165.582 1082.52 165.402ZM1083.23 170.676C1084.32 170.676 1085.21 170.32 1085.91 169.609C1086.61 168.898 1086.96 167.977 1086.96 166.844V166.117L1083 166.844C1081.56 167.117 1080.84 167.797 1080.83 168.883C1080.83 169.398 1081.04 169.828 1081.46 170.172C1081.89 170.508 1082.48 170.676 1083.23 170.676ZM1095.4 163.141C1094.56 164.023 1094.14 165.059 1094.14 166.246C1094.14 167.426 1094.56 168.461 1095.4 169.352C1096.24 170.234 1097.18 170.676 1098.22 170.676C1099.21 170.676 1100.1 170.246 1100.88 169.387C1101.67 168.52 1102.07 167.473 1102.07 166.246C1102.07 165.012 1101.67 163.965 1100.88 163.105C1100.1 162.238 1099.21 161.805 1098.22 161.805C1097.18 161.805 1096.24 162.25 1095.4 163.141ZM1094.14 170.195V177.039H1092.47V160.48H1094.14V162.285C1094.18 162.238 1094.23 162.168 1094.31 162.074C1094.39 161.973 1094.56 161.805 1094.81 161.57C1095.07 161.336 1095.35 161.129 1095.64 160.949C1095.94 160.762 1096.32 160.598 1096.78 160.457C1097.25 160.309 1097.73 160.234 1098.22 160.234C1099.69 160.234 1100.98 160.824 1102.08 162.004C1103.19 163.184 1103.74 164.598 1103.74 166.246C1103.74 167.887 1103.19 169.297 1102.09 170.477C1100.99 171.648 1099.7 172.234 1098.22 172.234C1097.73 172.234 1097.25 172.164 1096.79 172.023C1096.34 171.883 1095.96 171.715 1095.64 171.52C1095.33 171.324 1095.06 171.129 1094.82 170.934C1094.6 170.73 1094.43 170.559 1094.31 170.418L1094.14 170.195ZM1109.26 165.402L1113.7 164.676C1113.7 163.824 1113.43 163.133 1112.89 162.602C1112.36 162.07 1111.66 161.805 1110.82 161.805C1110.21 161.805 1109.64 161.945 1109.1 162.227C1108.57 162.5 1108.18 162.781 1107.94 163.07L1107.57 163.48L1106.5 162.402C1106.54 162.34 1106.61 162.262 1106.68 162.168C1106.77 162.066 1106.95 161.895 1107.22 161.652C1107.5 161.402 1107.8 161.18 1108.1 160.984C1108.41 160.789 1108.8 160.617 1109.3 160.469C1109.8 160.312 1110.3 160.234 1110.82 160.234C1112.13 160.234 1113.22 160.66 1114.08 161.512C1114.95 162.363 1115.38 163.418 1115.38 164.676V172H1113.7V170.441C1113.67 170.488 1113.62 170.555 1113.55 170.641C1113.49 170.719 1113.34 170.863 1113.11 171.074C1112.88 171.277 1112.63 171.461 1112.37 171.625C1112.1 171.781 1111.75 171.922 1111.31 172.047C1110.88 172.172 1110.44 172.234 1109.98 172.234C1108.83 172.234 1107.86 171.895 1107.07 171.215C1106.29 170.535 1105.9 169.758 1105.9 168.883C1105.9 167.922 1106.19 167.148 1106.77 166.562C1107.34 165.969 1108.18 165.582 1109.26 165.402ZM1109.98 170.676C1111.06 170.676 1111.95 170.32 1112.65 169.609C1113.35 168.898 1113.7 167.977 1113.7 166.844V166.117L1109.74 166.844C1108.3 167.117 1107.58 167.797 1107.57 168.883C1107.57 169.398 1107.79 169.828 1108.21 170.172C1108.64 170.508 1109.23 170.676 1109.98 170.676Z" fill="black"/>
<path d="M730.685 624.846C730.763 624.877 730.861 624.92 730.978 624.975C731.096 625.03 731.314 625.178 731.635 625.42C731.955 625.662 732.236 625.928 732.478 626.217C732.721 626.506 732.939 626.909 733.135 627.424C733.338 627.932 733.439 628.471 733.439 629.041C733.439 630.432 732.963 631.58 732.01 632.487C731.056 633.393 729.814 633.846 728.283 633.846H721.439V617.041H727.92C729.279 617.041 730.396 617.459 731.271 618.295C732.154 619.123 732.596 620.147 732.596 621.366C732.596 621.858 732.533 622.315 732.408 622.737C732.283 623.151 732.123 623.483 731.928 623.733C731.732 623.983 731.537 624.198 731.342 624.377C731.154 624.549 730.998 624.666 730.873 624.729L730.685 624.846ZM723.244 632.17H728.283C729.291 632.17 730.099 631.877 730.709 631.291C731.326 630.705 731.635 629.955 731.635 629.041C731.635 628.112 731.322 627.323 730.697 626.674C730.08 626.018 729.275 625.69 728.283 625.69H723.244V632.17ZM727.92 618.729H723.244V624.108H727.92C728.818 624.108 729.521 623.866 730.029 623.381C730.545 622.889 730.803 622.217 730.803 621.366C730.803 620.584 730.545 619.952 730.029 619.467C729.521 618.975 728.818 618.729 727.92 618.729ZM744.795 631.245C745.623 630.385 746.037 629.334 746.037 628.092C746.037 626.842 745.623 625.791 744.795 624.94C743.974 624.08 742.986 623.651 741.83 623.651C740.681 623.651 739.693 624.08 738.865 624.94C738.045 625.791 737.635 626.838 737.635 628.08C737.635 629.315 738.045 630.366 738.865 631.233C739.693 632.092 740.681 632.522 741.83 632.522C742.986 632.522 743.974 632.096 744.795 631.245ZM737.67 632.346C736.529 631.19 735.959 629.772 735.959 628.092C735.959 626.405 736.529 624.983 737.67 623.827C738.818 622.662 740.209 622.08 741.842 622.08C743.474 622.08 744.861 622.662 746.002 623.827C747.142 624.983 747.713 626.405 747.713 628.092C747.713 629.772 747.142 631.19 746.002 632.346C744.861 633.502 743.474 634.08 741.842 634.08C740.209 634.08 738.818 633.502 737.67 632.346ZM751.92 622.327H760.322V633.846H758.635V623.885H753.596V625.69C753.596 627.385 753.51 628.799 753.338 629.932C753.174 631.057 752.924 631.916 752.588 632.51C752.252 633.096 751.881 633.506 751.474 633.741C751.068 633.967 750.576 634.08 749.998 634.08C749.803 634.08 749.603 634.061 749.4 634.022C749.205 633.983 749.06 633.94 748.967 633.893L748.803 633.846V632.17C749.123 632.327 749.443 632.405 749.763 632.405C750.256 632.405 750.642 632.264 750.924 631.983C751.205 631.702 751.439 631.053 751.627 630.037C751.822 629.022 751.92 627.573 751.92 625.69V622.327ZM771.83 622.327V623.885H765.83V633.846H764.154V622.327H771.83ZM781.99 631.245C782.818 630.385 783.232 629.334 783.232 628.092C783.232 626.842 782.818 625.791 781.99 624.94C781.17 624.08 780.181 623.651 779.025 623.651C777.877 623.651 776.888 624.08 776.06 624.94C775.24 625.791 774.83 626.838 774.83 628.08C774.83 629.315 775.24 630.366 776.06 631.233C776.888 632.092 777.877 632.522 779.025 632.522C780.181 632.522 781.17 632.096 781.99 631.245ZM774.865 632.346C773.724 631.19 773.154 629.772 773.154 628.092C773.154 626.405 773.724 624.983 774.865 623.827C776.013 622.662 777.404 622.08 779.037 622.08C780.67 622.08 782.056 622.662 783.197 623.827C784.338 624.983 784.908 626.405 784.908 628.092C784.908 629.772 784.338 631.19 783.197 632.346C782.056 633.502 780.67 634.08 779.037 634.08C777.404 634.08 776.013 633.502 774.865 632.346ZM795.596 622.327V623.885H789.596V633.846H787.92V622.327H795.596ZM800.693 624.987C799.857 625.87 799.439 626.905 799.439 628.092C799.439 629.272 799.857 630.307 800.693 631.198C801.537 632.08 802.478 632.522 803.517 632.522C804.51 632.522 805.396 632.092 806.178 631.233C806.967 630.366 807.361 629.319 807.361 628.092C807.361 626.858 806.967 625.811 806.178 624.952C805.396 624.084 804.51 623.651 803.517 623.651C802.478 623.651 801.537 624.096 800.693 624.987ZM799.439 632.041V638.885H797.763V622.327H799.439V624.131C799.471 624.084 799.525 624.014 799.603 623.92C799.689 623.819 799.857 623.651 800.107 623.416C800.365 623.182 800.642 622.975 800.939 622.795C801.236 622.608 801.615 622.444 802.076 622.303C802.545 622.155 803.025 622.08 803.517 622.08C804.986 622.08 806.271 622.67 807.373 623.85C808.482 625.03 809.037 626.444 809.037 628.092C809.037 629.733 808.486 631.143 807.385 632.323C806.283 633.495 804.994 634.08 803.517 634.08C803.025 634.08 802.549 634.01 802.088 633.87C801.635 633.729 801.252 633.561 800.939 633.366C800.627 633.17 800.353 632.975 800.119 632.78C799.892 632.577 799.721 632.405 799.603 632.264L799.439 632.041ZM814.556 627.248L818.998 626.522C818.998 625.67 818.728 624.979 818.189 624.448C817.65 623.916 816.959 623.651 816.115 623.651C815.506 623.651 814.931 623.791 814.392 624.073C813.861 624.346 813.474 624.627 813.232 624.916L812.869 625.327L811.791 624.248C811.838 624.186 811.9 624.108 811.978 624.014C812.064 623.912 812.244 623.741 812.517 623.498C812.799 623.248 813.092 623.026 813.396 622.83C813.701 622.635 814.099 622.463 814.592 622.315C815.092 622.159 815.599 622.08 816.115 622.08C817.428 622.08 818.513 622.506 819.373 623.358C820.24 624.209 820.674 625.264 820.674 626.522V633.846H818.998V632.287C818.967 632.334 818.916 632.401 818.846 632.487C818.783 632.565 818.635 632.709 818.4 632.92C818.174 633.123 817.928 633.307 817.662 633.471C817.396 633.627 817.045 633.768 816.607 633.893C816.178 634.018 815.732 634.08 815.271 634.08C814.123 634.08 813.154 633.741 812.365 633.061C811.584 632.381 811.193 631.604 811.193 630.729C811.193 629.768 811.482 628.995 812.06 628.409C812.638 627.815 813.471 627.428 814.556 627.248ZM815.271 632.522C816.357 632.522 817.248 632.166 817.943 631.455C818.646 630.745 818.998 629.823 818.998 628.69V627.963L815.037 628.69C813.599 628.963 812.877 629.643 812.869 630.729C812.869 631.245 813.08 631.674 813.502 632.018C813.931 632.354 814.521 632.522 815.271 632.522ZM835.181 632.287V636.729H833.506V633.846H824.26V636.729H822.584V632.287H823.416C823.463 632.241 823.533 632.162 823.627 632.053C823.728 631.936 823.896 631.678 824.131 631.28C824.365 630.881 824.572 630.452 824.752 629.991C824.939 629.522 825.103 628.901 825.244 628.127C825.392 627.346 825.467 626.534 825.467 625.69V622.327H833.377V632.287H835.181ZM827.142 623.885V625.69C827.142 627.002 826.982 628.205 826.662 629.299C826.342 630.393 826.021 631.166 825.701 631.62L825.221 632.287H831.701V623.885H827.142Z" fill="black"/>
<path d="M1046.54 249.175C1049.63 249.175 1052.14 246.671 1052.14 243.582C1052.14 240.494 1049.63 237.99 1046.54 237.99C1043.46 237.99 1040.95 240.494 1040.95 243.582C1040.95 246.671 1043.46 249.175 1046.54 249.175Z" fill="#090706" stroke="#F0EED6" stroke-width="4.3017"/>
<path d="M761.076 498.572C764.165 498.572 766.669 496.068 766.669 492.98C766.669 489.891 764.165 487.387 761.076 487.387C757.988 487.387 755.484 489.891 755.484 492.98C755.484 496.068 757.988 498.572 761.076 498.572Z" fill="#090706" stroke="#F0EED6" stroke-width="4.3017"/>
<path d="M595.891 445.231C598.98 445.231 601.483 442.727 601.483 439.639C601.483 436.55 598.98 434.046 595.891 434.046C592.803 434.046 590.299 436.55 590.299 439.639C590.299 442.727 592.803 445.231 595.891 445.231Z" fill="#090706" stroke="#F0EED6" stroke-width="4.3017"/>
<path d="M564.919 612.997C568.007 612.997 570.511 610.493 570.511 607.405C570.511 604.316 568.007 601.813 564.919 601.813C561.83 601.813 559.327 604.316 559.327 607.405C559.327 610.493 561.83 612.997 564.919 612.997Z" fill="#090706" stroke="#F0EED6" stroke-width="4.3017"/>
<path d="M395.432 389.309C398.521 389.309 401.024 386.805 401.024 383.717C401.024 380.628 398.521 378.124 395.432 378.124C392.344 378.124 389.84 380.628 389.84 383.717C389.84 386.805 392.344 389.309 395.432 389.309Z" fill="#090706" stroke="#F0EED6" stroke-width="4.3017"/>
<path d="M350.694 273.163C353.783 273.163 356.287 270.659 356.287 267.571C356.287 264.482 353.783 261.978 350.694 261.978C347.606 261.978 345.102 264.482 345.102 267.571C345.102 270.659 347.606 273.163 350.694 273.163Z" fill="#090706" stroke="#F0EED6" stroke-width="4.3017"/>
<path d="M478.885 135.509C481.974 135.509 484.477 133.005 484.477 129.916C484.477 126.828 481.974 124.324 478.885 124.324C475.797 124.324 473.293 126.828 473.293 129.916C473.293 133.005 475.797 135.509 478.885 135.509Z" fill="#090706" stroke="#F0EED6" stroke-width="4.3017"/>
<path d="M295.633 33.1282C298.721 33.1282 301.225 30.6245 301.225 27.536C301.225 24.4475 298.721 21.9438 295.633 21.9438C292.544 21.9438 290.04 24.4475 290.04 27.536C290.04 30.6245 292.544 33.1282 295.633 33.1282Z" fill="#89898D" stroke="#BFC0C7" stroke-width="4.3017"/>
<path d="M354.996 99.3743C358.085 99.3743 360.588 96.8705 360.588 93.7821C360.588 90.6936 358.085 88.1898 354.996 88.1898C351.908 88.1898 349.404 90.6936 349.404 93.7821C349.404 96.8705 351.908 99.3743 354.996 99.3743Z" fill="#89898D" stroke="#BFC0C7" stroke-width="4.3017"/>
<path d="M505.556 245.632C508.644 245.632 511.148 243.128 511.148 240.04C511.148 236.951 508.644 234.448 505.556 234.448C502.467 234.448 499.963 236.951 499.963 240.04C499.963 243.128 502.467 245.632 505.556 245.632Z" fill="#090706" stroke="#F0EED6" stroke-width="4.3017"/>
<path d="M510.718 307.576C513.806 307.576 516.31 305.073 516.31 301.984C516.31 298.896 513.806 296.392 510.718 296.392C507.629 296.392 505.125 298.896 505.125 301.984C505.125 305.073 507.629 307.576 510.718 307.576Z" fill="#090706" stroke="#F0EED6" stroke-width="4.3017"/>
<path d="M179.487 298.973C182.575 298.973 185.079 296.469 185.079 293.381C185.079 290.292 182.575 287.789 179.487 287.789C176.398 287.789 173.895 290.292 173.895 293.381C173.895 296.469 176.398 298.973 179.487 298.973Z" fill="#090706" stroke="#F0EED6" stroke-width="4.3017"/>
<path d="M87.4306 265.42C90.519 265.42 93.0228 262.916 93.0228 259.828C93.0228 256.739 90.519 254.235 87.4306 254.235C84.3421 254.235 81.8383 256.739 81.8383 259.828C81.8383 262.916 84.3421 265.42 87.4306 265.42Z" fill="#090706" stroke="#F0EED6" stroke-width="4.3017"/>
</svg>
