<svg width="23" height="47" viewBox="0 0 23 47" fill="none" xmlns="http://www.w3.org/2000/svg">
<path d="M10.7283 8.98078C11.0767 9.54739 11.4252 10.0312 11.6849 10.5597C11.9954 11.1963 12.2298 11.8711 12.4959 12.5269C12.5339 12.6224 12.5592 12.737 12.5466 12.8325C12.4705 13.2335 12.3818 13.6346 12.2805 14.0994C11.4569 13.1699 10.6396 12.3104 9.69556 11.6037C9.51816 11.8075 9.57518 11.9348 9.7209 12.0876C10.4812 12.8961 11.2351 13.7174 11.97 14.545C12.0651 14.6532 12.1221 14.857 12.0967 14.997C11.5012 18.1993 11.1084 21.4335 10.8993 24.6867C10.893 24.7886 10.874 24.8841 10.8613 25.005C10.0377 24.1647 9.24574 23.3498 8.44745 22.5349C8.42211 22.554 8.39043 22.5794 8.36509 22.5985C8.39043 22.8086 8.13701 22.9869 8.36509 23.2352C9.13169 24.0692 9.87929 24.9159 10.6206 25.769C10.7283 25.8963 10.798 26.1064 10.798 26.2783C10.7789 27.3797 10.7346 28.4811 10.6966 29.5888C10.6902 29.6843 10.6839 29.7862 10.6776 29.8371C9.69556 29.2259 8.72622 28.6211 7.75054 28.0163C8.17502 27.1187 7.80756 26.4438 6.81287 26.342C6.49609 26.3101 6.16664 26.3674 5.88788 26.3802C5.76116 25.9663 5.69781 25.5271 5.50141 25.1578C5.07059 24.3365 4.12025 24.3493 3.67042 25.1642C3.54371 25.3934 3.46768 25.648 3.36631 25.8963C3.13823 25.8645 2.89748 25.8008 2.66306 25.7945C2.23225 25.7881 1.8331 25.89 1.59869 26.2974C1.36427 26.7049 1.47831 27.0996 1.68739 27.4752C1.75708 27.5961 1.83944 27.7044 1.94081 27.7999C2.13721 27.9845 2.35262 28.1564 2.56803 28.341C2.19423 28.7548 1.89012 29.1877 1.87745 29.7735C2.33995 29.7989 2.78344 29.8244 3.14457 29.8435C3.48669 29.3342 3.74011 28.8121 4.12025 28.4047C4.86785 27.6089 6.0526 27.5834 6.82554 28.3156C7.07897 28.5575 7.25003 28.5575 7.47177 28.3283C7.49711 28.3028 7.54146 28.2901 7.62383 28.2455C8.55516 28.9777 9.49916 29.7162 10.4432 30.4419C10.6269 30.582 10.7156 30.7475 10.6902 30.9831C10.6776 31.104 10.6126 31.743 10.6696 31.8449C10.7773 32.0359 11.026 31.7025 11.1274 31.8935C11.2351 32.0845 11.2985 32.2946 11.3808 32.511C11.2921 29.939 11.3301 27.3861 11.5139 24.8331C11.5202 24.744 11.5456 24.6294 11.6026 24.5785C12.1348 24.1137 12.6733 23.6681 13.2372 23.197C13.4652 23.5853 13.7567 23.7572 14.1368 23.6299C14.3712 23.5535 14.5866 23.4071 14.8147 23.3052C14.9097 23.2606 15.0175 23.2415 15.1188 23.2097C15.4673 22.8659 15.8537 22.5731 16.3796 22.5094C16.4303 22.503 16.519 22.433 16.5126 22.4266C16.4303 22.2165 16.614 22.242 16.7091 22.1911C16.8738 22.0956 17.0512 22.0128 17.1906 21.8982C17.4503 21.6818 17.6087 21.408 17.5073 21.0579C17.3996 20.695 17.0955 20.5549 16.7534 20.5167C16.5253 20.4912 16.2972 20.5103 16.0375 20.5103C15.9741 19.9883 15.9044 19.3708 15.2329 19.2625C14.5993 19.1607 14.4536 19.7336 14.2762 20.1793C14.0544 20.1602 13.8517 20.1156 13.6553 20.1284C13.0661 20.1666 12.7747 20.6695 13.0471 21.1915C13.1548 21.4016 13.3449 21.5672 13.5032 21.7518C13.5603 21.8155 13.6426 21.8664 13.6806 21.8982C13.5032 22.2038 13.4082 22.554 13.1801 22.7386C12.6923 23.1333 12.1411 23.4453 11.6026 23.8018C11.5962 23.7381 11.5899 23.6872 11.5899 23.6362C11.7103 22.4776 11.8307 21.3189 11.9637 20.1538C11.9764 20.0392 12.0524 19.9183 12.1348 19.8291C12.8697 18.9951 13.5919 18.1484 14.3585 17.3462C14.6437 17.047 14.6373 16.7351 14.65 16.3976C14.6056 16.3594 14.5613 16.3276 14.5233 16.2894C13.7503 17.1043 12.9711 17.9192 12.1474 18.7914C12.1728 18.5877 12.1854 18.4604 12.2045 18.3267C12.4009 17.1552 12.6036 15.9838 12.8063 14.8124C13.0851 13.2272 13.0788 13.2144 14.3649 12.2531C15.2012 11.6292 16.0692 11.0562 16.9942 10.4069C16.9308 10.6615 16.8928 10.827 16.8548 10.9926C16.8864 11.0117 16.9181 11.0371 16.9498 11.0562C17.0258 10.9544 17.0828 10.8398 17.1779 10.757C17.7418 10.2477 18.521 10.1777 19.0912 10.636C19.3763 10.8652 19.5854 11.2027 19.7881 11.521C19.9149 11.7183 19.9655 11.9666 20.0669 12.234C20.9349 11.7311 20.6434 11.0435 20.409 10.3878C21.239 10.044 21.6698 9.59196 21.5178 9.12721C21.2517 8.29958 20.5547 8.43327 19.9022 8.5033C19.8198 7.89213 19.7565 7.22366 19.0279 7.10269C18.3373 6.99447 18.1789 7.61837 18.0015 8.11495C17.1589 7.98762 16.7851 8.05766 16.6267 8.43964C16.3353 9.13994 16.8294 9.53466 17.2476 9.91028C15.9298 10.7124 14.6183 11.5082 13.2878 12.3231C13.7567 10.4896 14.2382 8.63063 14.7133 6.77801C14.2889 6.75254 14.1305 6.969 14.0291 7.33189C13.6363 8.77706 13.2245 10.2095 12.819 11.6483C12.7937 11.7311 12.7683 11.8075 12.7303 11.9093C12.3755 11.1836 12.0334 10.4896 11.6913 9.79568C11.9954 9.70019 12.1854 9.50919 12.1728 9.19724C12.1601 8.92985 12.0904 8.66246 12.0461 8.38871C12.4579 8.22318 12.9267 8.01309 12.8317 7.47195C12.7113 6.79711 12.1031 6.95627 11.6216 6.94353C11.5519 6.47879 11.4885 5.98221 10.9437 5.90581C10.4368 5.83578 10.3164 6.30053 10.1707 6.66341C9.51816 6.57428 9.39779 6.59975 9.23306 6.86077C10.6459 7.17273 11.1274 7.91759 10.7283 8.98078Z" fill="#6EAF41" stroke="#6EAF41" stroke-width="0.5"/>
<path fill-rule="evenodd" clip-rule="evenodd" d="M19.8395 28.7007C20.3518 28.4785 20.7845 28.1541 21.0797 27.6597C21.4978 26.9276 21.3141 26.1381 20.5728 25.7498C20.256 25.5843 19.8759 25.4888 19.5211 25.4569C19.3327 25.4414 19.1414 25.4516 18.9455 25.4698C18.8629 25.4775 18.7795 25.4866 18.6952 25.4958C18.5693 25.5096 18.4413 25.5236 18.311 25.5333C18.311 25.5003 18.3117 25.4659 18.3124 25.4306C18.3138 25.3571 18.3153 25.2797 18.311 25.2023C18.3047 25.0992 18.2943 24.9974 18.2795 24.8973C18.206 24.3976 18.0247 23.9363 17.7028 23.5279C17.1579 22.8467 16.2013 22.7703 15.6627 23.4324C15.4617 23.6757 15.3266 23.9753 15.1909 24.2762C15.1384 24.3926 15.0857 24.5093 15.0292 24.6229C15.002 24.6821 14.9878 24.7445 14.9749 24.8009C14.9698 24.8234 14.9649 24.8449 14.9595 24.8649C14.8445 24.8475 14.7318 24.8279 14.621 24.8085C14.3653 24.7639 14.1192 24.721 13.8761 24.7121C12.6533 24.6611 11.9564 25.6798 12.5013 26.7812C12.6561 27.0922 12.9046 27.3579 13.1517 27.6222C13.2167 27.6916 13.2816 27.761 13.3447 27.8311C13.3658 27.8545 13.3867 27.878 13.4073 27.9016C13.4816 27.9847 13.5803 28.0461 13.6838 28.1105C13.7391 28.1449 13.7957 28.1801 13.8508 28.22C13.8217 28.2511 13.7938 28.2805 13.7669 28.3089C13.7059 28.3731 13.6501 28.4319 13.5973 28.4937C13.5398 28.5626 13.4846 28.6325 13.4321 28.7033C13.0631 29.2018 12.8299 29.7515 12.8687 30.4036C12.9131 31.1167 13.3946 31.6133 14.1042 31.6515C14.753 31.6908 15.2932 31.4473 15.777 31.07C15.8412 31.0199 15.9045 30.9674 15.9668 30.913C16.0161 30.8701 16.0636 30.8255 16.1129 30.7793C16.1588 30.7362 16.2064 30.6916 16.2583 30.6456C16.3264 30.7525 16.3888 30.845 16.4493 30.9348C16.4788 30.9787 16.5079 31.0219 16.537 31.0657C16.5629 31.104 16.5894 31.1415 16.6164 31.1782C16.9139 31.5826 17.2836 31.8982 17.7598 32.0907C18.6721 32.46 19.5084 32.0207 19.6542 31.0466C19.7112 30.6583 19.6668 30.2445 19.5908 29.8561C19.5696 29.7356 19.5327 29.6186 19.4886 29.5027C19.4519 29.4066 19.4102 29.3113 19.3683 29.2155C19.3247 29.116 19.2809 29.0159 19.2423 28.9139C19.2881 28.8986 19.3339 28.8838 19.3795 28.8691C19.4854 28.835 19.5903 28.8011 19.6922 28.7611C19.742 28.7419 19.7911 28.7218 19.8395 28.7007ZM17.0624 30.7099C17.3159 31.0835 17.6154 31.3461 17.9964 31.5001L17.9965 31.5002C18.3092 31.6268 18.5454 31.5927 18.6932 31.5124C18.8357 31.435 18.9799 31.2696 19.0275 30.9529C19.0691 30.6688 19.0393 30.3373 18.9692 29.979L18.968 29.9729L18.9669 29.9668C18.9508 29.8751 18.9156 29.7711 18.8563 29.6294C18.841 29.5929 18.8212 29.5476 18.7993 29.4973C18.7516 29.3881 18.6938 29.2556 18.6501 29.14L18.6064 29.0246C18.2097 29.6789 17.5287 30.1365 16.7358 30.2142L16.7919 30.3024C16.8558 30.4027 16.9103 30.4835 16.968 30.569C16.998 30.6136 17.0289 30.6594 17.0624 30.7099ZM15.868 30.1426C15.1421 29.9455 14.5439 29.4158 14.2394 28.7336C14.2298 28.7437 14.2206 28.7533 14.2119 28.7625C14.1596 28.8176 14.1214 28.8578 14.0805 28.9056C13.6769 29.3896 13.4704 29.8444 13.5011 30.3647C13.515 30.5845 13.5922 30.7361 13.6875 30.8329C13.7818 30.9288 13.9265 31.0043 14.1381 31.0157L14.1402 31.0158L14.1423 31.016C14.6484 31.0467 15.0866 30.8382 15.5513 30.4324L15.5519 30.4318C15.5893 30.3993 15.6271 30.364 15.6755 30.3186L15.6821 30.3124C15.7271 30.2703 15.7804 30.2203 15.8391 30.1682L15.868 30.1426ZM14.0255 27.5743C14.0719 26.7147 14.5394 25.9679 15.2244 25.5486L14.8655 25.4945C14.7127 25.4714 14.5817 25.4484 14.4635 25.4277C14.2339 25.3874 14.0525 25.3556 13.8531 25.3483L13.8515 25.3482L13.8499 25.3482C13.4206 25.3303 13.1675 25.4971 13.0511 25.6704C12.938 25.839 12.8823 26.1207 13.0683 26.4971C13.1363 26.6335 13.2411 26.7741 13.388 26.9406C13.459 27.0211 13.5337 27.1009 13.6159 27.1888L13.6231 27.1966C13.7041 27.2832 13.7925 27.3777 13.8782 27.4757C13.8806 27.4779 13.8974 27.4931 13.9536 27.5292C13.9748 27.5428 13.9914 27.5531 14.0113 27.5654C14.0158 27.5683 14.0205 27.5712 14.0255 27.5743ZM15.4659 25.4186C15.7939 25.2652 16.161 25.1824 16.5488 25.1897L16.5489 25.1897C16.9591 25.1974 17.3423 25.3056 17.6776 25.4901C17.678 25.4492 17.6787 25.4167 17.6793 25.3882C17.6806 25.3339 17.6815 25.2943 17.6785 25.2395C17.6469 24.7308 17.4994 24.2959 17.2076 23.9251C16.8697 23.5043 16.3927 23.5409 16.1533 23.8353L16.1518 23.8372L16.1502 23.8391C16.0597 23.9486 15.9784 24.09 15.8881 24.2781C15.8482 24.3611 15.8099 24.4459 15.7679 24.539C15.7625 24.5511 15.757 24.5632 15.7514 24.5755C15.7072 24.6736 15.6588 24.7801 15.6062 24.8868C15.6052 24.89 15.6038 24.8953 15.6018 24.9031C15.5991 24.9143 15.5966 24.9251 15.5927 24.9423C15.592 24.9452 15.5913 24.9483 15.5905 24.9516C15.5861 24.9709 15.5792 25.001 15.5707 25.0324L15.4659 25.4186ZM18.4546 26.1602C18.7886 26.597 18.9835 27.147 18.9762 27.7376L18.9762 27.7395L18.9761 27.7413C18.9723 27.9553 18.9423 28.1629 18.8894 28.3611L19.042 28.3099C19.1045 28.289 19.1585 28.2716 19.2075 28.2559C19.3021 28.2254 19.3782 28.2009 19.4613 28.1682L19.463 28.1676L19.4647 28.1669C19.9486 27.9799 20.3027 27.7205 20.5331 27.3376C20.6706 27.0943 20.6861 26.8855 20.6474 26.7343C20.6101 26.5883 20.5069 26.4333 20.2802 26.3145C20.0525 26.1955 19.7573 26.1176 19.4671 26.0913C19.3303 26.0802 19.1782 26.0872 18.9899 26.1051C18.9312 26.1107 18.8609 26.1183 18.7852 26.1265C18.6803 26.1379 18.5648 26.1504 18.4546 26.1602ZM14.6837 28.0381C14.6943 28.0979 14.7078 28.1569 14.7241 28.2147C14.9397 28.9839 15.6363 29.5678 16.4484 29.5887C17.4747 29.6142 18.3237 28.7802 18.3427 27.7297C18.3554 26.6984 17.5507 25.8453 16.537 25.8262C15.5107 25.8071 14.6681 26.6411 14.6554 27.6916C14.6539 27.8095 14.6637 27.9254 14.6837 28.0381Z" fill="#6EAF41" stroke="#6EAF41" stroke-width="0.5"/>
<path fill-rule="evenodd" clip-rule="evenodd" d="M9.36136 34.8031C9.96087 34.5414 10.4673 34.1595 10.8128 33.5774C11.3022 32.7154 11.0872 31.7859 10.2196 31.3287C9.84884 31.1338 9.40393 31.0214 8.98868 30.9839C8.76822 30.9656 8.54425 30.9776 8.31503 30.9991C8.21832 31.0081 8.12069 31.0189 8.02199 31.0297C7.87463 31.0459 7.7249 31.0623 7.57238 31.0738C7.57238 31.0349 7.57316 30.9944 7.57396 30.9528C7.57563 30.8663 7.57739 30.7752 7.57238 30.6841C7.56495 30.5626 7.55276 30.4429 7.53551 30.3249C7.44944 29.7367 7.23731 29.1935 6.86052 28.7127C6.22281 27.9106 5.10312 27.8207 4.47283 28.6002C4.23758 28.8867 4.07943 29.2394 3.92056 29.5937C3.85909 29.7308 3.79751 29.8681 3.73131 30.002C3.6995 30.0716 3.68286 30.1451 3.66782 30.2115C3.66183 30.2379 3.65609 30.2633 3.64974 30.2868C3.51517 30.2664 3.38331 30.2432 3.25355 30.2205C2.95431 30.1679 2.66622 30.1174 2.38174 30.1069C0.950613 30.0469 0.134942 31.2463 0.772648 32.543C0.953796 32.9093 1.24466 33.2221 1.53394 33.5332C1.61001 33.615 1.68596 33.6967 1.75979 33.7792C1.78446 33.8068 1.8089 33.8345 1.83302 33.8623C1.92007 33.96 2.03551 34.0323 2.1567 34.1082C2.22134 34.1486 2.28761 34.1901 2.35208 34.2371C2.31803 34.2738 2.28538 34.3084 2.25389 34.3417C2.18253 34.4174 2.11722 34.4866 2.05548 34.5594C1.98811 34.6405 1.9235 34.7227 1.86211 34.8062C1.43016 35.3931 1.15728 36.0402 1.20273 36.8081C1.25463 37.6476 1.81819 38.2323 2.64869 38.2773C3.40805 38.3236 4.04027 38.0369 4.60657 37.5926C4.68175 37.5337 4.75576 37.4719 4.82876 37.4078C4.88636 37.3573 4.94196 37.3048 4.9997 37.2504C5.05347 37.1996 5.10908 37.1472 5.16986 37.093C5.24956 37.2188 5.32257 37.3278 5.39339 37.4335C5.42798 37.4852 5.46205 37.536 5.49613 37.5877C5.52641 37.6327 5.55737 37.6768 5.58903 37.7201C5.93715 38.1962 6.3699 38.5678 6.92726 38.7945C7.99505 39.2292 8.97385 38.712 9.1444 37.5652C9.21114 37.1079 9.15923 36.6207 9.07025 36.1635C9.04547 36.0215 9.0023 35.8838 8.95059 35.7474C8.90766 35.6342 8.85885 35.522 8.8098 35.4092C8.75881 35.292 8.70757 35.1742 8.66241 35.0541C8.71601 35.036 8.7696 35.0187 8.82299 35.0014C8.94689 34.9612 9.0697 34.9214 9.18889 34.8742C9.24717 34.8515 9.30468 34.8279 9.36136 34.8031ZM6.11103 37.1687C6.40771 37.6085 6.75827 37.9177 7.2041 38.0991L7.2043 38.0992C7.57029 38.2482 7.84672 38.2081 8.01966 38.1136C8.18647 38.0224 8.35523 37.8277 8.41095 37.4549C8.45961 37.1203 8.42477 36.73 8.34267 36.3082L8.34127 36.301L8.34001 36.2937C8.32117 36.1858 8.28001 36.0634 8.21059 35.8965C8.19272 35.8536 8.16955 35.8002 8.14387 35.741C8.08807 35.6124 8.02039 35.4564 7.96925 35.3204L7.91815 35.1844C7.45376 35.9548 6.65674 36.4935 5.72869 36.5851L5.79442 36.6889C5.86923 36.8071 5.93298 36.9022 6.00045 37.0028C6.0356 37.0553 6.07176 37.1092 6.11103 37.1687ZM4.71305 36.5007C3.86343 36.2687 3.16337 35.6451 2.80695 34.8418C2.79569 34.8537 2.78499 34.865 2.77475 34.8759C2.71352 34.9407 2.66878 34.9881 2.62093 35.0443C2.14863 35.6142 1.90691 36.1497 1.94286 36.7623C1.95906 37.021 2.04945 37.1996 2.16095 37.3135C2.27134 37.4264 2.44072 37.5154 2.68836 37.5288L2.69086 37.5289L2.69336 37.5291C3.28569 37.5652 3.79849 37.3198 4.34235 36.842L4.34311 36.8413C4.38689 36.803 4.4311 36.7615 4.48779 36.708L4.49551 36.7007C4.54811 36.6511 4.61049 36.5922 4.67925 36.5309L4.71305 36.5007ZM2.55658 33.4768C2.61093 32.4647 3.15808 31.5856 3.95978 31.0918L3.53974 31.0281C3.36091 31.001 3.2076 30.9739 3.06924 30.9495C2.80053 30.902 2.58821 30.8646 2.3548 30.856L2.35292 30.8559L2.35103 30.8558C1.84866 30.8348 1.55233 31.0311 1.41621 31.2352C1.28377 31.4338 1.2186 31.7654 1.43624 32.2085C1.51583 32.3692 1.63856 32.5347 1.81045 32.7307C1.89355 32.8255 1.98099 32.9195 2.07721 33.023L2.08568 33.0321C2.18046 33.1341 2.28386 33.2454 2.3842 33.3608C2.38698 33.3633 2.40666 33.3812 2.47244 33.4237C2.49723 33.4397 2.51667 33.4519 2.53997 33.4664C2.54527 33.4697 2.55077 33.4732 2.55658 33.4768ZM4.24243 30.9388C4.62635 30.7582 5.05598 30.6607 5.50985 30.6692L5.51003 30.6692C5.99007 30.6783 6.43859 30.8057 6.83106 31.023C6.83144 30.9748 6.83231 30.9365 6.83307 30.9029C6.83453 30.839 6.83558 30.7924 6.83212 30.7279C6.79509 30.1289 6.62242 29.6169 6.281 29.1803C5.88549 28.6848 5.3272 28.728 5.04698 29.0746L5.04518 29.0768L5.04336 29.079C4.93746 29.208 4.84225 29.3745 4.73655 29.5959C4.68987 29.6937 4.6451 29.7935 4.59594 29.9031C4.58959 29.9173 4.58316 29.9316 4.57665 29.9462C4.52482 30.0616 4.46816 30.1869 4.40665 30.3126C4.40554 30.3164 4.40382 30.3227 4.40156 30.3318C4.39829 30.345 4.39542 30.3577 4.39083 30.3779C4.39005 30.3814 4.38922 30.385 4.38833 30.3889C4.38316 30.4117 4.37509 30.4471 4.36513 30.484L4.24243 30.9388ZM7.74039 31.812C8.13134 32.3262 8.35941 32.9738 8.35092 33.6691L8.35089 33.6713L8.35085 33.6735C8.34632 33.9254 8.31127 34.1699 8.24929 34.4032L8.42792 34.343C8.50112 34.3183 8.56429 34.2979 8.62162 34.2793C8.7324 34.2435 8.82137 34.2147 8.91868 34.1762L8.92069 34.1754L8.9227 34.1746C9.48904 33.9544 9.90343 33.649 10.1732 33.1981C10.3341 32.9117 10.3522 32.6658 10.3069 32.4879C10.2632 32.316 10.1424 32.1335 9.87717 31.9936C9.61059 31.8535 9.26511 31.7617 8.92551 31.7308C8.76531 31.7177 8.58731 31.726 8.36697 31.747C8.29823 31.7536 8.21602 31.7626 8.12734 31.7722C8.00458 31.7856 7.86941 31.8004 7.74039 31.812ZM3.32698 34.023C3.33941 34.0934 3.35522 34.1628 3.37421 34.2309C3.62657 35.1365 4.44186 35.824 5.39231 35.8487C6.59357 35.8786 7.58721 34.8967 7.60945 33.6599C7.62428 32.4456 6.68256 31.4411 5.49613 31.4187C4.29486 31.3962 3.30864 32.3781 3.29381 33.6149C3.29209 33.7538 3.30355 33.8902 3.32698 34.023Z" fill="#6EAF41" stroke="#6EAF41" stroke-width="0.5"/>
<path fill-rule="evenodd" clip-rule="evenodd" d="M2.47541 19.1443L2.47674 19.1453C2.50187 19.1626 2.5266 19.1796 2.55146 19.1965C2.61794 18.4349 3.03985 17.7694 3.6522 17.3814L3.40242 17.3555C3.22679 17.3374 3.07876 17.3176 2.94697 17.2999C2.68959 17.2655 2.49415 17.2394 2.2761 17.2499C1.96403 17.2666 1.79183 17.3939 1.70733 17.5226C1.62094 17.6541 1.56979 17.8735 1.67239 18.1793C1.80423 18.5672 2.07083 18.8679 2.47407 19.1434L2.47541 19.1443ZM1.07244 18.3839C0.762001 17.4607 1.27518 16.6649 2.24453 16.614C2.52122 16.6006 2.80105 16.6376 3.09288 16.6763C3.21535 16.6925 3.33994 16.7091 3.46729 16.7222C3.46936 16.7129 3.4716 16.702 3.47408 16.6899C3.48684 16.6279 3.5062 16.5337 3.54332 16.4485C3.58737 16.3564 3.62849 16.2619 3.66966 16.1672C3.77651 15.9215 3.88376 15.6749 4.04383 15.4681C4.55701 14.8187 5.38064 14.8123 5.94451 15.4171C6.34049 15.8443 6.51167 16.3629 6.57121 16.9235C6.57644 16.9728 6.58081 17.0225 6.5844 17.0724C6.58742 17.1209 6.589 17.1695 6.59051 17.216C6.59148 17.2456 6.59242 17.2744 6.59368 17.3018C6.59459 17.3216 6.59568 17.3407 6.59707 17.3589C6.72627 17.3511 6.85371 17.3404 6.97993 17.3298C7.00921 17.3274 7.03843 17.3249 7.06759 17.3225C7.1215 17.318 7.1752 17.3137 7.22875 17.3098C7.43153 17.295 7.63202 17.2858 7.83251 17.2952C8.58644 17.327 9.16932 17.7409 9.34038 18.3075C9.5051 18.8613 9.23901 19.5362 8.61179 19.9691C8.37151 20.1359 8.10412 20.2664 7.84702 20.3919C7.73126 20.4484 7.61758 20.5039 7.5094 20.5612C7.54844 20.6995 7.59215 20.8399 7.63642 20.982C7.72863 21.2782 7.82327 21.5821 7.88319 21.8918C7.96556 22.3438 7.88953 22.7894 7.59176 23.1587C7.14827 23.7062 6.38166 23.7953 5.74177 23.3178C5.45531 23.1008 5.20257 22.8345 4.95796 22.5768C4.85092 22.4641 4.74544 22.3529 4.63938 22.2483C4.53431 22.312 4.42613 22.3839 4.31428 22.4582C4.06866 22.6213 3.80528 22.7963 3.51798 22.9231C3.23288 23.0504 2.88442 23.0886 2.56764 23.0695C1.88973 23.0377 1.43991 22.4202 1.49693 21.6753C1.53398 21.1807 1.72137 20.7482 2.00739 20.3632C2.06374 20.2873 2.12391 20.2133 2.18751 20.141L2.18758 20.1409C2.25725 20.0645 2.32692 19.9882 2.42826 19.88L2.4282 19.8799C2.31419 19.8036 2.21917 19.7399 2.11782 19.6699C2.04376 19.6193 1.97202 19.5668 1.90294 19.5122C1.52878 19.2163 1.23289 18.8568 1.07244 18.3839ZM2.65857 20.5668C2.69527 20.5265 2.73158 20.4867 2.77241 20.4424C3.06623 21.064 3.61816 21.5344 4.29205 21.7154C4.18269 21.7825 4.05988 21.864 3.9461 21.9395C3.88226 21.9818 3.82126 22.0223 3.76708 22.0573C3.5907 22.1711 3.42692 22.2679 3.26312 22.3403L3.26189 22.3408L3.26067 22.3413C3.09653 22.4146 2.85725 22.4492 2.60559 22.434L2.6014 22.4338L2.59722 22.4336C2.36278 22.4226 2.09187 22.2042 2.12862 21.7241L2.12866 21.7236L2.1287 21.7231C2.16011 21.3038 2.34166 20.9282 2.65857 20.5668ZM5.07938 21.7902L5.08324 21.794C5.22308 21.932 5.34493 22.0606 5.45925 22.1814C5.68261 22.4173 5.87725 22.6229 6.12123 22.808C6.51697 23.1022 6.89269 23.0127 7.1 22.7573C7.2593 22.5594 7.31515 22.3131 7.26059 22.0097C7.20713 21.7347 7.13043 21.4894 7.04516 21.2166C6.99849 21.0674 6.94927 20.9099 6.89987 20.7349L6.89131 20.7045C6.49612 21.3141 5.83299 21.7347 5.07938 21.7902ZM7.19938 20.0057L7.2139 19.998C7.36411 19.9184 7.49852 19.8531 7.6231 19.7926C7.8537 19.6806 8.05061 19.5849 8.25165 19.4453L8.25237 19.4448L8.25308 19.4443C8.71116 19.1282 8.80042 18.7178 8.7337 18.491C8.65817 18.2433 8.35763 17.9546 7.80591 17.9313L7.80438 17.9312L7.80284 17.9312C7.56256 17.9198 7.3442 17.9383 7.0801 17.9607C6.99257 17.9682 6.9 17.976 6.79995 17.9833C7.10397 18.3904 7.28207 18.8968 7.27492 19.4427L7.27492 19.4428C7.27235 19.6366 7.24624 19.8252 7.19938 20.0057ZM5.95857 17.2753C5.95821 17.2648 5.95788 17.2546 5.95756 17.2451L5.95742 17.2407C5.95584 17.1924 5.95456 17.153 5.95226 17.1151C5.91362 16.5828 5.77786 16.1718 5.48157 15.8518C5.30725 15.6651 5.12755 15.6058 4.98842 15.6088C4.85377 15.6116 4.69153 15.6735 4.54198 15.8614C4.47528 15.9482 4.41392 16.0594 4.34442 16.2097C4.31323 16.2772 4.28338 16.3459 4.25015 16.4222C4.24603 16.4317 4.24185 16.4413 4.23762 16.4511C4.20266 16.5314 4.16395 16.6197 4.12186 16.7085C4.11912 16.716 4.11443 16.7305 4.10866 16.7541C4.1052 16.7682 4.10194 16.7831 4.09835 16.8003C4.09776 16.8031 4.09693 16.8071 4.09596 16.8118C4.09308 16.8259 4.08889 16.8462 4.08577 16.8603L4.01173 17.1951C4.28815 17.0813 4.59119 17.0193 4.90964 17.0215M5.95857 17.2753C5.64218 17.1153 5.28588 17.024 4.90964 17.0215L5.95857 17.2753ZM4.88646 21.1596C5.83047 21.1724 6.62875 20.3893 6.64142 19.4343C6.65409 18.4666 5.86848 17.6645 4.90547 17.6581C3.95513 17.6517 3.18219 18.4348 3.17586 19.3961C3.17535 19.4735 3.17969 19.5496 3.18857 19.6242C3.20106 19.7291 3.22256 19.831 3.25227 19.9291C3.46735 20.6392 4.11266 21.1493 4.88646 21.1596Z" fill="#6EAF41"/>
<path d="M5.95857 17.2753C5.95821 17.2648 5.95788 17.2546 5.95756 17.2451L5.95742 17.2407C5.95584 17.1924 5.95456 17.153 5.95226 17.1151C5.91362 16.5828 5.77786 16.1718 5.48157 15.8518C5.30725 15.6651 5.12755 15.6058 4.98842 15.6088C4.85377 15.6116 4.69153 15.6735 4.54198 15.8614C4.47528 15.9482 4.41392 16.0594 4.34442 16.2097C4.31323 16.2772 4.28338 16.3459 4.25015 16.4222C4.24603 16.4317 4.24185 16.4413 4.23762 16.4511C4.20266 16.5314 4.16395 16.6197 4.12186 16.7085C4.11912 16.716 4.11443 16.7305 4.10866 16.7541C4.1052 16.7682 4.10194 16.7831 4.09835 16.8003C4.09776 16.8031 4.09693 16.8071 4.09596 16.8118C4.09308 16.8259 4.08889 16.8462 4.08577 16.8603L4.01173 17.1951C4.28815 17.0813 4.59119 17.0193 4.90964 17.0215M5.95857 17.2753L4.90964 17.0215M5.95857 17.2753C5.64218 17.1153 5.28588 17.024 4.90964 17.0215M2.47674 19.1453L2.47541 19.1443L2.47407 19.1434C2.07083 18.8679 1.80423 18.5672 1.67239 18.1793C1.56979 17.8735 1.62094 17.6541 1.70733 17.5226C1.79183 17.3939 1.96403 17.2666 2.2761 17.2499C2.49415 17.2394 2.68959 17.2655 2.94697 17.2999C3.07876 17.3176 3.22679 17.3374 3.40242 17.3555L3.6522 17.3814C3.03985 17.7694 2.61794 18.4349 2.55146 19.1965C2.5266 19.1796 2.50187 19.1626 2.47674 19.1453ZM2.24453 16.614C1.27518 16.6649 0.762001 17.4607 1.07244 18.3839C1.23289 18.8568 1.52878 19.2163 1.90294 19.5122C1.97202 19.5668 2.04376 19.6193 2.11782 19.6699C2.21917 19.7399 2.31419 19.8036 2.4282 19.8799L2.42826 19.88C2.32692 19.9882 2.25725 20.0645 2.18758 20.1409L2.18751 20.141C2.12391 20.2133 2.06374 20.2873 2.00739 20.3632C1.72137 20.7482 1.53398 21.1807 1.49693 21.6753C1.43991 22.4202 1.88973 23.0377 2.56764 23.0695C2.88442 23.0886 3.23288 23.0504 3.51798 22.9231C3.80528 22.7963 4.06866 22.6213 4.31428 22.4582C4.42613 22.3839 4.53431 22.312 4.63938 22.2483C4.74544 22.3529 4.85092 22.4641 4.95796 22.5768C5.20257 22.8345 5.45531 23.1008 5.74177 23.3178C6.38166 23.7953 7.14827 23.7062 7.59176 23.1587C7.88953 22.7894 7.96556 22.3438 7.88319 21.8918C7.82327 21.5821 7.72863 21.2782 7.63642 20.982C7.59215 20.8399 7.54844 20.6995 7.5094 20.5612C7.61758 20.5039 7.73125 20.4484 7.84702 20.3919C8.10412 20.2664 8.37151 20.1359 8.61179 19.9691C9.23901 19.5362 9.5051 18.8613 9.34038 18.3075C9.16932 17.7409 8.58644 17.327 7.83251 17.2952C7.63202 17.2858 7.43153 17.295 7.22875 17.3098C7.1752 17.3137 7.1215 17.318 7.06759 17.3225C7.03843 17.3249 7.00921 17.3274 6.97993 17.3298C6.85371 17.3404 6.72627 17.3511 6.59707 17.3589C6.59568 17.3407 6.59459 17.3216 6.59368 17.3018C6.59242 17.2744 6.59148 17.2456 6.59051 17.216C6.589 17.1695 6.58742 17.1209 6.5844 17.0724C6.58081 17.0225 6.57644 16.9728 6.57121 16.9235C6.51167 16.3629 6.34049 15.8443 5.94451 15.4171C5.38064 14.8123 4.55701 14.8187 4.04383 15.4681C3.88376 15.6749 3.77651 15.9215 3.66966 16.1672C3.62849 16.2619 3.58737 16.3564 3.54332 16.4485C3.5062 16.5337 3.48684 16.6279 3.47408 16.6899C3.4716 16.702 3.46936 16.7129 3.46729 16.7222C3.33994 16.7091 3.21535 16.6925 3.09288 16.6763C2.80105 16.6376 2.52122 16.6006 2.24453 16.614ZM2.65857 20.5668C2.69527 20.5265 2.73158 20.4867 2.77241 20.4424C3.06623 21.064 3.61816 21.5344 4.29205 21.7154C4.18269 21.7825 4.05988 21.864 3.9461 21.9395C3.88226 21.9818 3.82126 22.0223 3.76708 22.0573C3.5907 22.1711 3.42692 22.2679 3.26312 22.3403L3.26189 22.3408L3.26067 22.3413C3.09653 22.4146 2.85725 22.4492 2.60559 22.434L2.6014 22.4338L2.59722 22.4336C2.36278 22.4226 2.09187 22.2042 2.12862 21.7241L2.12866 21.7236L2.1287 21.7231C2.16011 21.3038 2.34166 20.9282 2.65857 20.5668ZM5.08324 21.794L5.07938 21.7902C5.83299 21.7347 6.49612 21.3141 6.89131 20.7045L6.89987 20.7349C6.94927 20.9099 6.99849 21.0674 7.04516 21.2166C7.13043 21.4894 7.20713 21.7347 7.26059 22.0097C7.31515 22.3131 7.2593 22.5594 7.1 22.7573C6.89269 23.0127 6.51697 23.1022 6.12123 22.808C5.87725 22.6229 5.68261 22.4173 5.45925 22.1814C5.34493 22.0606 5.22308 21.932 5.08324 21.794ZM7.2139 19.998L7.19938 20.0057C7.24624 19.8252 7.27235 19.6366 7.27492 19.4428L7.27492 19.4427C7.28207 18.8968 7.10397 18.3904 6.79995 17.9833C6.9 17.976 6.99257 17.9682 7.0801 17.9607C7.3442 17.9383 7.56256 17.9198 7.80284 17.9312L7.80438 17.9312L7.80591 17.9313C8.35763 17.9546 8.65817 18.2433 8.7337 18.491C8.80042 18.7178 8.71116 19.1282 8.25308 19.4443L8.25237 19.4448L8.25165 19.4453C8.05061 19.5849 7.8537 19.6806 7.6231 19.7926C7.49852 19.8531 7.36411 19.9184 7.2139 19.998ZM6.64142 19.4343C6.62875 20.3893 5.83047 21.1724 4.88646 21.1596C4.11266 21.1493 3.46735 20.6392 3.25227 19.9291C3.22256 19.831 3.20106 19.7291 3.18857 19.6242C3.17969 19.5496 3.17535 19.4735 3.17586 19.3961C3.18219 18.4348 3.95513 17.6517 4.90547 17.6581C5.86848 17.6645 6.65409 18.4666 6.64142 19.4343Z" stroke="#6EAF41" stroke-width="0.5"/>
<path fill-rule="evenodd" clip-rule="evenodd" d="M18.9587 12.6962C18.947 12.6515 18.9356 12.6072 18.9245 12.5644C18.9039 12.4843 18.8845 12.4095 18.8672 12.3468C18.8071 12.129 18.7465 11.9525 18.6676 11.8071C18.5024 11.5046 18.3126 11.4429 18.2035 11.4429C18.0896 11.4429 17.8893 11.5102 17.7117 11.8162L17.7103 11.8186L17.7089 11.821C17.6586 11.9059 17.614 12.0089 17.5611 12.1487C17.5483 12.1826 17.5341 12.2215 17.5187 12.2634C17.4784 12.3733 17.4303 12.5043 17.38 12.6232L17.369 12.649C17.6092 12.562 17.87 12.5164 18.1432 12.5204C18.4334 12.5249 18.7089 12.5872 18.9587 12.6962ZM16.7332 13.0141L16.6433 12.9916C16.5858 12.9771 16.5266 12.9595 16.482 12.9463C16.4747 12.9441 16.4678 12.942 16.4614 12.9401C16.409 12.9247 16.3711 12.914 16.3364 12.9063L16.3321 12.9053L16.3279 12.9043C15.7446 12.7655 15.4502 12.9605 15.3712 13.094L15.3708 13.0946L15.3705 13.0952C15.2741 13.2574 15.256 13.6447 15.6574 14.0528L15.6594 14.0549L15.6614 14.0569C15.7369 14.1352 15.8269 14.2119 15.9419 14.3038C15.9562 14.3153 15.9713 14.3273 15.987 14.3397C16.0696 13.8056 16.3416 13.3404 16.7332 13.0141ZM16.2209 15.7134C16.211 15.7246 16.2008 15.7359 16.1905 15.7473C15.9128 16.0814 15.772 16.3832 15.7641 16.7182L15.7641 16.7191C15.758 16.9626 15.8293 17.0834 15.8865 17.14C15.9429 17.1958 16.0604 17.2635 16.296 17.2514C16.6182 17.2352 16.9149 17.0916 17.2237 16.8286C17.2585 16.799 17.2948 16.7667 17.3373 16.7289L17.3455 16.7215C17.3477 16.7196 17.35 16.7176 17.3522 16.7156C16.8668 16.5287 16.4657 16.168 16.2209 15.7134ZM17.9374 16.2093C17.9737 16.2136 18.0105 16.2165 18.0476 16.218C18.0678 16.2188 18.0881 16.2192 18.1084 16.2192C18.6941 16.2192 19.2049 15.8727 19.4521 15.3647C19.4543 15.3602 19.4564 15.3558 19.4586 15.3513C19.5524 15.1537 19.6065 14.9323 19.61 14.6977C19.6226 13.8573 18.9637 13.1697 18.1338 13.157C17.2785 13.1443 16.6006 13.8127 16.5942 14.6722C16.5938 14.7318 16.5968 14.7907 16.6031 14.8487C16.6163 14.9701 16.6438 15.0876 16.6839 15.1995C16.8764 15.7363 17.359 16.1417 17.9374 16.2093ZM20.213 15.0438C20.2705 15.0226 20.3279 15.0024 20.3748 14.9859C20.4099 14.9736 20.4391 14.9633 20.4581 14.9562C20.5564 14.9196 20.5911 14.8989 20.6047 14.8887L20.6064 14.8873L20.6279 14.8714C20.9433 14.6372 21.1452 14.4872 21.264 14.3101L21.2654 14.308L21.2669 14.3059C21.4129 14.0918 21.3921 13.9268 21.3325 13.8161C21.265 13.6905 21.0887 13.5323 20.7478 13.4895L19.8902 13.4846M19.7817 16.0291C19.4636 16.4392 19.0038 16.7306 18.4753 16.8239C18.9105 17.427 19.1202 17.574 19.3614 17.6659C19.6182 17.7594 19.7716 17.717 19.8493 17.6693C19.9274 17.6214 20.0356 17.5029 20.0709 17.2296C20.1092 16.905 20.0409 16.5835 19.8759 16.2291C19.8511 16.1788 19.8285 16.13 19.8097 16.0894L19.8083 16.0863C19.7987 16.0655 19.79 16.0467 19.7817 16.0291ZM20.5753 16.2672C20.6914 16.6014 20.743 16.9455 20.6997 17.3079C20.592 18.1546 19.9394 18.5557 19.1411 18.2629C18.8258 18.1434 18.5764 17.9611 18.2716 17.5986C18.1539 17.4587 18.0279 17.2919 17.8867 17.0914C17.845 17.1274 17.8047 17.1633 17.7652 17.1985C17.7206 17.2383 17.6769 17.2772 17.6333 17.3143C17.5567 17.3795 17.4779 17.441 17.3968 17.4978C17.082 17.718 16.7311 17.867 16.3281 17.8872C15.5805 17.9254 15.1117 17.4607 15.1307 16.7031C15.1416 16.2457 15.3146 15.8582 15.5746 15.5046C15.6185 15.4448 15.665 15.386 15.7136 15.328C15.7484 15.2898 15.7817 15.2516 15.815 15.2134C15.8482 15.1752 15.8815 15.137 15.9163 15.0988C15.8294 15.0248 15.7416 14.9556 15.6553 14.8875C15.5757 14.8247 15.4972 14.7628 15.4217 14.6991C15.3466 14.6356 15.2743 14.5703 15.2067 14.5003C14.6746 13.9592 14.5352 13.2589 14.8266 12.7687C15.1054 12.2975 15.7516 12.1129 16.4739 12.2848C16.5393 12.2994 16.6027 12.3182 16.6639 12.3364C16.7094 12.3499 16.7538 12.3631 16.797 12.3739C16.8409 12.2702 16.8795 12.1649 16.9178 12.0605C16.9899 11.8638 17.061 11.6701 17.1644 11.4954C17.6966 10.5786 18.7167 10.5722 19.2235 11.5017C19.3801 11.7902 19.465 12.1206 19.5459 12.4353C19.5828 12.5791 19.6189 12.7197 19.6607 12.8514C19.7702 12.8514 19.8852 12.8472 20.0036 12.8428C20.2686 12.833 20.5505 12.8226 20.8264 12.8578C21.8401 12.9851 22.3279 13.8764 21.7894 14.6658C21.6072 14.9376 21.3214 15.149 21.0483 15.351C21.027 15.3667 21.0058 15.3824 20.9848 15.398C20.9609 15.416 20.9358 15.4325 20.9097 15.4479C20.8037 15.5103 20.681 15.5532 20.5509 15.5987C20.4756 15.625 20.3979 15.6522 20.3196 15.6845C20.3417 15.729 20.3623 15.7736 20.3829 15.8182C20.4035 15.8627 20.4241 15.9073 20.4463 15.9519C20.4951 16.0562 20.5384 16.1612 20.5753 16.2672ZM20.213 15.0438C20.2314 14.9341 20.2417 14.8216 20.2435 14.7072L20.213 15.0438Z" fill="#6EAF41"/>
<path d="M19.8902 13.4846C19.9603 13.4826 20.0265 13.48 20.09 13.4775M19.8902 13.4846C20.1197 13.8347 20.2503 14.2561 20.2435 14.7072M19.8902 13.4846L20.2435 14.7072M19.8902 13.4846L20.7478 13.4895C21.0887 13.5323 21.265 13.6905 21.3325 13.8161C21.3921 13.9268 21.4129 14.0918 21.2669 14.3059L21.2654 14.308L21.264 14.3101C21.1452 14.4872 20.9433 14.6372 20.6279 14.8714L20.6064 14.8873L20.6047 14.8887C20.5911 14.8989 20.5564 14.9196 20.4581 14.9562C20.4391 14.9633 20.4099 14.9736 20.3748 14.9859C20.3279 15.0024 20.2705 15.0226 20.213 15.0438M19.8902 13.4846L20.213 15.0438M20.2435 14.7072C20.2417 14.8216 20.2314 14.9341 20.213 15.0438M20.2435 14.7072L20.213 15.0438M18.9245 12.5644C18.9356 12.6072 18.947 12.6515 18.9587 12.6962C18.7089 12.5872 18.4334 12.5249 18.1432 12.5204C17.87 12.5164 17.6092 12.562 17.369 12.649L17.38 12.6232C17.4303 12.5043 17.4784 12.3733 17.5187 12.2634C17.5341 12.2215 17.5483 12.1826 17.5611 12.1487C17.614 12.0089 17.6586 11.9059 17.7089 11.821L17.7103 11.8186L17.7117 11.8162C17.8893 11.5102 18.0896 11.4429 18.2035 11.4429C18.3126 11.4429 18.5024 11.5046 18.6676 11.8071C18.7465 11.9525 18.8071 12.129 18.8672 12.3468C18.8845 12.4095 18.9039 12.4843 18.9245 12.5644ZM16.6433 12.9916L16.7332 13.0141C16.3416 13.3404 16.0696 13.8056 15.987 14.3397C15.9713 14.3273 15.9562 14.3153 15.9419 14.3038C15.8269 14.2119 15.7369 14.1352 15.6614 14.0569L15.6594 14.0549L15.6574 14.0528C15.256 13.6447 15.2741 13.2574 15.3705 13.0952L15.3708 13.0946L15.3712 13.094C15.4502 12.9605 15.7446 12.7655 16.3279 12.9043L16.3321 12.9053L16.3364 12.9063C16.3711 12.914 16.409 12.9247 16.4614 12.9401C16.4678 12.942 16.4747 12.9441 16.482 12.9463C16.5266 12.9595 16.5858 12.9771 16.6433 12.9916ZM16.1905 15.7473C16.2008 15.7359 16.211 15.7246 16.2209 15.7134C16.4657 16.168 16.8668 16.5287 17.3522 16.7156C17.35 16.7176 17.3477 16.7196 17.3455 16.7215L17.3373 16.7289C17.2948 16.7667 17.2585 16.799 17.2237 16.8286C16.9149 17.0916 16.6182 17.2352 16.296 17.2514C16.0604 17.2635 15.9429 17.1958 15.8865 17.14C15.8293 17.0834 15.758 16.9626 15.7641 16.7191L15.7641 16.7182C15.772 16.3832 15.9128 16.0814 16.1905 15.7473ZM18.0476 16.218C18.0105 16.2165 17.9737 16.2136 17.9374 16.2093C17.359 16.1417 16.8764 15.7363 16.6839 15.1995C16.6438 15.0876 16.6163 14.9701 16.6031 14.8487C16.5968 14.7907 16.5938 14.7318 16.5942 14.6722C16.6006 13.8127 17.2785 13.1443 18.1338 13.157C18.9637 13.1697 19.6226 13.8573 19.61 14.6977C19.6065 14.9323 19.5524 15.1537 19.4586 15.3513C19.4564 15.3558 19.4543 15.3602 19.4521 15.3647C19.2049 15.8727 18.6941 16.2192 18.1084 16.2192C18.0881 16.2192 18.0678 16.2188 18.0476 16.218ZM18.4753 16.8239C19.0038 16.7306 19.4636 16.4392 19.7817 16.0291C19.79 16.0467 19.7987 16.0655 19.8083 16.0863L19.8097 16.0894C19.8285 16.13 19.8511 16.1788 19.8759 16.2291C20.0409 16.5835 20.1092 16.905 20.0709 17.2296C20.0356 17.5029 19.9274 17.6214 19.8493 17.6693C19.7716 17.717 19.6182 17.7594 19.3614 17.6659C19.1202 17.574 18.9105 17.427 18.4753 16.8239ZM20.6997 17.3079C20.743 16.9455 20.6914 16.6014 20.5753 16.2672C20.5384 16.1612 20.4951 16.0562 20.4463 15.9519C20.4241 15.9073 20.4035 15.8627 20.3829 15.8182C20.3623 15.7736 20.3417 15.729 20.3196 15.6845C20.3979 15.6522 20.4756 15.625 20.5509 15.5987C20.681 15.5532 20.8037 15.5103 20.9097 15.4479C20.9358 15.4325 20.9609 15.416 20.9848 15.398C21.0058 15.3824 21.027 15.3667 21.0483 15.351C21.3214 15.149 21.6072 14.9376 21.7894 14.6658C22.3279 13.8764 21.8401 12.9851 20.8264 12.8578C20.5505 12.8226 20.2686 12.833 20.0036 12.8428C19.8852 12.8472 19.7702 12.8514 19.6607 12.8514C19.6189 12.7197 19.5828 12.5791 19.5459 12.4353C19.465 12.1206 19.3801 11.7902 19.2235 11.5017C18.7167 10.5722 17.6966 10.5786 17.1644 11.4954C17.061 11.6701 16.9899 11.8638 16.9178 12.0605C16.8795 12.1649 16.8409 12.2702 16.797 12.3739C16.7538 12.3631 16.7094 12.3499 16.6639 12.3364C16.6027 12.3182 16.5393 12.2994 16.4739 12.2848C15.7516 12.1129 15.1054 12.2975 14.8266 12.7687C14.5352 13.2589 14.6746 13.9592 15.2067 14.5003C15.2743 14.5703 15.3466 14.6356 15.4217 14.6991C15.4972 14.7628 15.5757 14.8247 15.6553 14.8875C15.7416 14.9556 15.8294 15.0248 15.9163 15.0988C15.8815 15.137 15.8482 15.1752 15.815 15.2134C15.7817 15.2516 15.7484 15.2898 15.7136 15.328C15.665 15.386 15.6185 15.4448 15.5746 15.5046C15.3146 15.8582 15.1416 16.2457 15.1307 16.7031C15.1117 17.4607 15.5805 17.9254 16.3281 17.8872C16.7311 17.867 17.082 17.718 17.3968 17.4978C17.4779 17.441 17.5567 17.3795 17.6333 17.3143C17.6769 17.2772 17.7206 17.2383 17.7652 17.1985C17.8047 17.1633 17.845 17.1274 17.8867 17.0914C18.0279 17.2919 18.1539 17.4587 18.2716 17.5986C18.5764 17.9611 18.8258 18.1434 19.1411 18.2629C19.9394 18.5557 20.592 18.1546 20.6997 17.3079Z" stroke="#6EAF41" stroke-width="0.5"/>
<path fill-rule="evenodd" clip-rule="evenodd" d="M5.68713 9.03093C5.69332 9.13507 5.71133 9.23587 5.73978 9.33198C5.9024 9.88127 6.4063 10.2771 6.99624 10.2666C7.72483 10.2539 8.29503 9.66183 8.29503 8.93606C8.29503 8.57271 8.14472 8.24347 7.90207 8.00657C7.87383 7.979 7.84435 7.95268 7.8137 7.92771C7.58627 7.74237 7.29501 7.63095 6.97723 7.63095C6.25497 7.63095 5.67844 8.22939 5.68477 8.96153C5.68497 8.98481 5.68576 9.00795 5.68713 9.03093ZM8.6871 7.9994C8.84085 8.27653 8.92859 8.59553 8.92859 8.93606C8.92859 8.9987 8.92569 9.06069 8.92003 9.12189C8.94524 9.10854 8.96988 9.09558 8.99402 9.08288C9.17721 8.9865 9.33134 8.90541 9.48945 8.78554C9.61183 8.69152 9.6778 8.60175 9.70853 8.52981C9.73508 8.46764 9.74635 8.39553 9.71881 8.29344C9.69102 8.19755 9.64768 8.14922 9.59426 8.11335C9.52808 8.06891 9.41846 8.02744 9.25237 8.00915L9.25125 8.00902L9.25012 8.00889C9.06197 7.98749 8.89519 7.99279 8.69304 7.99921C8.69107 7.99927 8.68909 7.99933 8.6871 7.9994ZM10.3287 8.12116C10.4618 8.60501 10.2464 9.00609 9.87259 9.29258C9.67302 9.4441 9.44551 9.56443 9.23569 9.67539C9.14577 9.72295 9.0591 9.76879 8.97927 9.81463C9.00748 9.94216 9.04273 10.0703 9.0781 10.199C9.15397 10.4748 9.23039 10.7527 9.23903 11.0306C9.26437 11.9537 8.45342 12.4185 7.67414 11.9219C7.43927 11.7705 7.23849 11.5661 7.03278 11.3568C6.9444 11.2668 6.85511 11.1759 6.76182 11.0879C6.72977 11.1121 6.69265 11.1419 6.65166 11.1749C6.56303 11.2463 6.45631 11.3322 6.34367 11.4062C6.19162 11.5017 6.03323 11.5845 5.86217 11.6418C5.45669 11.7755 5.04488 11.7946 4.70909 11.4635C4.36064 11.1261 4.3543 10.6932 4.50635 10.2794C4.59261 10.041 4.72582 9.82038 4.85805 9.60138C4.92008 9.49864 4.9819 9.39626 5.03854 9.29258C4.97252 9.23039 4.89978 9.16751 4.82448 9.10243C4.66855 8.96765 4.50163 8.82338 4.36064 8.65594C4.03752 8.26122 3.8728 7.79011 4.16423 7.30626C4.45567 6.82878 4.93084 6.79059 5.42501 6.86062C5.53751 6.87536 5.64623 6.90149 5.76574 6.93021C5.80104 6.93869 5.83728 6.9474 5.87484 6.95611C5.89953 6.88845 5.92184 6.81918 5.94429 6.74945C5.98522 6.62236 6.02664 6.49373 6.08391 6.3704C6.27398 5.95022 6.56542 5.62553 7.05326 5.6128C7.55377 5.5937 7.85787 5.92476 8.03527 6.33857C8.13579 6.56694 8.19109 6.81349 8.24484 7.05314C8.26901 7.16089 8.29286 7.26725 8.32037 7.36993C8.41768 7.36993 8.51799 7.36692 8.61999 7.36387C8.85004 7.35698 9.08876 7.34983 9.32139 7.37629C9.78389 7.42723 10.1894 7.63095 10.3287 8.12116ZM4.70528 7.63753C4.64318 7.74133 4.63892 7.81748 4.65332 7.89009C4.67121 7.98033 4.72787 8.10158 4.84711 8.24805C4.91676 8.33027 5.00116 8.41161 5.10209 8.50148C5.18657 8.13599 5.37217 7.80801 5.62897 7.55207C5.61719 7.54925 5.60588 7.54654 5.59498 7.54393C5.48725 7.51811 5.42005 7.502 5.34307 7.49191L5.3398 7.49148L5.33654 7.49102C5.12223 7.46065 4.98126 7.46559 4.88793 7.4916C4.82001 7.51053 4.76377 7.54236 4.70528 7.63753ZM6.5127 7.05102C6.52635 7.00994 6.53931 6.96971 6.55104 6.93326C6.55928 6.90768 6.56692 6.88396 6.57378 6.86312C6.60409 6.77099 6.62969 6.70065 6.65803 6.63963L6.65937 6.63674L6.66068 6.63385C6.7333 6.47332 6.80568 6.37674 6.86844 6.32287C6.91955 6.27899 6.97605 6.25167 7.06971 6.24923L7.0735 6.24913L7.0773 6.24898C7.16898 6.24548 7.21987 6.26962 7.26437 6.30618C7.32156 6.35318 7.38982 6.44213 7.4534 6.59044L7.45462 6.59327L7.45586 6.5961C7.50572 6.70937 7.54432 6.84091 7.58327 7.00336C7.58999 7.0314 7.5973 7.06312 7.60506 7.09729C7.40769 7.03049 7.19644 6.99431 6.97723 6.99431C6.81656 6.99431 6.66104 7.01399 6.5127 7.05102ZM6.00217 10.8699C6.05958 10.8319 6.11992 10.7862 6.1841 10.7353C6.18496 10.7346 6.18584 10.7339 6.18671 10.7332C5.84448 10.577 5.55613 10.3221 5.35563 10.005C5.33521 10.0389 5.31624 10.0707 5.29953 10.0992C5.21066 10.251 5.1452 10.3769 5.10177 10.4969L5.10123 10.4984L5.10069 10.4999C5.04892 10.6408 5.03901 10.7461 5.04831 10.8181C5.05605 10.8779 5.07886 10.9375 5.14871 11.0051L5.15077 11.0071L5.1528 11.0091C5.2138 11.0692 5.26496 11.0876 5.3233 11.0935C5.39745 11.1011 5.50668 11.0888 5.66316 11.0374C5.77017 11.0014 5.88015 10.9461 6.00217 10.8699ZM7.42606 10.851C7.45212 10.8773 7.47774 10.9033 7.50246 10.9284C7.55857 10.9854 7.61004 11.0377 7.65158 11.0785C7.788 11.2127 7.90179 11.3121 8.01482 11.3851C8.2396 11.5278 8.38468 11.4897 8.44541 11.4551C8.5064 11.4203 8.61273 11.3145 8.60574 11.0492C8.60149 10.9175 8.57296 10.7686 8.52431 10.5798C8.51071 10.5269 8.49342 10.4639 8.47469 10.3955C8.46164 10.3479 8.44788 10.2977 8.43418 10.2466C8.17324 10.5415 7.82451 10.7569 7.42606 10.851Z" fill="#6EAF41" stroke="#6EAF41" stroke-width="0.5"/>
<path fill-rule="evenodd" clip-rule="evenodd" d="M13.0907 3.39738C12.8436 3.02813 12.7042 2.62068 12.9577 2.20686C13.2048 1.81214 13.6166 1.74848 14.0474 1.78668C14.1601 1.79539 14.2729 1.82201 14.3836 1.84815C14.4347 1.86019 14.4853 1.87213 14.5352 1.88217C14.5724 1.79862 14.6058 1.71355 14.6391 1.6288C14.7022 1.46815 14.7649 1.30864 14.852 1.16277C15.2765 0.468833 16.0431 0.443368 16.4549 1.13731C16.6008 1.3816 16.6819 1.66307 16.7606 1.93633C16.7947 2.05475 16.8284 2.17162 16.8667 2.28326C16.9518 2.28326 17.0398 2.28029 17.1299 2.27726C17.335 2.27035 17.5507 2.26309 17.7664 2.28962C18.2035 2.34056 18.5773 2.54428 18.704 3.01539C18.8244 3.47378 18.6027 3.83029 18.2605 4.09132C18.0817 4.2261 17.8776 4.33235 17.6639 4.44362C17.5748 4.49003 17.4839 4.53731 17.3926 4.5879C17.4062 4.61992 17.4232 4.65442 17.441 4.69079C17.4728 4.75563 17.5076 4.82643 17.532 4.89985C17.589 5.05901 17.6397 5.21817 17.6713 5.3837C17.76 5.91211 17.589 6.40869 17.2342 6.59331C16.778 6.82887 16.3662 6.67608 16.0114 6.37049C15.8594 6.23957 15.7283 6.08772 15.5914 5.92928C15.5286 5.85657 15.4646 5.78248 15.3969 5.70838C15.3712 5.73073 15.3456 5.75493 15.3195 5.77948C15.3138 5.78488 15.3081 5.79029 15.3023 5.79571C15.2873 5.80981 15.2721 5.82392 15.2568 5.83776C15.2054 5.88396 15.1516 5.9271 15.0928 5.95667C15.0476 5.97938 15.0022 6.00275 14.9567 6.02622C14.7212 6.14755 14.4806 6.27155 14.2311 6.31956C13.6229 6.44052 13.1287 6.01397 13.2048 5.4028C13.2254 5.23078 13.2846 5.06292 13.3572 4.89726C13.375 4.85669 13.3937 4.81625 13.4127 4.77591C13.4375 4.72349 13.463 4.67125 13.4884 4.61913C13.5351 4.52358 13.5816 4.42841 13.6229 4.33324C13.6387 4.30159 13.6592 4.27235 13.6752 4.25007C13.6763 4.24846 13.6775 4.24689 13.6786 4.24536C13.7052 4.20832 13.7158 4.19347 13.6609 4.22501C13.607 4.14805 13.5525 4.07204 13.4984 3.99647C13.3555 3.797 13.2148 3.60054 13.0907 3.39738ZM14.0831 4.84645C14.0782 4.8566 14.0733 4.8666 14.0685 4.87646C14.0649 4.88376 14.0614 4.89098 14.0579 4.89811C14.0179 4.98019 13.9828 5.05195 13.9506 5.12352C13.8796 5.28096 13.8443 5.39086 13.8337 5.47908L13.8336 5.48042L13.8334 5.48176C13.82 5.58973 13.8558 5.63648 13.8797 5.6576C13.9079 5.6825 13.9784 5.72083 14.1081 5.69503L14.11 5.69465L14.112 5.69428C14.2652 5.6648 14.4109 5.59036 14.6435 5.47152C14.6783 5.45374 14.715 5.43496 14.754 5.41519C14.4864 5.28258 14.2567 5.08686 14.0831 4.84645ZM15.3107 4.94097C15.3933 4.95912 15.4794 4.96904 15.5679 4.96988C15.5726 4.96992 15.5773 4.96994 15.582 4.96993C16.0248 4.96908 16.4051 4.7334 16.6137 4.37781C16.6363 4.33929 16.6569 4.29936 16.6753 4.25817C16.747 4.09783 16.7861 3.91838 16.7844 3.72843C16.7814 3.41714 16.6666 3.1343 16.4785 2.9199C16.4479 2.88504 16.4154 2.85199 16.3811 2.82092C16.169 2.62882 15.8891 2.51245 15.5806 2.51245C14.8964 2.51245 14.3705 3.05359 14.3642 3.7539C14.3697 4.34527 14.7667 4.82148 15.3107 4.94097ZM17.2278 2.91162C17.3473 3.15685 17.4152 3.4322 17.4179 3.72243L17.4179 3.72259C17.4183 3.76731 17.4172 3.81168 17.4146 3.85566C17.4178 3.85398 17.421 3.8523 17.4242 3.85064C17.6085 3.755 17.7435 3.68493 17.8789 3.58314C17.9952 3.49415 18.0549 3.41567 18.0816 3.35814C18.1024 3.31338 18.1134 3.26275 18.0919 3.17962C18.0666 3.08694 18.0279 3.04458 17.9865 3.01519C17.9337 2.97783 17.8415 2.93929 17.6934 2.92203L17.6914 2.92179L17.6894 2.92155C17.528 2.90169 17.3933 2.90564 17.2278 2.91162ZM16.9051 5.03923C16.6857 5.27047 16.407 5.44417 16.0908 5.53518C16.0963 5.5416 16.1017 5.54793 16.1071 5.55418C16.222 5.68788 16.3066 5.78622 16.4237 5.88712C16.5534 5.99884 16.6545 6.04778 16.726 6.06421C16.7817 6.07701 16.846 6.07763 16.9431 6.02783C16.948 6.02514 16.9879 6.00022 17.0226 5.90273C17.0574 5.80521 17.0746 5.66322 17.0478 5.49656C17.025 5.38086 16.9875 5.25956 16.9358 5.11549L16.9333 5.10836L16.9309 5.10117C16.9265 5.08781 16.9189 5.06906 16.9051 5.03923ZM16.1048 1.95187C15.9392 1.9024 15.7634 1.87581 15.5806 1.87581C15.4526 1.87581 15.3284 1.88833 15.2089 1.9122C15.2179 1.88962 15.2265 1.86768 15.2347 1.84676C15.2481 1.81274 15.2604 1.78141 15.2713 1.75441C15.3164 1.64265 15.3535 1.56081 15.3935 1.49324C15.5191 1.28957 15.6375 1.26682 15.6718 1.26608C15.697 1.26554 15.7978 1.27303 15.9108 1.46338L15.9112 1.46412L15.9116 1.46485C15.9773 1.57489 16.0309 1.71214 16.0868 1.89259C16.0924 1.91057 16.0984 1.93046 16.1048 1.95187ZM14.2269 2.46597C14.2106 2.46205 14.1957 2.4584 14.1818 2.455C14.1099 2.43738 14.066 2.42664 13.9988 2.42144L13.9952 2.42117L13.9917 2.42086C13.8165 2.40532 13.701 2.41683 13.6271 2.44066C13.5716 2.45853 13.5335 2.48375 13.4956 2.54323C13.4553 2.61002 13.4516 2.65671 13.461 2.71133C13.4738 2.78649 13.5176 2.89442 13.6165 3.04214L13.6238 3.05312L13.6307 3.06441C13.6801 3.14526 13.7313 3.22341 13.785 3.30209C13.8614 2.98375 14.0151 2.69724 14.2269 2.46597ZM13.9751 4.77783C13.9763 4.77719 13.9769 4.77684 13.9769 4.77682C13.9769 4.77681 13.9764 4.77711 13.9752 4.77777L13.9751 4.77783Z" fill="#6EAF41" stroke="#6EAF41" stroke-width="0.5"/>
<path d="M13.6296 32.1162C13.1925 31.8425 13.1925 31.8425 12.844 32.1799C12.6159 32.4027 12.3942 32.6319 12.1851 32.8611C11.9507 33.1158 11.729 33.3768 11.4502 33.6887C11.4249 33.3895 11.4502 31.6135 11.2824 31.5355C11.1367 31.9875 11.0384 33.797 10.842 34.2108C10.7913 34.319 10.7406 34.4463 10.7406 34.5609C10.7596 35.1848 10.7913 35.8087 10.8166 36.4326C10.842 36.9547 10.8737 37.4767 10.8927 37.9415C10.4555 37.5531 10.0057 37.1521 9.55586 36.7573C9.41648 37.2412 9.60655 37.6104 9.96768 37.9479C10.2718 38.2343 10.5442 38.5718 10.804 38.9028C10.9053 39.0365 10.994 39.2148 11.013 39.3803C11.1588 40.7427 11.2728 42.1051 11.4249 43.4612C11.5326 44.448 11.6783 45.4284 11.805 46.3706C12.3625 46.2942 12.882 46.2242 13.4142 46.1478C13.3952 46.0777 13.3762 45.9759 13.3509 45.874C12.3942 42.3025 11.8113 38.6673 11.5326 34.9747C11.5072 34.6755 11.5832 34.4527 11.7797 34.2362C12.3942 33.5359 13.0088 32.8229 13.6296 32.1162Z" fill="#6EAF41" stroke="#6EAF41" stroke-width="0.5"/>
<path d="M5.35575 32.3518C4.62082 32.3645 4.03795 32.9884 4.05062 33.746C4.06329 34.4909 4.6525 35.0766 5.38109 35.0702C6.12869 35.0638 6.7179 34.459 6.70523 33.7014C6.69256 32.9502 6.08434 32.339 5.35575 32.3518Z" fill="#6EAF41" stroke="#6EAF41" stroke-width="0.5"/>
<path d="M16.5058 26.5265C15.8659 26.5201 15.3464 27.0421 15.3401 27.6915C15.3401 28.3473 15.8406 28.882 16.4805 28.8884C17.1331 28.8948 17.6652 28.36 17.6652 27.7042C17.6652 27.0549 17.1521 26.5328 16.5058 26.5265Z" fill="#6EAF41" stroke="#6EAF41" stroke-width="0.5"/>
<path d="M4.91819 20.5229C5.51373 20.5165 5.9889 20.0199 5.98256 19.4088C5.97623 18.7912 5.5074 18.3137 4.89918 18.3201C4.28463 18.3201 3.80313 18.8167 3.8158 19.447C3.82213 20.039 4.32264 20.5293 4.91819 20.5229Z" fill="#6EAF41" stroke="#6EAF41" stroke-width="0.5"/>
<path d="M18.1022 13.7173C17.57 13.7237 17.1582 14.1566 17.1645 14.7041C17.1708 15.2325 17.5953 15.6527 18.1148 15.6463C18.6344 15.64 19.0588 15.2071 19.0588 14.6914C19.0588 14.1439 18.6344 13.711 18.1022 13.7173Z" fill="#6EAF41" stroke="#6EAF41" stroke-width="0.5"/>
<path d="M6.97059 9.77661C7.42042 9.78297 7.79422 9.40736 7.80055 8.95534C7.80689 8.49696 7.44576 8.12134 6.99594 8.11497C6.55244 8.10224 6.17865 8.47149 6.16597 8.93624C6.15964 9.38189 6.5271 9.77024 6.97059 9.77661Z" fill="#6EAF41" stroke="#6EAF41" stroke-width="0.5"/>
<path d="M15.5744 4.51144C15.9989 4.51781 16.341 4.18039 16.3536 3.75384C16.36 3.32729 16.0242 2.97714 15.6061 2.97077C15.1816 2.9644 14.8395 3.29546 14.8331 3.72837C14.8204 4.16765 15.1499 4.50507 15.5744 4.51144Z" fill="#6EAF41" stroke="#6EAF41" stroke-width="0.5"/>
</svg>
