<svg width="15" height="48" viewBox="0 0 15 48" fill="none" xmlns="http://www.w3.org/2000/svg">
<path d="M0.508941 3.80653C0.75859 3.80653 1.029 3.80653 1.30638 3.80653C1.30638 3.65466 1.30638 3.97286 1.30638 3.80653C1.30638 7.14768 1.30638 7.76752 1.30638 11.1087C1.30638 11.6728 1.23704 11.5932 1.77794 11.7234C2.42287 11.8825 3.05392 12.1139 3.73352 12.3309C3.73352 8.45456 3.73352 6.145 3.73352 2.22529C4.01785 2.22529 4.24669 2.22529 4.51714 2.22529C4.51714 6.05822 4.51714 8.74383 4.51714 12.5768C4.51714 12.7865 4.53101 12.9528 4.71825 13.1119C6.23001 14.3486 7.06911 15.9902 7.30489 17.9718C7.31182 18.0079 7.31876 18.0441 7.31182 18.0007C7.48519 17.3715 7.62388 16.6628 7.87353 15.9902C8.28268 14.8476 8.99002 13.9147 9.9054 13.1625C10.0996 13.0034 10.1689 12.8443 10.1689 12.5912C10.162 8.74383 10.162 2.23252 10.162 2.23252C10.4116 2.23252 10.6405 2.23252 10.9248 2.23252C10.9248 6.13777 10.9248 8.45456 10.9248 12.4177C11.2022 12.3019 11.4033 12.1935 11.6183 12.1211C12.0551 11.9765 12.499 11.8029 12.9497 11.7306C13.3103 11.6728 13.3797 11.5209 13.3797 11.1738C13.3658 7.81091 13.3726 7.16937 13.3726 3.80652C13.3726 3.97285 13.3726 3.66188 13.3726 3.80652C13.6431 3.80652 13.8788 3.80652 14.1493 3.80652C14.1493 7.29231 14.1494 8.04957 14.1425 11.5354C14.1356 16.1493 10.1412 19.4905 5.82086 18.507C2.81121 17.8199 0.543568 14.9271 0.529698 11.7089C0.515829 8.12912 0.502007 7.38634 0.508941 3.80653C0.508941 3.70528 0.502007 3.9367 0.508941 3.80653Z" fill="#6EAF41"/>
<path d="M0.529938 33.838C0.807324 33.838 1.03617 33.838 1.31355 33.838C1.31355 34.3081 1.32049 34.7637 1.31355 35.2193C1.30662 35.4218 1.37597 35.5159 1.57707 35.5448C4.52431 36.0149 6.97224 38.4737 7.31897 41.8944C7.31897 41.9161 7.33284 41.9378 7.33978 41.9451C7.88068 38.3219 9.89174 36.174 13.3729 35.458C13.3729 34.9373 13.3729 34.4021 13.3729 33.838C13.6434 33.838 13.8792 33.838 14.108 33.838C14.6836 38.6979 11.8751 41.8655 8.39385 42.4513C8.3037 42.4658 8.03775 42.4947 7.91986 42.5236C7.91986 44.7521 7.92308 44.9885 7.92364 46.9034C7.92373 47.226 7.66224 47.4886 7.33969 47.4886C7.01715 47.4886 6.75582 47.2267 6.75469 46.9042C6.74884 45.234 6.71925 44.8215 6.73178 42.8491C6.73178 42.5887 6.50068 42.473 6.23023 42.4296C2.93627 41.8583 0.571546 38.9655 0.529938 35.4869C0.523003 34.959 0.529938 34.4166 0.529938 33.838Z" fill="#6EAF41"/>
<path d="M13.3731 15.9177C13.6505 15.9177 13.8724 15.9177 14.0805 15.9177C14.1013 15.9467 14.129 15.9611 14.129 15.9828C14.2954 18.3549 13.9487 20.5606 12.326 22.3976C9.65615 25.4205 4.87818 25.3844 2.27768 22.3035C1.10573 20.9078 0.537086 19.2806 0.530151 17.4364C0.530151 16.9447 0.530151 16.4529 0.530151 15.9322C0.786734 15.9322 1.02251 15.9322 1.30683 15.9322C1.30683 16.395 1.30683 16.8651 1.30683 17.328C1.30683 17.5015 1.33457 17.6172 1.54261 17.6462C4.45516 18.0729 6.95857 20.5389 7.31224 23.9597C7.31224 23.9814 7.32611 24.003 7.31224 23.9597C7.47867 23.3377 7.59656 22.629 7.86008 21.9926C8.83786 19.5626 10.6062 18.1235 13.0888 17.6534C13.3107 17.61 13.3801 17.5377 13.3731 17.3135C13.3662 16.8579 13.3731 16.4023 13.3731 15.9177Z" fill="#6EAF41"/>
<path d="M0.530286 27.8652C0.814607 27.8652 1.04345 27.8652 1.3139 27.8652C1.3139 28.3353 1.32084 28.7909 1.3139 29.2465C1.30697 29.449 1.36245 29.543 1.57049 29.5792C4.76044 30.2084 6.83391 32.472 7.30547 35.8059C7.3124 35.8493 7.31934 35.8999 7.31934 35.8855C7.4927 35.2563 7.61059 34.5476 7.87411 33.8967C8.84497 31.5101 10.5856 30.0854 13.0196 29.6009C13.3109 29.543 13.408 29.4418 13.3872 29.1453C13.3664 28.7475 13.3872 28.3498 13.3941 27.952C13.3941 27.9303 13.408 27.9086 13.4288 27.8652C13.6438 27.8652 13.8726 27.8652 14.15 27.8652C14.15 28.5161 14.1916 29.1815 14.1431 29.8323C13.9003 32.9131 12.4094 35.1117 9.61472 36.1458C6.93793 37.1438 4.50386 36.5074 2.472 34.4246C1.20988 33.1301 0.606567 31.4957 0.53722 29.6515C0.516416 29.0657 0.530286 28.48 0.530286 27.8652Z" fill="#6EAF41"/>
<path d="M13.3729 21.8987C13.6503 21.8987 13.8722 21.8987 14.108 21.8987C14.3369 24.3937 13.9346 26.6718 12.1732 28.5087C8.70589 32.1246 2.8877 30.9169 1.05001 26.18C0.751814 25.4134 0.654728 24.5528 0.543773 23.7211C0.467492 23.1353 0.529904 22.5206 0.529904 21.8987C0.800357 21.8987 1.03614 21.8987 1.30659 21.8987C1.30659 22.3688 1.31352 22.8244 1.29965 23.28C1.29272 23.4897 1.369 23.5765 1.56317 23.6054C4.48961 24.061 6.94448 26.5199 7.29815 29.9117C7.29815 29.9406 7.31896 29.9695 7.3467 30.078C7.45765 28.7835 7.82519 27.6553 8.49785 26.6428C9.5866 24.9939 11.0845 23.9887 12.9707 23.6343C13.262 23.5765 13.3868 23.4897 13.366 23.1643C13.3521 22.7665 13.3729 22.3543 13.3729 21.8987Z" fill="#6EAF41"/>
<path d="M6.95894 0.629412C7.22939 0.629412 7.45823 0.629412 7.70095 0.629412C7.70788 0.752356 7.71482 0.853604 7.71482 0.962084C7.71482 2.20599 7.70788 3.44266 7.72175 4.68656C7.72175 4.89629 7.80497 5.13495 7.92286 5.30128C9.90617 8.04944 9.77441 11.7812 7.58306 14.3557C7.50678 14.4425 7.43743 14.5365 7.34034 14.645C6.46658 13.7193 5.86326 12.6779 5.57201 11.4629C5.02417 9.18486 5.43331 7.10205 6.79944 5.22173C6.88959 5.09879 6.93813 4.91799 6.93813 4.76611C6.952 3.53667 6.94507 2.30724 6.94507 1.0778C6.95894 0.940388 6.95894 0.810212 6.95894 0.629412Z" fill="#6EAF41"/>
</svg>
