<svg width="27" height="43" viewBox="0 0 27 43" fill="none" xmlns="http://www.w3.org/2000/svg">
<path d="M13.9154 27.2028C13.977 27.4544 13.9154 27.6588 13.9154 27.8553C13.9231 30.9215 13.9231 32.6563 13.9231 35.7225C13.9231 35.7854 13.9385 35.8405 13.9539 35.9977C14.4089 35.5574 14.8021 35.18 15.1877 34.7869C15.2416 34.7319 15.2339 34.5904 15.2185 34.496C14.6248 31.8308 15.6272 29.8338 17.7091 28.3007C19.3978 27.0585 21.3409 26.4216 23.3458 25.9814C23.5848 25.9263 23.8238 25.8792 24.0629 25.8398C24.6643 25.7455 24.9496 26.0285 24.8417 26.6418C24.541 28.3636 24.0475 30.0225 23.261 31.5949C22.6364 32.845 21.8576 33.9771 20.7086 34.7948C19.4132 35.7147 17.9944 36.0056 16.4599 35.6282C16.1592 35.5574 15.9665 35.6125 15.7505 35.8326C15.2416 36.3515 14.7173 36.8547 14.1852 37.35C13.9925 37.5308 13.9076 37.7274 13.9076 37.9947C13.9154 40.1174 13.9154 39.5694 13.9154 41.6922C13.9154 41.9571 13.7006 42.1718 13.4358 42.1718C13.4119 42.1718 13.388 42.1718 13.364 42.1718C13.0595 42.1718 12.8127 41.9249 12.8127 41.6204C12.8127 41.6155 12.8127 41.6106 12.8127 41.6057C12.8127 40.9531 12.8281 40.2927 12.805 39.6402C12.7973 39.4829 12.7202 39.2864 12.6045 39.1684C12.219 38.7596 11.8257 38.3744 11.4093 37.997C11.3014 37.9026 11.1086 37.8397 10.9698 37.8633C9.08834 38.2564 7.60785 37.5646 6.45892 36.0865C5.23289 34.5062 4.65458 32.635 4.32301 30.6774C4.25361 30.2764 4.53891 29.9383 4.92446 30.0091C7.12206 30.41 9.25027 31.0076 10.8927 32.6743C11.9876 33.7829 12.3886 35.143 12.0879 36.7076C12.057 36.8491 12.1419 37.0457 12.2344 37.1715C12.3655 37.3523 12.5582 37.5017 12.7741 37.714C12.7973 37.5488 12.8204 37.4545 12.8204 37.3602C12.8204 32.7451 12.8204 32.1323 12.8127 27.5173C12.8127 27.3679 12.7664 27.2106 12.697 27.077C12.2961 26.3065 11.8797 25.5439 11.471 24.7734C11.4479 24.7341 11.4247 24.6869 11.417 24.679C10.8696 25.1508 10.3452 25.6225 9.79774 26.0628C9.52015 26.2829 9.19629 26.4559 8.87243 26.621C8.4252 26.8568 8.10134 26.7075 7.95484 26.22C7.69267 25.3473 7.56929 24.4589 7.62327 23.5469C7.63098 23.4211 7.63869 23.2874 7.6464 23.1616C7.03724 23.3739 6.45121 23.6019 5.84976 23.7749C5.45651 23.885 5.04012 23.94 4.63915 23.9793C4.16879 24.0186 3.93746 23.7827 3.96831 23.3032C4.02999 22.2968 4.28445 21.3455 4.72397 20.4414C4.76253 20.3627 4.80108 20.2841 4.86277 20.1505C4.71626 20.1505 4.60831 20.1426 4.50807 20.1505C3.55963 20.2369 2.63432 20.0876 1.73215 19.8124C1.22323 19.6551 1.09214 19.3328 1.33118 18.8532C1.75528 17.9884 2.31818 17.2336 3.03529 16.5968C3.12782 16.5103 3.22035 16.4238 3.35915 16.298C3.1818 16.2351 3.043 16.1801 2.89649 16.1329C2.04058 15.8263 1.26949 15.3546 0.583226 14.757C0.197681 14.419 0.197681 14.073 0.583226 13.735C1.36203 13.051 2.24878 12.5635 3.27433 12.2254C3.1818 12.1232 3.12782 12.0525 3.05842 11.9896C2.30275 11.337 1.71673 10.5429 1.27721 9.64667C1.01504 9.11991 1.14612 8.80542 1.7013 8.63246C2.57264 8.36514 3.45939 8.24721 4.36927 8.32583C4.48494 8.3337 4.6006 8.32583 4.72397 8.32583C4.53891 7.79907 4.33843 7.2959 4.19963 6.777C4.07626 6.31313 3.99915 5.83354 3.93746 5.35395C3.87578 4.84292 4.13795 4.57561 4.63144 4.61492C4.90132 4.6385 5.16349 4.68568 5.43338 4.72499C5.95001 4.81147 6.45892 5.03947 6.69796 5.11023C7.05266 5.25961 7.34568 5.37754 7.69267 5.52692C7.68495 5.33823 7.67724 5.21244 7.66953 5.08664C7.60785 4.15105 7.73122 3.23118 8.0011 2.3349C8.16303 1.80814 8.4946 1.67449 8.98038 1.93394C9.79774 2.36635 10.5226 2.9167 11.1394 3.62429C11.2165 3.71077 11.2628 3.81298 11.3014 3.87588C11.7332 3.09753 12.1187 2.38208 12.5197 1.67449C12.6199 1.49366 12.7587 1.33641 12.8975 1.17917C13.2291 0.801791 13.5915 0.778205 13.8691 1.18703C14.3317 1.87104 14.7327 2.60221 15.1491 3.31767C15.2416 3.47491 15.2802 3.65574 15.4807 3.94664C15.5269 3.83657 15.5501 3.71077 15.6195 3.63215C16.2518 2.89311 17.0151 2.31918 17.8788 1.88676C18.3491 1.6509 18.6576 1.80028 18.8118 2.32704C19.0739 3.23905 19.205 4.16678 19.1125 5.11809C19.1048 5.2203 19.1125 5.31464 19.1125 5.44044C19.5829 5.25961 20.007 5.04733 20.4619 4.92154C20.994 4.77216 21.5337 4.66209 22.0812 4.59133C22.6595 4.52057 22.8831 4.78788 22.8291 5.36968C22.7366 6.36817 22.4899 7.32734 22.0195 8.21576C21.9964 8.26294 21.9887 8.31011 21.9501 8.42018C22.5438 8.42018 23.099 8.38087 23.6542 8.4359C24.1477 8.48308 24.6412 8.61673 25.1193 8.74253C25.6128 8.87618 25.7362 9.21425 25.5125 9.67812C25.1039 10.5194 24.5564 11.2584 23.8701 11.8874C23.7699 11.9817 23.6696 12.0761 23.5308 12.2019C23.847 12.3355 24.1477 12.4299 24.4022 12.5792C24.9805 12.9173 25.5434 13.279 26.0908 13.6642C26.2374 13.7664 26.3222 13.963 26.407 14.1359C26.4455 14.2146 26.4533 14.3718 26.3993 14.4347C26.2605 14.6234 26.0986 14.8199 25.9135 14.9615C25.5202 15.2445 25.2041 15.4882 24.6952 15.7555C24.4716 15.8735 23.8238 16.1486 23.4537 16.3059C23.793 16.6439 24.1091 16.927 24.3867 17.2336C24.4716 17.328 24.8263 17.8233 24.9265 17.9648C25.1039 18.2242 25.2504 18.4994 25.3892 18.7824C25.6128 19.2463 25.474 19.5687 24.9882 19.718C24.1169 19.9853 23.2301 20.1033 22.3279 20.0482C22.2431 20.0404 22.1583 20.0561 22.0426 20.064C22.1968 20.4492 22.3819 20.803 22.4822 21.1725C22.6441 21.8172 22.7906 22.4698 22.8831 23.1302C22.9525 23.6255 22.6981 23.8692 22.2046 23.8299C21.2561 23.767 20.3539 23.5233 19.5058 23.0987C19.4132 23.0516 19.3207 23.0044 19.2282 22.9572C19.205 22.9494 19.1819 22.9572 19.1202 22.9651C19.1356 23.2245 19.1896 23.484 19.1588 23.7356C19.0585 24.5375 18.966 25.3394 18.8041 26.1335C18.6961 26.6839 18.3414 26.8175 17.8479 26.5659C16.9072 26.0785 16.1052 25.4259 15.4036 24.5375C14.9717 25.5832 14.7713 26.621 13.9154 27.2028ZM6.82134 15.5747C7.20688 15.9285 7.76977 16.2037 7.9317 16.6439C8.09363 17.0764 7.87002 17.666 7.82375 18.1299C8.27869 18.2635 8.88785 18.2793 9.204 18.5938C9.52786 18.9161 9.56641 19.5451 9.71292 19.9932C10.1602 19.946 10.6922 19.7416 11.1009 19.8989C11.4941 20.0482 11.764 20.5593 12.111 20.9445C12.9361 19.8989 13.8305 19.9539 14.7404 21.0625C15.1722 19.6394 16.0513 19.5058 17.1 20.0325C17.2465 19.49 17.2465 18.8689 17.5472 18.5309C17.8402 18.1928 18.4416 18.1378 18.9506 17.9412C18.4339 16.8798 18.6036 15.9993 19.9761 15.559C18.8426 14.6077 19.0816 13.7271 19.9915 12.9016C18.6653 12.0525 18.5804 12.1154 19.0354 10.4722C18.5265 10.3149 17.8942 10.2992 17.5549 9.96902C17.2233 9.63881 17.2002 8.98625 17.0306 8.44376C16.0127 8.93908 15.1491 8.82901 14.7636 7.6261C14.2701 7.88555 13.8151 8.31011 13.3679 8.30225C12.9129 8.29438 12.458 7.87769 11.9645 7.61824C11.5944 8.91549 10.6922 8.97053 9.71292 8.51452C9.52786 9.06487 9.49701 9.7017 9.16545 10.024C8.83388 10.3464 8.2093 10.3621 7.66953 10.5194C8.21701 11.5965 7.90857 12.4063 6.70567 12.8151C7.90086 14.2539 7.79291 14.3168 6.82134 15.5747ZM22.3819 30.8323C22.7829 29.7159 23.153 28.5916 23.5308 27.4673C23.5617 27.3651 23.5617 27.255 23.5771 27.0899C21.3101 27.6403 19.1665 28.3085 17.5009 29.9832C16.3828 31.1075 15.9356 32.4676 16.2749 34.0715C16.3289 34.3467 16.4522 34.4724 16.7144 34.5275C17.6783 34.7398 18.6267 34.6926 19.4826 34.1973C20.1072 33.8356 20.8937 33.3324 21.2484 32.9157C21.634 32.4676 22.2431 31.2097 22.3819 30.8323ZM5.61073 31.2434C5.8035 32.6743 6.69025 34.6713 7.53074 35.6148C8.36351 36.5504 9.36593 37.0142 10.6305 36.7705C10.8618 36.7233 10.9544 36.6211 10.9929 36.3931C11.1394 35.5833 11.0238 34.8286 10.592 34.1288C9.9134 33.0281 8.87243 32.4306 7.73893 31.9589C7.06808 31.6916 6.36639 31.5029 5.61073 31.2434ZM5.17892 5.91216C5.10181 6.0301 5.17892 6.70624 5.27145 6.94996C5.4488 7.41383 5.96543 8.08997 6.38181 8.59315C6.80591 9.10418 7.40736 9.30073 8.08592 9.2457C8.32496 9.22211 8.4252 9.11991 8.44833 8.88404C8.50231 8.24721 8.34809 7.66542 7.89315 7.233C7.51532 6.87134 6.98326 6.47037 6.62856 6.29741C6.28928 6.12444 5.23289 5.82568 5.17892 5.91216ZM5.13265 22.6899C5.17121 22.7135 5.20976 22.7371 5.24831 22.7607C6.38953 22.5091 7.49218 22.1396 8.17074 21.0546C8.37894 20.7244 8.45604 20.2762 8.48689 19.8753C8.52544 19.4429 8.40207 19.3328 7.96255 19.3721C7.60014 19.4036 7.23001 19.4979 6.90616 19.6551C6.19675 19.9853 5.84205 20.6458 5.56446 21.3455C5.38711 21.7779 5.27145 22.2418 5.13265 22.6899ZM8.9187 3.23118C8.68737 4.37119 8.64111 5.41685 9.1346 6.43106C9.40448 6.98141 9.82858 7.35093 10.4146 7.53176C10.6228 7.59466 10.7847 7.57107 10.8464 7.35879C10.9544 6.98927 11.1317 6.59617 11.1009 6.23451C10.9698 4.82719 10.0214 4.00167 8.9187 3.23118ZM17.8633 3.17615C16.8069 3.92305 15.9202 4.66995 15.6503 5.95148C15.5501 6.4232 15.658 6.85562 15.8508 7.28017C15.951 7.50031 16.113 7.59466 16.3057 7.47672C16.6759 7.25659 17.1077 7.06789 17.3621 6.73769C18.1563 5.69989 18.0638 4.48912 17.8633 3.17615ZM8.92641 25.2844C9.66665 24.8363 10.3067 24.2859 10.723 23.5154C10.9158 23.1616 11.0392 22.745 11.1009 22.3361C11.1703 21.8644 11.1009 21.259 10.6999 21.0625C10.2835 20.8659 9.83629 21.2511 9.51244 21.5971C8.76448 22.3833 8.47147 24.2152 8.92641 25.2844ZM24.2094 9.67812C23.0373 9.45798 21.9655 9.39508 20.9477 9.96902C20.4927 10.2285 20.1843 10.6216 20.0147 11.1247C19.9144 11.4078 19.9684 11.5807 20.2537 11.7144C20.7858 11.966 21.3255 11.9974 21.8653 11.8009C22.8908 11.4314 23.5771 10.653 24.2094 9.67812ZM13.3525 26.0392C13.8691 25.4023 14.2932 24.4196 14.3703 23.712C14.4628 22.8786 14.3009 22.1238 13.6378 21.5499C13.4527 21.3848 13.3062 21.3691 13.1057 21.542C12.7433 21.8644 12.4811 22.2418 12.3963 22.7214C12.1881 23.9636 12.6508 25.0171 13.3525 26.0392ZM13.3679 2.40566C12.6893 3.44346 12.219 4.44981 12.3809 5.66058C12.4503 6.18734 12.7202 6.61189 13.1134 6.95783C13.2908 7.11507 13.4296 7.13079 13.6146 6.97355C14.0696 6.58044 14.3317 6.09299 14.378 5.48761C14.4628 4.3476 14.0156 3.39629 13.3679 2.40566ZM21.634 5.78637C20.4311 6.05368 19.4055 6.41534 18.6884 7.36666C18.3877 7.76762 18.272 8.22363 18.2797 8.7268C18.2797 9.0806 18.4416 9.26143 18.7655 9.20639C19.1588 9.13563 19.606 9.09632 19.9298 8.88404C20.9862 8.19218 21.3718 7.07576 21.634 5.78637ZM2.59577 9.63881C2.91963 10.4407 3.97602 11.455 4.83193 11.738C5.06325 11.8166 5.31 11.8716 5.54904 11.8795C5.98856 11.8874 6.54374 11.8481 6.71338 11.4392C6.88302 11.0304 6.53603 10.6058 6.21989 10.2756C5.46422 9.49729 3.62903 9.17494 2.59577 9.63881ZM24.9882 14.2381C23.8547 13.507 22.752 12.9252 21.4489 13.3419C21.0942 13.4519 20.7935 13.7743 20.5005 14.0337C20.4311 14.0966 20.4311 14.3561 20.5005 14.4583C20.7858 14.8828 21.2021 15.1423 21.7034 15.2366C22.9217 15.4489 23.9395 14.9457 24.9882 14.2381ZM2.58806 18.8689C3.69843 19.1048 4.70084 19.152 5.68012 18.6802C6.25073 18.4051 6.64399 17.9569 6.82134 17.328C6.88302 17.1157 6.85218 16.9506 6.63627 16.8877C6.25844 16.7855 5.86518 16.6046 5.49506 16.6439C4.14566 16.7855 3.35915 17.7525 2.58806 18.8689ZM1.75528 14.246C2.64974 14.8671 3.5365 15.3153 4.57747 15.2759C4.89361 15.2681 5.2406 15.2209 5.49506 15.0637C5.81892 14.8671 6.06567 14.5369 6.35097 14.2617C6.08109 13.9866 5.81121 13.7035 5.52591 13.4362C5.45651 13.3733 5.34084 13.3419 5.24831 13.3104C3.94517 12.9802 2.86565 13.4991 1.75528 14.246ZM21.6648 22.6192C21.4258 21.3612 21.0402 20.2448 19.9915 19.5451C19.66 19.3249 19.205 19.2856 18.7963 19.2149C18.4956 19.1598 18.3414 19.3249 18.326 19.663C18.2951 20.4492 18.619 21.0546 19.1819 21.542C19.8759 22.1474 20.7009 22.4383 21.6648 22.6192ZM17.8556 25.1979C18.0561 24.2309 18.1178 23.2717 17.7477 22.344C17.6243 22.0374 17.4392 21.7386 17.2156 21.4949C16.9149 21.1647 16.4754 20.8109 16.0821 20.9838C15.6889 21.1568 15.658 21.715 15.6426 22.171C15.6118 23.3503 16.9149 24.7891 17.8556 25.1979ZM24.0783 18.7746C23.3997 17.7053 22.6595 16.8012 21.4412 16.5575C21.0325 16.4788 20.5621 16.6361 20.1303 16.7226C19.845 16.7776 19.8065 16.9977 19.899 17.2651C20.1303 17.9648 20.6007 18.4051 21.2561 18.6645C22.1506 19.0104 23.0682 18.9711 24.0783 18.7746Z" fill="#6EAF41"/>
</svg>
