<svg width="217" height="124" viewBox="0 0 217 124" fill="#EEEEEE" xmlns="http://www.w3.org/2000/svg">
<path opacity="0.6" d="M3.82318 50.4643L1.02505 26.676C0.865873 25.3228 1.35724 23.9741 2.34964 23.0405L16.9495 9.30444C17.8639 8.44419 19.1084 8.0263 20.3567 8.1604L59.7625 12.3937C60.2933 12.4507 60.83 12.4085 61.3453 12.2691L104.579 0.573799C105.537 0.314661 106.555 0.394709 107.461 0.800376L142.498 16.4938C143.528 16.9554 144.336 17.8039 144.747 18.856L156.678 49.4357C157.101 50.5194 157.944 51.3856 159.017 51.8369L214.202 75.0645C217.421 76.4197 217.769 80.8446 214.8 82.6853L200.923 91.2886C200.557 91.5157 200.227 91.7966 199.944 92.1219L192.879 100.247C192.165 101.068 191.165 101.588 190.083 101.702L176.653 103.116C175.848 103.201 175.083 103.511 174.447 104.011L158.024 116.904C157.572 117.259 157.054 117.519 156.5 117.67L135.483 123.406C134.342 123.717 133.122 123.545 132.111 122.929L81.815 92.2601C81.1404 91.8488 80.3656 91.6312 79.5755 91.6312H69.8765C67.3951 91.6312 65.4283 89.5376 65.5832 87.0611L66.278 75.9457C66.4181 73.7053 64.812 71.7339 62.5896 71.4183L18.5295 65.1611C17.6133 65.031 16.7635 64.6089 16.1062 63.9575L5.06732 53.0171C4.37558 52.3315 3.93695 51.4315 3.82318 50.4643Z" fill="#E5E6E8"/>
</svg>
