<svg width="26" height="86" viewBox="0 0 26 86" fill="none" xmlns="http://www.w3.org/2000/svg">
<path d="M0.505627 5.80065C0.961425 5.80065 1.45512 5.80065 1.96156 5.80065C1.96156 5.52337 1.96156 6.10434 1.96156 5.80065C1.96156 11.9008 1.96156 13.0325 1.96156 19.1326C1.96156 20.1625 1.83495 20.0173 2.82251 20.2549C3.99999 20.5454 5.15215 20.9679 6.39293 21.364C6.39293 14.2868 6.39293 10.0701 6.39293 2.9137C6.91204 2.9137 7.32985 2.9137 7.82363 2.9137C7.82363 9.91169 7.82363 14.815 7.82363 21.813C7.82363 22.1959 7.84895 22.4996 8.1908 22.7901C10.9509 25.0479 12.4829 28.0451 12.9134 31.663C12.926 31.729 12.9387 31.795 12.926 31.7158C13.2426 30.5671 13.4958 29.2731 13.9516 28.0451C14.6986 25.959 15.99 24.2557 17.6613 22.8825C18.0158 22.592 18.1424 22.3015 18.1424 21.8394C18.1297 14.815 18.1297 2.9269 18.1297 2.9269C18.5855 2.9269 19.0033 2.9269 19.5225 2.9269C19.5225 10.0569 19.5225 14.2868 19.5225 21.5225C20.0289 21.3112 20.3961 21.1132 20.7886 20.9811C21.5862 20.7171 22.3965 20.4002 23.2195 20.2681C23.8779 20.1625 24.0045 19.8852 24.0045 19.2514C23.9791 13.1117 23.9916 11.9404 23.9916 5.80064C23.9916 6.10432 23.9916 5.53656 23.9916 5.80064C24.4854 5.80064 24.9158 5.80064 25.4096 5.80064C25.4096 12.1649 25.4098 13.5474 25.3972 19.9116C25.3845 28.3356 18.0917 34.4358 10.2039 32.6401C4.70901 31.3857 0.568846 26.1042 0.543524 20.2285C0.518202 13.6927 0.492966 12.3365 0.505627 5.80065C0.505627 5.6158 0.492966 6.03832 0.505627 5.80065Z" fill="#090706" fill-opacity="1"/>
<path d="M0.543835 60.6309C1.05028 60.6309 1.46809 60.6309 1.97453 60.6309C1.97453 61.4891 1.98719 62.3209 1.97453 63.1528C1.96187 63.5225 2.08848 63.6941 2.45565 63.747C7.83658 64.6052 12.3059 69.0945 12.939 75.3399C12.939 75.3795 12.9643 75.4191 12.977 75.4323C13.9645 68.8172 17.6362 64.8957 23.992 63.5885C23.992 62.6378 23.992 61.6608 23.992 60.6309C24.4858 60.6309 24.9163 60.6309 25.3341 60.6309C26.385 69.5038 21.2573 75.2871 14.9014 76.3566C14.7368 76.383 14.2513 76.4358 14.036 76.4886C14.036 80.5826 14.042 80.9941 14.043 84.5508C14.0431 85.103 13.5954 85.5534 13.0431 85.5534H12.9105C12.3582 85.5534 11.9107 85.1049 11.9089 84.5526C11.8988 81.4478 11.8439 80.7099 11.8669 77.0828C11.8669 76.6074 11.445 76.3962 10.9512 76.317C4.93721 75.2739 0.619801 69.9923 0.543835 63.6413C0.531174 62.6774 0.543835 61.6872 0.543835 60.6309Z" fill="#090706" fill-opacity="1"/>
<path d="M23.9919 27.9128C24.4983 27.9128 24.9035 27.9128 25.2833 27.9128C25.3213 27.9656 25.3719 27.992 25.3719 28.0316C25.6758 32.3625 25.0427 36.3896 22.08 39.7434C17.2056 45.2626 8.48214 45.1965 3.73427 39.5717C1.59456 37.0234 0.556362 34.0525 0.543701 30.6856C0.543701 29.7877 0.543701 28.8899 0.543701 27.9392C1.01216 27.9392 1.44263 27.9392 1.96173 27.9392C1.96173 28.7842 1.96173 29.6425 1.96173 30.4875C1.96173 30.8044 2.01238 31.0157 2.39221 31.0685C7.70982 31.8475 12.2804 36.35 12.9262 42.5954C12.9262 42.635 12.9515 42.6746 12.9262 42.5954C13.23 41.4599 13.4453 40.1659 13.9264 39.004C15.7116 34.5675 18.9401 31.9399 23.4728 31.0817C23.8779 31.0025 24.0045 30.8704 23.9919 30.4611C23.9792 29.6293 23.9919 28.7974 23.9919 27.9128Z" fill="#090706" fill-opacity="1"/>
<path d="M0.543791 49.726C1.06289 49.726 1.48071 49.726 1.97449 49.726C1.97449 50.5843 1.98715 51.4161 1.97449 52.2479C1.96183 52.6176 2.06312 52.7893 2.44295 52.8553C8.26703 54.004 12.0527 58.1368 12.9136 64.2238C12.9263 64.303 12.939 64.3954 12.939 64.369C13.2555 63.2203 13.4707 61.9263 13.9518 60.738C15.7244 56.3807 18.9023 53.7796 23.3463 52.8949C23.8781 52.7893 24.0553 52.6044 24.0174 52.0631C23.9794 51.3369 24.0174 50.6107 24.03 49.8845C24.03 49.8448 24.0553 49.8052 24.0933 49.726C24.4858 49.726 24.9036 49.726 25.4101 49.726C25.4101 50.9144 25.486 52.1291 25.3974 53.3174C24.9543 58.9423 22.2322 62.9562 17.1298 64.8444C12.2426 66.6665 7.79857 65.5046 4.08888 61.7019C1.78457 59.3384 0.683062 56.3543 0.556452 52.9874C0.518469 51.9178 0.543791 50.8483 0.543791 49.726Z" fill="#090706" fill-opacity="1"/>
<path d="M23.9922 38.8325C24.4986 38.8325 24.9038 38.8325 25.3342 38.8325C25.752 43.3878 25.0177 47.547 21.8018 50.9008C15.4713 57.5026 4.84865 55.2976 1.49348 46.6491C0.949053 45.2495 0.771798 43.6783 0.569222 42.1599C0.42995 41.0904 0.5439 39.968 0.5439 38.8325C1.03768 38.8325 1.46816 38.8325 1.96194 38.8325C1.96194 39.6908 1.9746 40.5226 1.94928 41.3544C1.93661 41.7373 2.07589 41.8958 2.4304 41.9486C7.77336 42.7804 12.2554 47.2697 12.9011 53.4623C12.9011 53.5151 12.9391 53.5679 12.9897 53.766C13.1923 51.4025 13.8633 49.3427 15.0914 47.4942C17.0792 44.4837 19.814 42.6484 23.2578 42.0014C23.7896 41.8958 24.0175 41.7373 23.9795 41.1432C23.9542 40.417 23.9922 39.6644 23.9922 38.8325Z" fill="#090706" fill-opacity="1"/>
<path d="M12.2807 0C12.7745 0 13.1923 0 13.6355 0C13.6481 0.224466 13.6608 0.40932 13.6608 0.607378C13.6608 2.87844 13.6481 5.13631 13.6734 7.40737C13.6734 7.79028 13.8254 8.22601 14.0406 8.5297C17.6617 13.5472 17.4211 20.3604 13.4202 25.061C13.281 25.2194 13.1543 25.391 12.9771 25.5891C11.3818 23.899 10.2803 21.9977 9.74853 19.7794C8.74831 15.6202 9.49531 11.8175 11.9895 8.38446C12.1541 8.15999 12.2428 7.8299 12.2428 7.55262C12.2681 5.30796 12.2554 3.0633 12.2554 0.81864C12.2807 0.567766 12.2807 0.330097 12.2807 0Z" fill="#090706" fill-opacity="1"/>
</svg>
